<svg width="925" height="220" viewBox="0 0 925 220" fill="none" xmlns="http://www.w3.org/2000/svg">
  <g clip-path="url(#clip0_106_43)">
    <path
      d="M248.228 195.739C244.756 221.985 208.629 227.81 196.394 204.421C194.626 200.891 189.445 190.809 187.573 187.136C179.956 172.514 170.319 153.019 160.462 132.734C158.642 128.983 156.822 125.199 154.975 121.422C140.526 91.4713 126.328 60.0426 118.207 42.7313C117.542 41.3354 116.507 40.1494 115.213 39.3033C113.92 38.4572 112.418 37.9838 110.874 37.9349C109.329 37.886 107.801 38.2635 106.456 39.026C105.112 39.7885 104.003 40.9066 103.252 42.2577C84.994 75.4281 39.5146 158.796 22.3191 189.425C22.3022 189.438 22.2883 189.455 22.2784 189.474C22.2684 189.493 22.2626 189.514 22.2612 189.536C22.0896 189.813 21.9401 190.103 21.8141 190.404C21.7186 190.615 21.6343 190.831 21.5616 191.051C20.1585 194.238 19.8 197.788 20.5375 201.191C21.275 204.594 23.0706 207.677 25.6671 209.996C28.2635 212.316 31.5275 213.754 34.9912 214.104C38.4548 214.454 41.9404 213.699 44.9483 211.946C44.133 212.509 43.3703 213.093 42.5392 213.656C42.0132 213.992 41.7817 214.213 41.0558 214.634L38.8676 215.839C16.049 227.836 -8.73693 202.159 3.02481 179.428C21.3407 142.069 59.7031 64.0258 77.5719 27.4984C79.6444 23.6046 82.022 18.1166 84.4101 14.4175C96.5085 -4.66177 126.334 -4.79858 138.821 13.9703C141.904 18.7059 141.93 19.6267 143.029 21.784C148.263 33.239 154.118 45.5937 159.189 57.0381C166.327 72.7235 173.244 88.6931 180.051 104.742C181.76 108.746 183.464 112.782 185.148 116.817C193.438 136.618 201.586 156.539 209.649 176.228L214.615 188.21L217.108 194.203C217.427 194.773 217.778 195.325 218.16 195.855C220.264 198.402 225.388 197.565 227.103 194.929C227.838 193.753 228.235 192.396 228.249 191.009C228.739 172.314 229.244 136.428 229.764 114.187C229.775 113.929 229.844 113.677 229.967 113.45C230.09 113.223 230.264 113.028 230.474 112.879C230.684 112.729 230.926 112.63 231.18 112.589C231.435 112.547 231.695 112.565 231.942 112.64C234.155 113.222 236.434 113.516 238.722 113.513C240.464 113.506 242.201 113.33 243.909 112.987C244.145 112.935 244.389 112.936 244.624 112.992C244.859 113.047 245.079 113.154 245.267 113.306C245.454 113.457 245.606 113.649 245.71 113.867C245.813 114.085 245.867 114.324 245.866 114.565C246.392 132.55 248.033 174.055 248.47 190.962C248.617 192.266 248.28 194.371 248.228 195.739Z"
      fill="white" />
    <path
      d="M214.673 97.2109C214.766 97.4167 214.781 97.65 214.713 97.8656C214.645 98.0813 214.499 98.2642 214.304 98.379C212.605 99.4314 210.938 100.563 209.807 101.226C205.325 104.057 200.865 106.856 196.336 109.713C192.612 112.07 188.886 114.436 185.158 116.811C183.475 112.775 181.77 108.74 180.061 104.735C187.23 99.9471 194.51 94.9852 201.627 90.1706L201.712 90.0864C202.722 89.4392 203.7 88.7657 204.678 88.0975C205.778 87.3661 208.887 85.3508 211.038 84.109C211.189 84.0213 211.363 83.9783 211.538 83.9851C211.712 83.9918 211.882 84.048 212.026 84.1472C212.17 84.2463 212.284 84.3843 212.353 84.5452C212.422 84.7061 212.444 84.8833 212.416 85.0562C211.669 89.7602 213.337 94.2327 214.673 97.2109Z"
      fill="white" />
    <path
      d="M160.472 132.745C135.991 147.615 113.088 163.953 90.1225 180.002C75.8411 189.889 61.5861 200.118 47.4205 210.199L44.9534 211.967C41.9451 213.721 38.4586 214.478 34.9939 214.128C31.5293 213.778 28.2644 212.339 25.6675 210.018C23.0706 207.698 21.2751 204.614 20.5384 201.209C19.8017 197.805 20.1617 194.254 21.5667 191.067C19.6626 197.008 27.1951 202.049 32.4868 197.908C38.273 194.493 43.9961 191.067 49.7665 187.573C85.1359 166.31 117.986 145.926 154.97 121.406C156.827 125.232 158.647 128.994 160.472 132.745Z"
      fill="white" />
    <path
      d="M250 86.8187C249.999 88.5146 249.665 90.1937 249.015 91.7601C248.365 93.3265 247.413 94.7495 246.213 95.9477C245.014 97.1459 243.589 98.0958 242.023 98.7432C240.456 99.3906 238.776 99.7227 237.081 99.7207C233.683 99.7181 230.423 98.3752 228.008 95.9835C225.594 93.5917 224.219 90.344 224.183 86.945V86.8187C224.183 85.123 224.517 83.4439 225.166 81.8773C225.814 80.3107 226.765 78.8873 227.964 77.6882C229.163 76.4892 230.586 75.5381 232.152 74.8892C233.718 74.2402 235.396 73.9062 237.092 73.9062C238.787 73.9062 240.465 74.2402 242.031 74.8892C243.598 75.5381 245.021 76.4892 246.219 77.6882C247.418 78.8873 248.369 80.3107 249.017 81.8773C249.666 83.4439 250 85.123 250 86.8187Z"
      fill="white" />
  </g>
  <path
    d="M348.34 106.007H411.16V125.807H348.34V106.007ZM350.32 174.047H326.92V48.0469H418.9V67.6669H350.32V174.047ZM439.369 174.047V77.9269H461.869V174.047H439.369ZM450.709 62.0869C446.509 62.0869 443.029 60.7669 440.269 58.1269C437.629 55.4869 436.309 52.3069 436.309 48.5869C436.309 44.7469 437.629 41.5669 440.269 39.0469C443.029 36.4069 446.509 35.0869 450.709 35.0869C454.909 35.0869 458.329 36.3469 460.969 38.8669C463.729 41.2669 465.109 44.3269 465.109 48.0469C465.109 52.0069 463.789 55.3669 461.149 58.1269C458.509 60.7669 455.029 62.0869 450.709 62.0869ZM545.941 76.8469C553.621 76.8469 560.461 78.3469 566.461 81.3469C572.581 84.3469 577.381 88.9669 580.861 95.2069C584.341 101.327 586.081 109.247 586.081 118.967V174.047H563.581V121.847C563.581 113.327 561.541 106.967 557.461 102.767C553.501 98.5669 547.921 96.4669 540.721 96.4669C535.441 96.4669 530.761 97.5469 526.681 99.7069C522.601 101.867 519.421 105.107 517.141 109.427C514.981 113.627 513.901 118.967 513.901 125.447V174.047H491.401V77.9269H512.821V103.847L509.041 95.9269C512.401 89.8069 517.261 85.1269 523.621 81.8869C530.101 78.5269 537.541 76.8469 545.941 76.8469ZM673.843 174.047V154.607L672.583 150.467V116.447C672.583 109.847 670.603 104.747 666.643 101.147C662.683 97.4269 656.683 95.5669 648.643 95.5669C643.243 95.5669 637.903 96.4069 632.623 98.0869C627.463 99.7669 623.083 102.107 619.483 105.107L610.663 88.7269C615.823 84.7669 621.943 81.8269 629.023 79.9069C636.223 77.8669 643.663 76.8469 651.343 76.8469C665.263 76.8469 676.003 80.2069 683.563 86.9269C691.243 93.5269 695.083 103.787 695.083 117.707V174.047H673.843ZM643.603 175.307C636.403 175.307 630.103 174.107 624.703 171.707C619.303 169.187 615.103 165.767 612.103 161.447C609.223 157.007 607.783 152.027 607.783 146.507C607.783 141.107 609.043 136.247 611.563 131.927C614.203 127.607 618.463 124.187 624.343 121.667C630.223 119.147 638.023 117.887 647.743 117.887H675.643V132.827H649.363C641.683 132.827 636.523 134.087 633.883 136.607C631.243 139.007 629.923 142.007 629.923 145.607C629.923 149.687 631.543 152.927 634.783 155.327C638.023 157.727 642.523 158.927 648.283 158.927C653.803 158.927 658.723 157.667 663.043 155.147C667.483 152.627 670.663 148.907 672.583 143.987L676.363 157.487C674.203 163.127 670.303 167.507 664.663 170.627C659.143 173.747 652.123 175.307 643.603 175.307ZM768.235 175.307C758.155 175.307 749.155 173.207 741.235 169.007C733.435 164.687 727.315 158.807 722.875 151.367C718.435 143.927 716.215 135.467 716.215 125.987C716.215 116.387 718.435 107.927 722.875 100.607C727.315 93.1669 733.435 87.3469 741.235 83.1469C749.155 78.9469 758.155 76.8469 768.235 76.8469C777.595 76.8469 785.815 78.7669 792.895 82.6069C800.095 86.3269 805.555 91.8469 809.275 99.1669L791.995 109.247C789.115 104.687 785.575 101.327 781.375 99.1669C777.295 97.0069 772.855 95.9269 768.055 95.9269C762.535 95.9269 757.555 97.1269 753.115 99.5269C748.675 101.927 745.195 105.407 742.675 109.967C740.155 114.407 738.895 119.747 738.895 125.987C738.895 132.227 740.155 137.627 742.675 142.187C745.195 146.627 748.675 150.047 753.115 152.447C757.555 154.847 762.535 156.047 768.055 156.047C772.855 156.047 777.295 154.967 781.375 152.807C785.575 150.647 789.115 147.287 791.995 142.727L809.275 152.807C805.555 160.007 800.095 165.587 792.895 169.547C785.815 173.387 777.595 175.307 768.235 175.307ZM872.499 175.307C861.819 175.307 852.459 173.207 844.419 169.007C836.499 164.687 830.319 158.807 825.879 151.367C821.559 143.927 819.399 135.467 819.399 125.987C819.399 116.387 821.499 107.927 825.699 100.607C830.019 93.1669 835.899 87.3469 843.339 83.1469C850.899 78.9469 859.479 76.8469 869.079 76.8469C878.439 76.8469 886.779 78.8869 894.099 82.9669C901.419 87.0469 907.179 92.8069 911.379 100.247C915.579 107.687 917.679 116.447 917.679 126.527C917.679 127.487 917.619 128.567 917.499 129.767C917.499 130.967 917.439 132.107 917.319 133.187H837.219V118.247H905.439L896.619 122.927C896.739 117.407 895.599 112.547 893.199 108.347C890.799 104.147 887.499 100.847 883.299 98.4469C879.219 96.0469 874.479 94.8469 869.079 94.8469C863.559 94.8469 858.699 96.0469 854.499 98.4469C850.419 100.847 847.179 104.207 844.779 108.527C842.499 112.727 841.359 117.707 841.359 123.467V127.067C841.359 132.827 842.679 137.927 845.319 142.367C847.959 146.807 851.679 150.227 856.479 152.627C861.279 155.027 866.799 156.227 873.039 156.227C878.439 156.227 883.299 155.387 887.619 153.707C891.939 152.027 895.779 149.387 899.139 145.787L911.199 159.647C906.879 164.687 901.419 168.587 894.819 171.347C888.339 173.987 880.899 175.307 872.499 175.307Z"
    fill="white" />
  <defs>
    <clipPath id="clip0_106_43">
      <rect width="250" height="219.091" fill="white" />
    </clipPath>
  </defs>
</svg>
