<svg width="1122" height="219" viewBox="0 0 1122 219" fill="none" xmlns="http://www.w3.org/2000/svg">
  <g clip-path="url(#clip0_434_61)">
    <path
      d="M198.582 178.455C195.805 199.451 166.903 204.111 157.115 185.4C155.701 182.576 151.556 174.51 150.058 171.572C143.965 159.874 136.255 144.278 128.369 128.051C126.913 125.049 125.457 122.023 123.98 119C112.42 95.0404 101.063 69.8974 94.5653 56.0483C94.0339 54.9316 93.2054 53.9828 92.1706 53.3059C91.1358 52.6291 89.9346 52.2503 88.6988 52.2112C87.4631 52.1721 86.2404 52.4741 85.1648 53.0841C84.0893 53.6941 83.2025 54.5886 82.6015 55.6695C67.9951 82.2058 31.6116 148.9 17.8552 173.403C17.8417 173.414 17.8306 173.427 17.8226 173.443C17.8146 173.458 17.81 173.475 17.8089 173.492C17.6716 173.713 17.552 173.946 17.4512 174.186C17.3748 174.355 17.3074 174.528 17.2492 174.704C16.1267 177.254 15.8399 180.093 16.4299 182.816C17.0199 185.539 18.4564 188.005 20.5336 189.86C22.6107 191.716 25.2219 192.867 27.9928 193.147C30.7638 193.427 33.5522 192.822 35.9586 191.42C35.3063 191.87 34.6961 192.337 34.0313 192.788C33.6104 193.057 33.4253 193.234 32.8446 193.571L31.094 194.535C12.8391 204.132 -6.98964 183.59 2.41975 165.405C17.0725 135.518 47.7624 73.0839 62.0574 43.862C63.7154 40.747 65.6175 36.3565 67.528 33.3973C77.2067 18.1339 101.067 18.0244 111.057 33.0395C113.523 36.828 113.544 37.5646 114.423 39.2905C118.611 48.4545 123.294 58.3382 127.351 67.4938C133.061 80.0421 138.595 92.8178 144.04 105.657C145.408 108.86 146.771 112.089 148.118 115.317C154.75 131.157 161.268 147.094 167.719 162.846L171.692 172.431L173.687 177.225C173.941 177.682 174.222 178.123 174.528 178.547C176.211 180.585 180.31 179.915 181.682 177.806C182.27 176.865 182.588 175.78 182.599 174.67C182.991 159.714 183.395 131.006 183.811 113.213C183.82 113.006 183.875 112.805 183.974 112.623C184.072 112.442 184.211 112.286 184.379 112.166C184.547 112.047 184.74 111.967 184.944 111.934C185.148 111.901 185.356 111.915 185.554 111.975C187.324 112.441 189.147 112.676 190.978 112.674C192.371 112.668 193.761 112.527 195.127 112.253C195.316 112.211 195.511 112.212 195.699 112.257C195.887 112.301 196.063 112.387 196.213 112.508C196.363 112.629 196.485 112.783 196.568 112.957C196.651 113.132 196.693 113.322 196.692 113.516C197.113 127.903 198.426 161.108 198.776 174.632C198.893 175.676 198.624 177.36 198.582 178.455Z"
      fill="white" />
    <path
      d="M171.738 99.632C171.813 99.7967 171.824 99.9833 171.77 100.156C171.715 100.328 171.599 100.475 171.443 100.567C170.084 101.408 168.75 102.313 167.845 102.844C164.26 105.109 160.692 107.348 157.068 109.634C154.089 111.519 151.108 113.412 148.126 115.312C146.779 112.084 145.416 108.855 144.048 105.652C149.784 101.821 155.608 97.8514 161.302 93.9998L161.369 93.9324C162.177 93.4147 162.96 92.8759 163.742 92.3413C164.622 91.7561 167.109 90.1439 168.83 89.1505C168.951 89.0803 169.09 89.0459 169.23 89.0513C169.37 89.0567 169.505 89.1017 169.621 89.181C169.736 89.2603 169.827 89.3707 169.882 89.4994C169.937 89.6282 169.955 89.7699 169.933 89.9082C169.335 93.6714 170.669 97.2495 171.738 99.632Z"
      fill="white" />
    <path
      d="M128.377 128.06C108.793 139.956 90.4703 153.026 72.0976 165.865C60.6725 173.774 49.2685 181.957 37.936 190.023L35.9624 191.437C33.5557 192.84 30.7665 193.446 27.9947 193.166C25.223 192.885 22.6111 191.735 20.5336 189.878C18.4561 188.021 17.0197 185.554 16.4303 182.831C15.841 180.107 16.129 177.267 17.253 174.717C15.7297 179.47 21.7557 183.502 25.9891 180.189C30.618 177.457 35.1965 174.717 39.8128 171.922C68.1083 154.912 94.3881 138.604 123.975 118.988C125.461 122.049 126.917 125.058 128.377 128.06Z"
      fill="white" />
    <path
      d="M200 91.3183C199.999 92.675 199.731 94.0183 199.212 95.2714C198.692 96.5245 197.93 97.6629 196.97 98.6214C196.011 99.58 194.871 100.34 193.618 100.858C192.364 101.376 191.021 101.641 189.665 101.64C186.946 101.638 184.338 100.563 182.406 98.6501C180.475 96.7367 179.375 94.1385 179.346 91.4193V91.3183C179.346 89.9617 179.613 88.6184 180.132 87.3651C180.651 86.1119 181.412 84.9731 182.371 84.0139C183.33 83.0546 184.468 82.2937 185.721 81.7746C186.974 81.2555 188.317 80.9883 189.673 80.9883C191.029 80.9883 192.372 81.2555 193.625 81.7746C194.878 82.2937 196.016 83.0546 196.975 84.0139C197.934 84.9731 198.695 86.1119 199.214 87.3651C199.733 88.6184 200 89.9617 200 91.3183Z"
      fill="white" />
  </g>
  <path
    d="M315.98 175.8C306.14 175.8 296.72 174.42 287.72 171.66C278.72 168.78 271.58 165.12 266.3 160.68L274.4 142.5C279.44 146.46 285.68 149.76 293.12 152.4C300.56 155.04 308.18 156.36 315.98 156.36C322.58 156.36 327.92 155.64 332 154.2C336.08 152.76 339.08 150.84 341 148.44C342.92 145.92 343.88 143.1 343.88 139.98C343.88 136.14 342.5 133.08 339.74 130.8C336.98 128.4 333.38 126.54 328.94 125.22C324.62 123.78 319.76 122.46 314.36 121.26C309.08 120.06 303.74 118.68 298.34 117.12C293.06 115.44 288.2 113.34 283.76 110.82C279.44 108.18 275.9 104.7 273.14 100.38C270.38 96.06 269 90.54 269 83.82C269 76.98 270.8 70.74 274.4 65.1C278.12 59.34 283.7 54.78 291.14 51.42C298.7 47.94 308.24 46.2 319.76 46.2C327.32 46.2 334.82 47.16 342.26 49.08C349.7 51 356.18 53.76 361.7 57.36L354.32 75.54C348.68 72.18 342.86 69.72 336.86 68.16C330.86 66.48 325.1 65.64 319.58 65.64C313.1 65.64 307.82 66.42 303.74 67.98C299.78 69.54 296.84 71.58 294.92 74.1C293.12 76.62 292.22 79.5 292.22 82.74C292.22 86.58 293.54 89.7 296.18 92.1C298.94 94.38 302.48 96.18 306.8 97.5C311.24 98.82 316.16 100.14 321.56 101.46C326.96 102.66 332.3 104.04 337.58 105.6C342.98 107.16 347.84 109.2 352.16 111.72C356.6 114.24 360.14 117.66 362.78 121.98C365.54 126.3 366.92 131.76 366.92 138.36C366.92 145.08 365.06 151.32 361.34 157.08C357.74 162.72 352.16 167.28 344.6 170.76C337.04 174.12 327.5 175.8 315.98 175.8ZM424.143 175.26C413.583 175.26 405.423 172.56 399.663 167.16C393.903 161.64 391.023 153.54 391.023 142.86V56.64H413.523V142.32C413.523 146.88 414.663 150.42 416.943 152.94C419.343 155.46 422.643 156.72 426.843 156.72C431.883 156.72 436.083 155.4 439.443 152.76L445.743 168.78C443.103 170.94 439.863 172.56 436.023 173.64C432.183 174.72 428.223 175.26 424.143 175.26ZM375.183 96.6V78.6H439.263V96.6H375.183ZM504.288 175.26C494.448 175.26 485.688 173.16 478.008 168.96C470.328 164.64 464.268 158.76 459.828 151.32C455.388 143.88 453.168 135.42 453.168 125.94C453.168 116.34 455.388 107.88 459.828 100.56C464.268 93.12 470.328 87.3 478.008 83.1C485.688 78.9 494.448 76.8 504.288 76.8C514.248 76.8 523.068 78.9 530.748 83.1C538.548 87.3 544.608 93.06 548.928 100.38C553.368 107.7 555.588 116.22 555.588 125.94C555.588 135.42 553.368 143.88 548.928 151.32C544.608 158.76 538.548 164.64 530.748 168.96C523.068 173.16 514.248 175.26 504.288 175.26ZM504.288 156C509.808 156 514.728 154.8 519.048 152.4C523.368 150 526.728 146.52 529.128 141.96C531.648 137.4 532.908 132.06 532.908 125.94C532.908 119.7 531.648 114.36 529.128 109.92C526.728 105.36 523.368 101.88 519.048 99.48C514.728 97.08 509.868 95.88 504.468 95.88C498.948 95.88 494.028 97.08 489.708 99.48C485.508 101.88 482.148 105.36 479.628 109.92C477.108 114.36 475.848 119.7 475.848 125.94C475.848 132.06 477.108 137.4 479.628 141.96C482.148 146.52 485.508 150 489.708 152.4C494.028 154.8 498.888 156 504.288 156ZM621.204 175.26C611.124 175.26 602.124 173.16 594.204 168.96C586.404 164.64 580.284 158.76 575.844 151.32C571.404 143.88 569.184 135.42 569.184 125.94C569.184 116.34 571.404 107.88 575.844 100.56C580.284 93.12 586.404 87.3 594.204 83.1C602.124 78.9 611.124 76.8 621.204 76.8C630.564 76.8 638.784 78.72 645.864 82.56C653.064 86.28 658.524 91.8 662.244 99.12L644.964 109.2C642.084 104.64 638.544 101.28 634.344 99.12C630.264 96.96 625.824 95.88 621.024 95.88C615.504 95.88 610.524 97.08 606.084 99.48C601.644 101.88 598.164 105.36 595.644 109.92C593.124 114.36 591.864 119.7 591.864 125.94C591.864 132.18 593.124 137.58 595.644 142.14C598.164 146.58 601.644 150 606.084 152.4C610.524 154.8 615.504 156 621.024 156C625.824 156 630.264 154.92 634.344 152.76C638.544 150.6 642.084 147.24 644.964 142.68L662.244 152.76C658.524 159.96 653.064 165.54 645.864 169.5C638.784 173.34 630.564 175.26 621.204 175.26ZM699.175 152.58L699.715 124.32L749.935 77.88H776.935L734.275 120.72L722.395 130.62L699.175 152.58ZM680.815 174V40.44H703.315V174H680.815ZM753.355 174L718.255 130.62L732.475 112.62L780.715 174H753.355ZM797.408 174V48H820.808V154.2H886.688V174H797.408ZM962.398 174V154.56L961.138 150.42V116.4C961.138 109.8 959.158 104.7 955.198 101.1C951.238 97.38 945.238 95.52 937.198 95.52C931.798 95.52 926.458 96.36 921.178 98.04C916.018 99.72 911.638 102.06 908.038 105.06L899.218 88.68C904.378 84.72 910.498 81.78 917.578 79.86C924.778 77.82 932.218 76.8 939.898 76.8C953.818 76.8 964.558 80.16 972.118 86.88C979.798 93.48 983.638 103.74 983.638 117.66V174H962.398ZM932.158 175.26C924.958 175.26 918.658 174.06 913.258 171.66C907.858 169.14 903.658 165.72 900.658 161.4C897.778 156.96 896.338 151.98 896.338 146.46C896.338 141.06 897.598 136.2 900.118 131.88C902.758 127.56 907.018 124.14 912.898 121.62C918.778 119.1 926.578 117.84 936.298 117.84H964.198V132.78H937.918C930.238 132.78 925.078 134.04 922.438 136.56C919.798 138.96 918.478 141.96 918.478 145.56C918.478 149.64 920.098 152.88 923.338 155.28C926.578 157.68 931.078 158.88 936.838 158.88C942.358 158.88 947.278 157.62 951.598 155.1C956.038 152.58 959.218 148.86 961.138 143.94L964.918 157.44C962.758 163.08 958.858 167.46 953.218 170.58C947.698 173.7 940.678 175.26 932.158 175.26ZM1065.79 175.26C1057.63 175.26 1050.37 173.46 1044.01 169.86C1037.65 166.26 1032.61 160.86 1028.89 153.66C1025.29 146.34 1023.49 137.1 1023.49 125.94C1023.49 114.66 1025.35 105.42 1029.07 98.22C1032.91 91.02 1038.01 85.68 1044.37 82.2C1050.85 78.6 1057.99 76.8 1065.79 76.8C1075.27 76.8 1083.61 78.84 1090.81 82.92C1098.13 87 1103.89 92.7 1108.09 100.02C1112.41 107.34 1114.57 115.98 1114.57 125.94C1114.57 135.9 1112.41 144.54 1108.09 151.86C1103.89 159.18 1098.13 164.94 1090.81 169.14C1083.61 173.22 1075.27 175.26 1065.79 175.26ZM1012.51 174V40.44H1035.01V100.2L1033.21 125.76L1033.93 151.32V174H1012.51ZM1063.27 156C1068.67 156 1073.47 154.8 1077.67 152.4C1081.99 150 1085.41 146.52 1087.93 141.96C1090.45 137.4 1091.71 132.06 1091.71 125.94C1091.71 119.7 1090.45 114.36 1087.93 109.92C1085.41 105.36 1081.99 101.88 1077.67 99.48C1073.47 97.08 1068.67 95.88 1063.27 95.88C1057.87 95.88 1053.01 97.08 1048.69 99.48C1044.37 101.88 1040.95 105.36 1038.43 109.92C1035.91 114.36 1034.65 119.7 1034.65 125.94C1034.65 132.06 1035.91 137.4 1038.43 141.96C1040.95 146.52 1044.37 150 1048.69 152.4C1053.01 154.8 1057.87 156 1063.27 156Z"
    fill="white" />
  <defs>
    <clipPath id="clip0_434_61">
      <rect width="200" height="175.273" fill="white" transform="translate(0 21.8633)" />
    </clipPath>
  </defs>
</svg>
