<svg width="476" height="417" viewBox="0 0 476 417" fill="none" xmlns="http://www.w3.org/2000/svg">
<g clip-path="url(#clip0_106_36)">
<path d="M471.9 372C465.3 421.88 396.62 432.95 373.36 388.5C370 381.79 360.15 362.63 356.59 355.65C342.11 327.86 323.79 290.81 305.05 252.26C301.59 245.13 298.13 237.94 294.62 230.76C267.15 173.84 240.16 114.11 224.72 81.2104C223.457 78.5574 221.488 76.3035 219.029 74.6955C216.57 73.0876 213.716 72.1878 210.779 72.0949C207.843 72.0019 204.937 72.7193 202.381 74.1685C199.825 75.6177 197.718 77.7426 196.29 80.3104C161.58 143.35 75.12 301.79 42.43 360C42.3979 360.026 42.3715 360.057 42.3526 360.094C42.3336 360.13 42.3225 360.17 42.32 360.21C41.9936 360.737 41.7094 361.289 41.47 361.86C41.2884 362.262 41.1282 362.672 40.99 363.09C38.3225 369.147 37.6409 375.893 39.043 382.361C40.445 388.829 43.8587 394.687 48.7948 399.096C53.7308 403.505 59.9359 406.238 66.5206 406.903C73.1053 407.569 79.7317 406.132 85.45 402.8C83.9 403.87 82.45 404.98 80.87 406.05C79.87 406.69 79.43 407.11 78.05 407.91L73.89 410.2C30.51 433 -16.61 384.2 5.74999 341C40.57 270 113.5 121.68 147.47 52.2604C151.41 44.8604 155.93 34.4304 160.47 27.4004C183.47 -8.85964 240.17 -9.11964 263.91 26.5504C269.77 35.5504 269.82 37.3004 271.91 41.4004C281.86 63.1704 292.99 86.6504 302.63 108.4C316.2 138.21 329.35 168.56 342.29 199.06C345.54 206.67 348.78 214.34 351.98 222.01C367.74 259.64 383.23 297.5 398.56 334.92L408 357.69L412.74 369.08C413.345 370.165 414.013 371.213 414.74 372.22C418.74 377.06 428.48 375.47 431.74 370.46C433.138 368.225 433.893 365.647 433.92 363.01C434.85 327.48 435.81 259.28 436.8 217.01C436.82 216.521 436.952 216.042 437.186 215.611C437.42 215.18 437.749 214.808 438.149 214.525C438.548 214.241 439.008 214.052 439.492 213.974C439.975 213.895 440.471 213.928 440.94 214.07C445.147 215.177 449.48 215.735 453.83 215.73C457.141 215.717 460.443 215.382 463.69 214.73C464.138 214.631 464.603 214.634 465.049 214.739C465.496 214.844 465.914 215.048 466.271 215.336C466.628 215.624 466.916 215.989 467.113 216.404C467.31 216.818 467.412 217.271 467.41 217.73C468.41 251.91 471.53 330.79 472.36 362.92C472.64 365.4 472 369.4 471.9 372Z" fill="white"/>
<path d="M408.11 184.75C408.288 185.141 408.315 185.585 408.186 185.994C408.057 186.404 407.78 186.752 407.41 186.97C404.18 188.97 401.01 191.12 398.86 192.38C390.34 197.76 381.86 203.08 373.25 208.51C366.17 212.99 359.087 217.487 352 222C348.8 214.33 345.56 206.66 342.31 199.05C355.94 189.95 369.78 180.52 383.31 171.37L383.47 171.21C385.39 169.98 387.25 168.7 389.11 167.43C391.2 166.04 397.11 162.21 401.2 159.85C401.488 159.683 401.817 159.602 402.15 159.615C402.482 159.627 402.804 159.734 403.079 159.923C403.353 160.111 403.568 160.373 403.699 160.679C403.831 160.985 403.872 161.322 403.82 161.65C402.4 170.59 405.57 179.09 408.11 184.75Z" fill="white"/>
<path d="M305.07 252.28C258.53 280.54 214.99 311.59 171.33 342.09C144.18 360.88 117.08 380.32 90.15 399.48L85.46 402.84C79.7408 406.175 73.1127 407.612 66.5261 406.947C59.9395 406.282 53.7328 403.548 48.7959 399.137C43.859 394.726 40.4456 388.866 39.0451 382.396C37.6445 375.925 38.3289 369.178 41 363.12C37.38 374.41 51.7 383.99 61.76 376.12C72.76 369.63 83.64 363.12 94.61 356.48C161.85 316.07 224.3 277.33 294.61 230.73C298.14 238 301.6 245.15 305.07 252.28Z" fill="white"/>
<path d="M475.27 165.001C475.269 168.224 474.632 171.415 473.397 174.392C472.162 177.369 470.352 180.073 468.071 182.35C465.79 184.628 463.083 186.433 460.104 187.663C457.125 188.894 453.933 189.525 450.71 189.521C444.25 189.516 438.052 186.964 433.462 182.418C428.871 177.873 426.258 171.701 426.19 165.241V165.001C426.19 161.778 426.825 158.587 428.058 155.61C429.291 152.633 431.099 149.927 433.378 147.649C435.656 145.37 438.362 143.562 441.339 142.329C444.316 141.096 447.507 140.461 450.73 140.461C453.953 140.461 457.144 141.096 460.121 142.329C463.098 143.562 465.804 145.37 468.082 147.649C470.361 149.927 472.169 152.633 473.402 155.61C474.635 158.587 475.27 161.778 475.27 165.001Z" fill="white"/>
</g>
<defs>
<clipPath id="clip0_106_36">
<rect width="475.27" height="416.38" fill="white"/>
</clipPath>
</defs>
</svg>
