<svg width="80" height="54" viewBox="0 0 80 54" fill="none" xmlns="http://www.w3.org/2000/svg">
  <path
    d="M0 43.4434H3.82274C6.24265 43.4434 7.39206 44.2314 7.39206 46.0093C7.39206 47.1183 6.68354 47.8942 5.46774 48.054C6.79126 48.241 7.68599 49.029 7.68599 50.3662C7.68599 52.1159 6.49608 52.9986 4.23775 52.9986H0V43.4438V43.4434ZM3.70334 47.5194C5.05315 47.5194 5.78881 47.011 5.78881 46.1287C5.78881 45.1938 5.10618 44.7522 3.70334 44.7522H1.52392V47.5194H3.70334ZM4.11709 51.6881C5.38758 51.6881 6.0961 51.1809 6.0961 50.2323C6.0961 49.2836 5.40052 48.7352 4.11709 48.7352H1.52392V51.6885H4.11667L4.11709 51.6881Z"
    fill="white" />
  <path
    d="M8.90576 45.7695H10.4155V49.9119C10.4155 51.2078 10.9107 51.8497 11.9265 51.8497C13.0224 51.8497 13.7314 51.1143 13.7314 49.9119V45.7695H15.2423V52.9992H13.8525L13.8253 51.7032C13.4508 52.6653 12.5953 53.1732 11.486 53.1732C9.90863 53.1732 8.90618 52.1306 8.90618 50.4203V45.7695H8.90576Z"
    fill="white" />
  <path
    d="M16.8804 45.7695H18.2573L18.3108 47.2529C18.5918 46.2236 19.2339 45.7695 20.1963 45.7695H20.9983V47.3192H20.1286C18.9529 47.3192 18.3913 47.9482 18.3913 49.1101V52.9992H16.8804V45.7695Z"
    fill="white" />
  <path
    d="M25.1194 45.5957C27.2583 45.5957 28.6353 47.0657 28.6353 49.2573V49.8186H23.0728C23.2068 51.0887 23.9554 51.9167 25.1453 51.9167C26.0413 51.9167 26.6692 51.4489 26.9502 50.6742H28.5418C28.1272 52.1976 26.8567 53.1739 25.1323 53.1739C22.94 53.1739 21.5229 51.6363 21.5229 49.3783C21.5229 47.1203 22.9404 45.5961 25.1194 45.5961V45.5957ZM27.0972 48.8036C26.9631 47.6141 26.2688 46.8524 25.1323 46.8524C23.9959 46.8524 23.2602 47.6141 23.0869 48.8036H27.0972Z"
    fill="white" />
  <path
    d="M30.0265 45.7697H31.4164L31.4436 47.0657C31.8181 46.1036 32.6736 45.5957 33.7829 45.5957C35.3603 45.5957 36.3627 46.6383 36.3627 48.3487V52.9994H34.853V48.857C34.853 47.5611 34.3578 46.9192 33.342 46.9192C32.246 46.9192 31.5371 47.6537 31.5371 48.857V52.9994H30.0261V45.7697H30.0265Z"
    fill="white" />
  <path
    d="M39.3539 49.6727C39.5021 51.0491 40.3968 51.8513 41.8815 51.8513C43.1378 51.8513 43.9127 51.29 43.9127 50.3813C43.9127 49.3116 42.9374 49.0712 41.4135 48.7645C39.5944 48.403 37.9911 47.9493 37.9911 46.0649C37.9911 44.3817 39.3146 43.2715 41.4669 43.2715C43.8597 43.2715 45.1961 44.7014 45.3301 46.5729H43.7528C43.6321 45.4497 42.8309 44.5945 41.454 44.5945C40.3438 44.5945 39.5818 45.1822 39.5818 46.0244C39.5818 47.0136 40.6649 47.2669 42.0147 47.5349C43.9937 47.9093 45.5047 48.4172 45.5047 50.3008C45.5047 52.1844 44.0208 53.1744 41.8681 53.1744C39.3689 53.1744 37.8713 51.7303 37.7773 49.6727H39.3547H39.3539Z"
    fill="white" />
  <path
    d="M49.8527 45.5957C51.7107 45.5957 53.0212 46.6913 53.3427 48.3758H51.7787C51.5382 47.453 50.8685 46.8787 49.8661 46.8787C48.5292 46.8787 47.7543 47.8679 47.7543 49.3783C47.7543 50.8888 48.5292 51.8909 49.8661 51.8909C50.9232 51.8909 51.6046 51.249 51.8046 50.2469H53.3686C53.0876 52.0236 51.7512 53.1739 49.8527 53.1739C47.6604 53.1739 46.23 51.6363 46.23 49.3783C46.23 47.1203 47.6604 45.5961 49.8527 45.5961V45.5957Z"
    fill="white" />
  <path
    d="M57.8317 45.5957C60.0249 45.5957 61.4683 47.1333 61.4683 49.3779C61.4683 51.6225 60.0249 53.1734 57.8317 53.1734C55.6386 53.1734 54.196 51.6359 54.196 49.3779C54.196 47.1199 55.6394 45.5957 57.8317 45.5957ZM57.8317 51.8905C59.1553 51.8905 59.9314 50.8883 59.9314 49.3779C59.9314 47.8674 59.1553 46.8783 57.8317 46.8783C56.5082 46.8783 55.72 47.8804 55.72 49.3779C55.72 50.8754 56.5091 51.8905 57.8317 51.8905Z"
    fill="white" />
  <path
    d="M62.4634 45.7695H63.8403L63.8938 47.2529C64.1748 46.2236 64.8169 45.7695 65.7793 45.7695H66.5813V47.3192H65.7116C64.5359 47.3192 63.9744 47.9482 63.9744 49.1101V52.9992H62.4634V45.7695Z"
    fill="white" />
  <path
    d="M70.6878 45.5957C72.8267 45.5957 74.2024 47.0657 74.2024 49.2573V49.8186H68.6424C68.7751 51.0887 69.5241 51.9167 70.7136 51.9167C71.6096 51.9167 72.2376 51.4489 72.5186 50.6742H74.1101C73.6955 52.1976 72.425 53.1739 70.7007 53.1739C68.5083 53.1739 67.0913 51.6363 67.0913 49.3783C67.0913 47.1203 68.5088 45.5961 70.6878 45.5961V45.5957ZM72.6655 48.8036C72.5315 47.6141 71.8372 46.8524 70.7007 46.8524C69.5642 46.8524 68.8286 47.6141 68.6553 48.8036H72.6655Z"
    fill="white" />
  <path
    d="M77.9707 46.009L78.5636 46.8558H78.0751L77.5081 46.0516H77.1791V46.8558H76.7554V44.5762H77.762C77.9966 44.5762 78.1887 44.6446 78.3386 44.7815C78.4885 44.9184 78.5632 45.0983 78.5632 45.322C78.5632 45.5002 78.5077 45.6526 78.397 45.7799C78.2864 45.9067 78.144 45.9835 77.9703 46.0094L77.9707 46.009ZM77.7294 44.9927H77.1791V45.6409H77.7294C77.8401 45.6409 77.9332 45.6092 78.0079 45.5461C78.0831 45.4835 78.1202 45.4051 78.1202 45.3116C78.1202 45.2181 78.0835 45.1446 78.0096 45.0837C77.9357 45.0232 77.8422 44.9927 77.7294 44.9927Z"
    fill="white" />
  <path
    d="M77.5489 48.1664C76.1974 48.1664 75.0977 47.0674 75.0977 45.716C75.0977 44.3646 76.197 43.2656 77.5489 43.2656C78.9008 43.2656 80.0001 44.365 80.0001 45.716C80.0001 47.067 78.9008 48.1664 77.5489 48.1664ZM77.5489 43.6997C76.437 43.6997 75.5319 44.6041 75.5319 45.716C75.5319 46.8279 76.4366 47.7323 77.5489 47.7323C78.6611 47.7323 79.5659 46.8279 79.5659 45.716C79.5659 44.6041 78.6611 43.6997 77.5489 43.6997Z"
    fill="white" />
  <path
    d="M51.4049 14.5624C50.9682 14.7318 50.5022 14.8278 50.0166 14.8399C47.4122 14.9013 45.2411 12.4952 45.1693 9.46424C45.1025 6.66954 46.8435 4.32101 49.1557 3.92201L48.3261 0L19.5996 7.63617L25.8769 37.3194L54.6022 29.6832L51.4049 14.5628V14.5624ZM28.8847 24.1965C28.946 23.0529 31.4507 22.2574 34.4798 22.4202C37.5076 22.5817 39.9133 23.6414 39.8519 24.785C39.7905 25.9286 37.2846 26.7253 34.2568 26.5626C31.229 26.3998 28.8233 25.3413 28.8847 24.1965ZM35.2605 30.7571C32.3317 31.5418 29.7898 31.5526 29.5827 30.7826C29.3773 30.0125 31.5839 28.7512 34.5127 27.9666C37.4416 27.1819 39.9851 27.1711 40.1905 27.9411C40.3976 28.7112 38.1906 29.9725 35.2605 30.7571ZM40.841 20.8121C40.1721 22.2082 37.4128 22.2799 34.6772 20.9711C31.9417 19.663 30.2662 17.4706 30.9338 16.0733C31.6027 14.6772 34.362 14.6054 37.0976 15.913C39.8331 17.2223 41.5098 19.4147 40.841 20.8121ZM44.0704 16.8604C42.4751 18.0416 39.717 17.0244 37.9121 14.5891C36.1072 12.1521 35.939 9.22008 37.5343 8.03767C39.1308 6.85652 41.8877 7.87365 43.6926 10.309C45.4975 12.746 45.667 15.678 44.0704 16.8604Z"
    fill="white" />
  <path
    d="M54.6011 9.24013C54.5289 6.2092 52.3583 3.80308 49.7551 3.86443C49.5522 3.86985 49.3517 3.88864 49.1555 3.92161L51.4051 14.562C53.3114 13.8241 54.66 11.7059 54.6011 9.23971V9.24013Z"
    fill="white" />
</svg>
