<?xml version="1.0" encoding="UTF-8"?>
<svg version="1.1" xmlns="http://www.w3.org/2000/svg" width="4044" height="655">
  <path
    d="M0 0 C1.0003125 0.7940625 2.000625 1.588125 3.03125 2.40625 C16.90191175 13.75497325 30.27526077 26.60773336 41 41 C41.56122559 41.74910645 42.12245117 42.49821289 42.70068359 43.27001953 C54.56601517 59.13203034 54.56601517 59.13203034 56 62 C57.26585937 61.7834375 58.53171875 61.566875 59.8359375 61.34375 C83.65420824 57.59315651 109.35341411 56.73252987 133 62 C134.15846436 62.24943359 134.15846436 62.24943359 135.34033203 62.50390625 C168.23871925 69.78618914 197.25770504 86.41560589 222 109 C222.81855469 109.74636719 223.63710938 110.49273437 224.48046875 111.26171875 C256.09866073 141.53683709 276.25014372 186.72461304 277.28125 230.37109375 C277.88756033 264.337319 277.88756033 264.337319 273 279 C273.98355469 279.13535156 274.96710937 279.27070313 275.98046875 279.41015625 C307.98309783 284.20075789 336.49941374 299.26420265 359.61474609 321.66162109 C360.80926144 322.81571576 362.02212082 323.95076858 363.23828125 325.08203125 C387.68866024 348.35644011 404.88470615 385.66529903 406.12646484 419.43969727 C406.7700281 452.41104132 406.7700281 452.41104132 403 467 C402.80132324 467.78552246 402.60264648 468.57104492 402.39794922 469.38037109 C392.01531029 509.3010345 367.05761234 544.32769063 331.51953125 565.75 C303.87871075 581.85781441 274.07911127 588.18840034 242.27165413 588.12863445 C240.46262346 588.13126401 240.46262346 588.13126401 238.61704671 588.13394669 C235.29974763 588.13776966 231.98250469 588.13719183 228.66520811 588.13466892 C225.04452595 588.13302325 221.42384944 588.13718707 217.80316913 588.14057809 C211.4670956 588.14571339 205.13102971 588.14715255 198.7949543 588.14612198 C189.37226242 588.14459314 179.94957894 588.1487675 170.52688869 588.1539966 C152.71475177 588.16365556 134.90261773 588.16648032 117.09047849 588.16705366 C103.33005193 588.16751369 89.56962649 588.16957454 75.80920029 588.17275429 C71.84429483 588.17365187 67.87938937 588.17454169 63.9144839 588.17542917 C62.43582467 588.17576074 62.43582467 588.17576074 60.92729353 588.17609901 C33.2072925 588.18225134 5.48729186 588.18619977 -22.23270988 588.18575573 C-23.79963757 588.18573236 -23.79963757 588.18573236 -25.39822036 588.18570852 C-30.69243113 588.18562542 -35.98664189 588.18552638 -41.28085266 588.18542381 C-42.33224539 588.18540387 -43.38363812 588.18538392 -44.46689123 588.18536337 C-46.59306393 588.18532294 -48.71923663 588.18528114 -50.84540933 588.18523798 C-83.91061583 588.1846255 -116.97581206 588.19212762 -150.04101562 588.20581055 C-187.21631007 588.22118806 -224.39159778 588.22977574 -261.5668956 588.22884732 C-265.53494461 588.2287727 -269.50299362 588.22872399 -273.47104263 588.22869301 C-274.93651943 588.22867553 -274.93651943 588.22867553 -276.43160183 588.22865769 C-292.11982 588.22862698 -307.80802922 588.2349993 -323.49624474 588.24362527 C-339.27867838 588.25212323 -355.06109901 588.25307499 -370.84353368 588.24651595 C-380.20561895 588.24283442 -389.56766456 588.24461065 -398.92974559 588.25445829 C-405.20038566 588.26049375 -411.47099724 588.25912359 -417.74163605 588.25198779 C-421.30322989 588.24813607 -424.86474745 588.24724296 -428.42633568 588.25544515 C-449.36441225 588.2942264 -470.47223363 588.04093624 -491.0625 583.8125 C-492.66798706 583.48995239 -492.66798706 583.48995239 -494.3059082 583.16088867 C-538.79924969 573.8606879 -577.16559505 552.0713378 -610 521 C-611.39412109 519.68708984 -611.39412109 519.68708984 -612.81640625 518.34765625 C-619.41158695 511.95886812 -625.11582732 505.14957771 -630.62060547 497.828125 C-631.9935265 496.0085794 -633.38795842 494.20719151 -634.78515625 492.40625 C-641.8890995 483.13134568 -647.65760242 473.37831577 -653 463 C-653.42168457 462.18789063 -653.84336914 461.37578125 -654.27783203 460.5390625 C-682.28144804 406.03865636 -686.43775569 342.05463422 -668.40625 283.6953125 C-653.67896888 238.55366426 -624.50007011 197.02849807 -586 169 C-585.46165527 168.60619141 -584.92331055 168.21238281 -584.36865234 167.80664062 C-535.60110224 132.42015942 -472.93489567 115.56515741 -413 125 C-412.01 125.33 -411.02 125.66 -410 126 C-409.73932739 125.08468506 -409.73932739 125.08468506 -409.47338867 124.15087891 C-407.70819245 118.09363969 -405.67026344 112.22565989 -403.3125 106.375 C-402.96364746 105.50891113 -402.61479492 104.64282227 -402.25537109 103.75048828 C-398.92047522 95.60268028 -395.13648484 87.76706866 -391 80 C-390.61585938 79.27039063 -390.23171875 78.54078125 -389.8359375 77.7890625 C-384.27270464 67.2727578 -378.21262951 57.45923105 -371 48 C-370.56574707 47.4229834 -370.13149414 46.8459668 -369.68408203 46.25146484 C-362.9620503 37.34360621 -355.74285673 29.03221917 -348 21 C-347.46584473 20.44393066 -346.93168945 19.88786133 -346.38134766 19.31494141 C-339.32347031 12.00537155 -332.08584352 5.17792156 -324 -1 C-323.33258789 -1.51675293 -322.66517578 -2.03350586 -321.97753906 -2.56591797 C-249.29081677 -58.60792449 -150.70852194 -73.28245387 0 0 Z "
    fill="#0067C8" transform="translate(679,57)" />
  <path
    d="M0 0 C0.77230957 0.16628906 1.54461914 0.33257812 2.34033203 0.50390625 C35.23871925 7.78618914 64.25770504 24.41560589 89 47 C89.81855469 47.74636719 90.63710938 48.49273437 91.48046875 49.26171875 C123.09866073 79.53683709 143.25014372 124.72461304 144.28125 168.37109375 C144.88756033 202.337319 144.88756033 202.337319 140 217 C140.98355469 217.13535156 141.96710938 217.27070313 142.98046875 217.41015625 C174.98309783 222.20075789 203.49941374 237.26420265 226.61474609 259.66162109 C227.80926144 260.81571576 229.02212082 261.95076858 230.23828125 263.08203125 C254.68866024 286.35644011 271.88470615 323.66529903 273.12646484 357.43969727 C273.7700281 390.41104132 273.7700281 390.41104132 270 405 C269.80132324 405.78552246 269.60264648 406.57104492 269.39794922 407.38037109 C259.01531029 447.3010345 234.05761234 482.32769063 198.51953125 503.75 C168.34528087 521.33418224 136.59516081 526.17701061 102.16970825 526.12025452 C100.18597076 526.12069128 98.20223333 526.12156812 96.2184962 526.12284368 C90.80016737 526.12506797 85.3818585 526.12109579 79.96353221 526.11606562 C74.10823619 526.1117315 68.25294122 526.11320964 62.39764404 526.1139679 C52.2638027 526.11449126 42.12996781 526.11136409 31.99612808 526.10573006 C17.34444699 526.0975896 2.69276804 526.09499389 -11.95891489 526.09374207 C-35.73254006 526.09164445 -59.50616188 526.08491493 -83.27978516 526.07543945 C-106.36832664 526.06624769 -129.45686721 526.05916767 -152.54541016 526.05493164 C-153.25772752 526.05480011 -153.97004488 526.05466859 -154.70394761 526.05453308 C-161.85765809 526.0532145 -169.01136858 526.05193869 -176.16507907 526.05069422 C-190.73660916 526.04815835 -205.30813919 526.04533709 -219.87966919 526.04234314 C-220.54957084 526.04220585 -221.21947248 526.04206856 -221.90967418 526.04192711 C-266.60645086 526.03273423 -311.30322564 526.01686908 -356 526 C-355.53386989 524.42766629 -355.06623703 522.85577804 -354.59799194 521.28407288 C-354.3377442 520.4086789 -354.07749645 519.53328493 -353.80936241 518.63136387 C-352.57624446 514.62230441 -351.16157069 510.68650942 -349.7265625 506.74609375 C-349.41111984 505.87351425 -349.09567719 505.00093475 -348.77067566 504.10191345 C-347.72504628 501.21270474 -346.67515078 498.32506809 -345.625 495.4375 C-344.87061587 493.35695933 -344.11630457 491.27639225 -343.36206055 489.19580078 C-337.13533481 472.04019409 -330.81658023 454.91876376 -324.49136353 437.79928589 C-317.5099677 418.89745062 -310.63201836 399.96065374 -303.8125 381 C-297.28547799 362.8541417 -290.72710099 344.72090911 -284.0625 326.625 C-283.70446289 325.65282532 -283.34642578 324.68065063 -282.97753906 323.67901611 C-282.61756836 322.7016449 -282.25759766 321.72427368 -281.88671875 320.71728516 C-281.14840576 318.71257679 -280.41012486 316.70785661 -279.671875 314.703125 C-279.30090698 313.69579315 -278.92993896 312.6884613 -278.54772949 311.65060425 C-273.61015243 298.23485697 -268.7125853 284.80447337 -263.8125 271.375 C-263.32447752 270.03761638 -262.83645057 268.70023438 -262.34841919 267.362854 C-260.37901903 261.96590253 -258.4097639 256.56889817 -256.44081116 251.17178345 C-253.27746131 242.50070217 -250.11312208 233.82998285 -246.94763565 225.15968132 C-246.22992992 223.19383662 -245.51228344 221.2279703 -244.79464722 219.26210022 C-242.65378326 213.39770442 -240.51247771 207.53347128 -238.36924171 201.6699419 C-237.18207501 198.42199212 -235.99524798 195.1739183 -234.80859375 191.92578125 C-234.57320011 191.281481 -234.33780647 190.63718075 -234.09527969 189.97335625 C-230.8172115 180.99892278 -227.55485401 172.01890338 -224.30349731 163.03475952 C-222.48110226 157.99934065 -220.65447234 152.96546091 -218.82693672 147.93190575 C-217.58647547 144.51430615 -216.34837391 141.09589399 -215.11621094 137.67529297 C-201.03737724 98.60107755 -183.86379516 62.85352067 -150 37 C-149.00742187 36.19175781 -148.01484375 35.38351563 -146.9921875 34.55078125 C-138.86270225 27.97440301 -130.26989831 22.80857448 -121 18 C-120.30229492 17.6302002 -119.60458984 17.26040039 -118.88574219 16.87939453 C-82.69639705 -2.12207256 -40.13666297 -8.94076948 0 0 Z "
    fill="#0082DF" transform="translate(812,119)" />
  <path
    d="M0 0 C290.35047974 0 290.35047974 0 310 3.75 C310.89895996 3.91918945 311.79791992 4.08837891 312.72412109 4.26269531 C345.93881321 10.78628564 379.39237147 24.45891486 405 47 C406.25876953 48.09441406 406.25876953 48.09441406 407.54296875 49.2109375 C410.06375103 51.43860556 412.53852077 53.70706155 415 56 C415.78890625 56.72316406 416.5778125 57.44632813 417.390625 58.19140625 C429.41657044 69.65484779 439.06294901 83.45695627 447 98 C447.34369629 98.62696777 447.68739258 99.25393555 448.04150391 99.89990234 C474.39469687 148.63661443 478.21068337 210.13960795 463 263 C459.20134575 275.62738159 454.30001189 287.42768086 448 299 C447.67386719 299.61069336 447.34773438 300.22138672 447.01171875 300.85058594 C434.4547045 324.27617129 416.2213416 344.1749053 395 360 C394.16984375 360.62519531 393.3396875 361.25039063 392.484375 361.89453125 C366.09808264 381.05600547 335.08404696 392.8377865 303 398 C302.32291992 398.11037598 301.64583984 398.22075195 300.94824219 398.33447266 C285.9331843 400.71454299 270.85074227 401.15281418 255.6796875 401.11352539 C254.0957947 401.11321804 252.51190177 401.11335427 250.92800903 401.11389065 C246.73963229 401.11411364 242.55128493 401.10837697 238.36291504 401.10128021 C234.41251548 401.09552596 230.46212256 401.0953139 226.51171875 401.09460449 C215.00780871 401.08938621 203.50390397 401.07542496 192 401.0625 C166.26 401.041875 140.52 401.02125 114 401 C114 455.78 114 510.56 114 567 C76.38 567 38.76 567 0 567 C0 379.89 0 192.78 0 0 Z M114 99 C114 166.32 114 233.64 114 303 C148.0621875 303.061875 148.0621875 303.061875 182.8125 303.125 C189.9485083 303.14320801 197.0845166 303.16141602 204.43676758 303.18017578 C210.90566158 303.18686995 210.90566158 303.18686995 217.3745575 303.19088745 C220.22708836 303.19272993 223.07954268 303.20014018 225.93205261 303.21115112 C263.7702771 303.35045365 297.56126987 300.63132139 326 273 C342.48253705 256.57222221 353.12926748 233.43721704 354 210 C354.0515625 208.73414063 354.103125 207.46828125 354.15625 206.1640625 C354.91745328 178.05301422 347.96513547 151.32669448 329 130 C328.34773438 129.25363281 327.69546875 128.50726563 327.0234375 127.73828125 C311.11856873 110.67182094 287.04591459 100.84827521 264 99 C259.1075456 98.85980446 254.21624069 98.87338143 249.32226562 98.88647461 C247.81944532 98.88678133 246.31662487 98.8866468 244.81380463 98.88610935 C240.80727416 98.88588458 236.80077386 98.89165969 232.79425049 98.89871979 C229.02787181 98.90443554 225.26150028 98.90468404 221.49511719 98.90539551 C210.49674083 98.91063256 199.49837003 98.9245938 188.5 98.9375 C151.6225 98.9684375 151.6225 98.9684375 114 99 Z "
    fill="#0C0C54" transform="translate(2805,77)" />
  <path
    d="M0 0 C1.00839935 -0.00100708 2.01679871 -0.00201416 3.05575562 -0.00305176 C20.89783867 0.00892504 38.36075841 0.91551276 56.0625 3.25 C57.1673877 3.39453613 58.27227539 3.53907227 59.41064453 3.68798828 C97.74047225 8.88886498 137.61060737 19.24773211 172.0625 37.25 C170.66052935 49.36711723 168.8087922 61.37606004 166.8046875 73.40625 C166.4933896 75.28905809 166.18236977 77.17191217 165.87161255 79.05480957 C165.06226657 83.95413405 164.24920467 88.85283442 163.43530273 93.75140381 C162.60170906 98.77269165 161.77172037 103.79457526 160.94140625 108.81640625 C159.3185837 118.62818251 157.69182537 128.43930164 156.0625 138.25 C153.0625 139.25 153.0625 139.25 149.5625 137.73046875 C148.06012857 136.97081777 146.56033441 136.20605813 145.0625 135.4375 C78.6613399 102.84091922 -4.59706774 95.82468948 -75.0078125 119.15234375 C-94.32585941 125.84173455 -113.09808128 135.24055742 -128.9375 148.25 C-129.78006348 148.93449219 -129.78006348 148.93449219 -130.63964844 149.6328125 C-165.3078441 177.92720459 -184.77467653 218.77003592 -189.63671875 263.01953125 C-189.73597656 264.08558594 -189.83523438 265.15164063 -189.9375 266.25 C-190.10185547 267.70986328 -190.10185547 267.70986328 -190.26953125 269.19921875 C-195.25451796 320.04608316 -183.73830879 373.61112343 -151.9375 414.25 C-148.46562189 418.44143235 -144.73912006 422.3556575 -140.9375 426.25 C-140.23625 427.013125 -139.535 427.77625 -138.8125 428.5625 C-106.79199354 462.52364322 -54.50748956 478.80338046 -8.87402344 480.31851196 C-2.93728743 480.46442265 2.99917235 480.49611642 8.9375 480.5 C9.8663501 480.50067474 10.7952002 480.50134949 11.75219727 480.50204468 C63.31241642 480.44283476 115.33099966 469.20317039 160.1640625 442.890625 C163.0625 441.25 163.0625 441.25 165.0625 441.25 C169.06777013 464.633196 172.78525119 488.05957823 176.4375 511.5 C176.60916309 512.60172546 176.60916309 512.60172546 176.78429413 513.72570801 C178.21347116 522.8999896 179.63945409 532.07476525 181.0625 541.25 C134.6642858 564.83135777 85.08925556 579.6114691 33.0625 583.25 C31.86455811 583.33612549 30.66661621 583.42225098 29.43237305 583.51098633 C18.16223886 584.27439809 6.91860214 584.45247214 -4.375 584.4375 C-5.29569275 584.43656342 -6.2163855 584.43562683 -7.16497803 584.43466187 C-58.2486458 584.3225515 -109.69363152 575.87116765 -155.9375 553.25 C-156.81438477 552.82380371 -157.69126953 552.39760742 -158.59472656 551.95849609 C-183.42764426 539.76567973 -206.00249957 524.45025327 -225.9375 505.25 C-226.59685547 504.61787598 -227.25621094 503.98575195 -227.93554688 503.33447266 C-237.42632 494.18759947 -246.15070776 484.88554306 -253.9375 474.25 C-254.75994754 473.15719886 -255.58286382 472.06475034 -256.40625 470.97265625 C-283.85958065 434.07494538 -299.94228495 390.48410471 -306.9375 345.25 C-307.08703125 344.32525879 -307.2365625 343.40051758 -307.390625 342.44775391 C-312.54191891 309.15862723 -312.57074439 272.45041888 -306.9375 239.25 C-306.76589355 238.19280762 -306.59428711 237.13561523 -306.41748047 236.04638672 C-297.92893394 184.7737451 -277.57153647 133.7858921 -241.30078125 95.73046875 C-239.33506724 93.66728132 -237.50330589 91.56775799 -235.6875 89.375 C-185.44047816 31.86478306 -103.79394153 6.32953019 -30.08984375 0.69140625 C-20.0665193 0.05963076 -10.04061609 0.00700391 0 0 Z "
    fill="#0C0C54" transform="translate(1615.9375,68.75)" />
  <path
    d="M0 0 C0.85062012 0.00215515 1.70124023 0.0043103 2.57763672 0.00653076 C15.82028096 0.06018866 28.7581016 0.52422717 41.75 3.3125 C43.13880371 3.61051514 43.13880371 3.61051514 44.55566406 3.91455078 C82.63837352 12.41345033 118.93329903 32.28458197 143.5625 63.125 C146.52561413 66.83623508 146.52561413 66.83623508 149.75 70.3125 C150.08 50.8425 150.41 31.3725 150.75 11.3125 C186.06 11.3125 221.37 11.3125 257.75 11.3125 C257.75 143.3125 257.75 275.3125 257.75 411.3125 C222.44 411.3125 187.13 411.3125 150.75 411.3125 C150.42 391.8425 150.09 372.3725 149.75 352.3125 C145.79 356.9325 141.83 361.5525 137.75 366.3125 C106.48712864 400.27477592 63.72752597 419.44269712 17.75 422.3125 C-24.09546595 423.75960545 -66.08724634 418.92666228 -103.25 398.3125 C-103.88776367 397.95929688 -104.52552734 397.60609375 -105.18261719 397.2421875 C-118.4501412 389.79469295 -130.20649394 380.78795885 -141.25 370.3125 C-141.73936035 369.85568848 -142.2287207 369.39887695 -142.73291016 368.92822266 C-178.76351054 335.11937839 -197.63540785 287.92669176 -202.25 239.3125 C-202.36085938 238.28898438 -202.47171875 237.26546875 -202.5859375 236.2109375 C-207.87861944 178.56361796 -195.86364661 119.70174286 -160.25 73.3125 C-157.36455234 69.8597894 -154.33853149 66.58235428 -151.25 63.3125 C-150.16243658 62.02439298 -149.07898087 60.73280466 -148 59.4375 C-121.83066786 29.69149376 -84.75608867 12.40367565 -46.625 4.0625 C-45.60792969 3.83578613 -45.60792969 3.83578613 -44.5703125 3.60449219 C-29.85910873 0.58733327 -14.96924449 -0.0688385 0 0 Z M-10.25 97.3125 C-10.99620605 97.53212402 -11.74241211 97.75174805 -12.51123047 97.97802734 C-27.39823204 102.5105275 -40.11803639 109.52479452 -52.25 119.3125 C-53.02988281 119.92609375 -53.80976562 120.5396875 -54.61328125 121.171875 C-76.76180915 139.58308469 -88.23062476 168.59027107 -91.0390625 196.65869141 C-93.66824516 229.7364872 -87.25548784 264.47997079 -65.25 290.3125 C-64.15365234 291.63314453 -64.15365234 291.63314453 -63.03515625 292.98046875 C-44.50540216 314.50624634 -16.32043213 326.91512816 11.75 329.3125 C48.20841179 331.20186873 84.48113727 324.34070539 112.65380859 299.64355469 C134.2816571 279.95826251 148.18058574 253.13586763 149.97094727 223.67700195 C150.08962491 219.72082837 150.13660251 215.77001023 150.125 211.8125 C150.12445618 211.1117334 150.12391235 210.4109668 150.12335205 209.68896484 C150.02124451 180.96815533 141.41373118 153.7638431 121.75 132.3125 C120.50283203 130.94351563 120.50283203 130.94351563 119.23046875 129.546875 C98.78662065 108.11525678 68.85564348 94.63023247 39.2434082 93.13549805 C14.2319502 92.66856306 14.2319502 92.66856306 -10.25 97.3125 Z "
    fill="#0C0C54" transform="translate(2022.25,232.6875)" />
  <path
    d="M0 0 C39.55005616 34.98829156 64.18523206 83.03376738 69.25585938 135.73828125 C69.4178609 138.91401475 69.46553818 142.08615099 69.49414062 145.265625 C69.50388916 146.1637088 69.5136377 147.0617926 69.52368164 147.98709106 C69.68984449 167.25845047 69.66544425 185.87345852 65.25585938 204.73828125 C65.06862305 205.57955566 64.88138672 206.42083008 64.68847656 207.28759766 C60.60248018 225.36407387 54.0513029 242.44773849 45.25585938 258.73828125 C44.77463623 259.64054443 44.77463623 259.64054443 44.28369141 260.56103516 C30.71403677 285.83270786 11.33707757 307.77338815 -11.74414062 324.73828125 C-12.80375 325.51945312 -13.86335938 326.300625 -14.95507812 327.10546875 C-23.19238386 332.98344741 -31.79113043 338.03689011 -40.74414062 342.73828125 C-41.39833984 343.08246094 -42.05253906 343.42664063 -42.7265625 343.78125 C-97.06207274 371.89139504 -162.15131468 372.99414803 -219.78686523 355.37866211 C-257.94823425 343.14407741 -293.31471035 318.55633292 -317.74414062 286.73828125 C-318.91203125 285.22041016 -318.91203125 285.22041016 -320.10351562 283.671875 C-353.77136911 238.78590625 -365.82792049 181.90563389 -358.74414062 126.73828125 C-352.43418678 83.21918715 -333.72819821 43.74932299 -303.140625 12.18164062 C-301.83481596 10.83200023 -300.54658836 9.46541123 -299.25976562 8.09765625 C-239.66686624 -53.83221958 -137.58320098 -66.70053034 0 0 Z M-226.36865234 82.16015625 C-247.12298264 105.97201124 -254.70989159 137.79907039 -252.74414062 168.73828125 C-249.96610824 198.98000154 -236.36844457 225.54379515 -213.74414062 245.73828125 C-191.19087238 264.48738377 -162.38068482 270.51009039 -133.74414062 268.73828125 C-112.37814949 266.75124407 -90.60776238 258.41465742 -74.74414062 243.73828125 C-74.24462891 243.28501465 -73.74511719 242.83174805 -73.23046875 242.36474609 C-59.96191962 230.21518325 -51.0950766 216.52983797 -44.74414062 199.73828125 C-44.34453125 198.68382812 -43.94492188 197.629375 -43.53320312 196.54296875 C-33.30048693 166.4603219 -36.12212532 132.24279055 -49.74414062 103.73828125 C-54.99748356 93.3502703 -61.59704236 84.98565149 -69.74414062 76.73828125 C-70.31390625 76.09632813 -70.88367187 75.454375 -71.47070312 74.79296875 C-87.23364969 57.41330972 -114.09018499 47.81256418 -137.07226562 46.6171875 C-171.43003182 45.29978849 -202.80491738 56.35263628 -226.36865234 82.16015625 Z "
    fill="#0C0C54" transform="translate(3974.744140625,286.26171875)" />
  <path
    d="M0 0 C3.99696233 3.42273811 7.83619632 7.00042518 11.61474609 10.66162109 C12.80926144 11.81571576 14.02212082 12.95076858 15.23828125 14.08203125 C39.68866024 37.35644011 56.88470615 74.66529903 58.12646484 108.43969727 C58.7700281 141.41104132 58.7700281 141.41104132 55 156 C54.70198486 157.17828369 54.70198486 157.17828369 54.39794922 158.38037109 C44.01531029 198.3010345 19.05761234 233.32769063 -16.48046875 254.75 C-47.50818506 272.83154341 -79.91328816 277.17692505 -115.24365234 277.11352539 C-117.46243793 277.11324284 -119.68122362 277.11340257 -121.90000916 277.1139679 C-127.88453474 277.11425323 -133.86904003 277.10839928 -139.85356092 277.10139394 C-146.12223169 277.09511635 -152.39090299 277.09455313 -158.65957642 277.09336853 C-169.16856206 277.09061977 -179.67754148 277.08438583 -190.18652344 277.07543945 C-201.00390588 277.06624019 -211.8212863 277.0591717 -222.63867188 277.05493164 C-223.64126569 277.05453756 -223.64126569 277.05453756 -224.66411392 277.05413551 C-228.01774106 277.05283034 -231.37136821 277.05156666 -234.72499537 277.05032361 C-262.48333539 277.03988854 -290.24166717 277.02231427 -318 277 C-317.68386789 275.55263232 -317.3662391 274.10559148 -317.04797363 272.65869141 C-316.78289379 271.44990829 -316.78289379 271.44990829 -316.5124588 270.21670532 C-315.97007573 267.87055877 -315.29653113 265.63604922 -314.46875 263.375 C-314.16195312 262.52873047 -313.85515625 261.68246094 -313.5390625 260.81054688 C-313.02472656 259.41932617 -313.02472656 259.41932617 -312.5 258 C-311.93925781 256.46182617 -311.93925781 256.46182617 -311.3671875 254.89257812 C-310.20634159 251.71449537 -309.03942771 248.53874246 -307.87011719 245.36376953 C-306.15021066 240.69145332 -304.43509884 236.017374 -302.71875 231.34375 C-300.34156167 224.87166024 -297.96343847 218.39991762 -295.58251953 211.92919922 C-291.81008548 201.67393241 -288.04629443 191.41697885 -284.375 181.125 C-281.69540362 173.61409272 -278.94177095 166.13230088 -276.15625 158.66015625 C-275.63244247 157.2549472 -275.63244247 157.2549472 -275.09805298 155.8213501 C-273.35079664 151.13683514 -271.60019771 146.45359827 -269.84521484 141.77197266 C-266.34999507 132.43145934 -262.94411797 123.06806058 -259.66886902 113.64813232 C-256.43942331 104.3656093 -253.12818719 95.11395353 -249.75805664 85.8815918 C-249.04440185 83.91900044 -248.33606261 81.95446803 -247.63305664 79.98803711 C-238.66850984 54.93178584 -226.87165013 33.79131744 -209 14 C-208.32324219 13.24976563 -207.64648438 12.49953125 -206.94921875 11.7265625 C-153.97527101 -43.85638052 -58.89202259 -48.35565362 0 0 Z "
    fill="#00A5FE" transform="translate(1027,368)" />
  <path
    d="M0 0 C-2.31675672 10.0156989 -6.02559252 19.54954913 -9.60223389 29.16412354 C-11.20057032 33.46140043 -12.78812231 37.76263909 -14.37643433 42.06362915 C-15.23427252 44.38638438 -16.09262128 46.7089511 -16.95144653 49.03134155 C-21.88668882 62.38175961 -26.76711991 75.75208684 -31.6448288 89.12360382 C-32.62438765 91.8085705 -33.60444996 94.49335331 -34.58448982 97.17814445 C-39.4569235 110.5266034 -44.32203328 123.87768813 -49.171875 137.234375 C-49.58465698 138.37112671 -49.99743896 139.50787842 -50.42272949 140.67907715 C-52.88920645 147.47157968 -52.88920645 147.47157968 -55.35546875 154.26416016 C-62.0697971 172.75254288 -68.86468227 191.21042041 -75.68148804 209.66122437 C-82.68945379 228.63826239 -89.58955715 247.65232075 -96.4375 266.6875 C-102.73681166 284.19691939 -109.06010539 301.6957521 -115.51855469 319.1472168 C-121.78109174 336.07513162 -127.95851045 353.03413253 -134.14303589 369.99066162 C-134.3790064 370.63761427 -134.6149769 371.28456692 -134.85809803 371.95112419 C-135.33116662 373.24825017 -135.80415294 374.54540616 -136.27705669 375.84259224 C-137.44227693 379.03832251 -138.60912736 382.23343883 -139.77952576 385.42727661 C-141.972675 391.41597183 -144.15152873 397.40872182 -146.28296566 403.41970825 C-147.28139155 406.23176159 -148.28844553 409.04068591 -149.29648781 411.8493042 C-149.7753663 413.19094163 -150.25007587 414.53407499 -150.72043419 415.87872314 C-151.36930205 417.7327467 -152.03351181 419.5813797 -152.69848633 421.4296875 C-153.07161453 422.48397949 -153.44474274 423.53827148 -153.82917786 424.62451172 C-154.21554916 425.40842285 -154.60192047 426.19233398 -155 427 C-155.99 427.33 -156.98 427.66 -158 428 C-160.40265237 426.67229857 -162.56908936 425.31248691 -164.8125 423.75 C-165.47685059 423.29544434 -166.14120117 422.84088867 -166.82568359 422.37255859 C-178.70718062 414.14474153 -189.57522688 404.99361066 -200 395 C-200.94746094 394.10539062 -201.89492187 393.21078125 -202.87109375 392.2890625 C-209.45063372 385.92417419 -215.13249439 379.12741021 -220.62060547 371.828125 C-221.9935265 370.0085794 -223.38795842 368.20719151 -224.78515625 366.40625 C-231.8890995 357.13134568 -237.65760242 347.37831577 -243 337 C-243.42168457 336.18789063 -243.84336914 335.37578125 -244.27783203 334.5390625 C-272.28144804 280.03865636 -276.43775569 216.05463422 -258.40625 157.6953125 C-243.67896888 112.55366426 -214.50007011 71.02849807 -176 43 C-175.46165527 42.60619141 -174.92331055 42.21238281 -174.36865234 41.80664062 C-129.9664419 9.58771673 -55.31506427 -18.43835476 0 0 Z "
    fill="#004AB2" transform="translate(269,183)" />
  <path
    d="M0 0 C35.64 0 71.28 0 108 0 C108 187.44 108 374.88 108 568 C72.36 568 36.72 568 0 568 C0 380.56 0 193.12 0 0 Z "
    fill="#0C0C54" transform="translate(2587,77)" />
  <path
    d="M0 0 C35.64 0 71.28 0 108 0 C108 187.44 108 374.88 108 568 C72.36 568 36.72 568 0 568 C0 380.56 0 193.12 0 0 Z "
    fill="#0C0C54" transform="translate(2379,77)" />
  <path
    d="M0 0 C-0.61148237 12.37536773 -1.51189111 24.69973265 -2.62890625 37.0390625 C-2.78468011 38.78451242 -2.94018725 40.52998616 -3.09544373 42.27548218 C-3.49885652 46.80301435 -3.90581701 51.33022035 -4.31359863 55.85736084 C-4.7314538 60.50366849 -5.14584056 65.15028543 -5.56054688 69.796875 C-6.3703644 78.86488381 -7.18394207 87.9325508 -8 97 C-8.74620605 96.79617203 -9.49241211 96.59234406 -10.26123047 96.38233948 C-11.24494629 96.11380661 -12.22866211 95.84527374 -13.2421875 95.56860352 C-14.21526855 95.30290054 -15.18834961 95.03719757 -16.19091797 94.76344299 C-48.7761874 85.90752659 -84.39587137 84.12523639 -115.015625 100.625 C-135.17344445 112.78725978 -145.20611524 130.56330986 -151.140625 152.84375 C-154.12545316 166.47926295 -154.30571221 179.81148458 -154.31884766 193.70263672 C-154.32816088 195.97068636 -154.33833159 198.23873261 -154.34928894 200.5067749 C-154.37644586 206.62557827 -154.39169569 212.7443588 -154.40471697 218.86320639 C-154.42041047 225.27204075 -154.4471807 231.68082891 -154.4727478 238.08963013 C-154.51413173 248.83399302 -154.54875696 259.5783529 -154.578125 270.32275391 C-154.60837417 281.38266831 -154.64277561 292.44255723 -154.68261719 303.50244141 C-154.6850987 304.19271514 -154.6875802 304.88298887 -154.69013691 305.59417999 C-154.7117629 311.59988221 -154.73370049 317.60558328 -154.75566864 323.61128426 C-154.84962527 349.40749399 -154.92314108 375.20372053 -155 401 C-190.97 401 -226.94 401 -264 401 C-264 268.34 -264 135.68 -264 -1 C-229.35 -1 -194.7 -1 -159 -1 C-158.4023341 6.17199081 -157.82503384 13.30351114 -157.46484375 20.484375 C-157.40037804 21.72408051 -157.40037804 21.72408051 -157.33460999 22.98883057 C-157.20048231 25.57579996 -157.06893706 28.16289266 -156.9375 30.75 C-156.84587577 32.52605058 -156.75408016 34.30209233 -156.66210938 36.078125 C-156.43943238 40.38531749 -156.21906784 44.6926225 -156 49 C-155.53674316 48.26249512 -155.07348633 47.52499023 -154.59619141 46.76513672 C-153.97921387 45.78818848 -153.36223633 44.81124023 -152.7265625 43.8046875 C-152.11893066 42.84030762 -151.51129883 41.87592773 -150.88525391 40.88232422 C-133.77930446 14.72940539 -108.91813524 -0.51468824 -78.7421875 -7.08984375 C-52.61785544 -12.29962443 -24.81872056 -9.34475771 0 0 Z "
    fill="#0C0C54" transform="translate(3596,244)" />
</svg>

