<svg width="124" height="51" viewBox="0 0 124 51" fill="none" xmlns="http://www.w3.org/2000/svg">
  <path
    d="M9.09645 17.3759C7.80045 17.3759 6.59245 17.1679 5.47245 16.7519C4.36845 16.3199 3.40845 15.7119 2.59245 14.9279C1.77645 14.1439 1.13645 13.2239 0.672453 12.1679C0.224453 11.1119 0.000453144 9.95189 0.000453144 8.68789C0.000453144 7.42389 0.224453 6.26389 0.672453 5.20789C1.13645 4.15189 1.77645 3.23189 2.59245 2.44789C3.42445 1.66389 4.39245 1.06389 5.49645 0.647889C6.60045 0.21589 7.80845 -0.000109673 9.12045 -0.000109673C10.5765 -0.000109673 11.8885 0.25589 13.0565 0.76789C14.2405 1.26389 15.2325 1.99989 16.0325 2.97589L13.5365 5.27989C12.9605 4.62389 12.3205 4.13589 11.6165 3.81589C10.9125 3.47989 10.1445 3.31189 9.31245 3.31189C8.52845 3.31189 7.80845 3.43989 7.15245 3.69589C6.49645 3.95189 5.92845 4.31989 5.44845 4.79989C4.96845 5.27989 4.59245 5.84789 4.32045 6.50389C4.06445 7.15989 3.93645 7.88789 3.93645 8.68789C3.93645 9.48789 4.06445 10.2159 4.32045 10.8719C4.59245 11.5279 4.96845 12.0959 5.44845 12.5759C5.92845 13.0559 6.49645 13.4239 7.15245 13.6799C7.80845 13.9359 8.52845 14.0639 9.31245 14.0639C10.1445 14.0639 10.9125 13.9039 11.6165 13.5839C12.3205 13.2479 12.9605 12.7439 13.5365 12.0719L16.0325 14.3759C15.2325 15.3519 14.2405 16.0959 13.0565 16.6079C11.8885 17.1199 10.5685 17.3759 9.09645 17.3759ZM24.0927 17.2799C22.7167 17.2799 21.4927 16.9919 20.4207 16.4159C19.3647 15.8399 18.5247 15.0559 17.9007 14.0639C17.2927 13.0559 16.9887 11.9119 16.9887 10.6319C16.9887 9.33589 17.2927 8.19189 17.9007 7.19989C18.5247 6.19189 19.3647 5.40789 20.4207 4.84789C21.4927 4.27189 22.7167 3.98389 24.0927 3.98389C25.4527 3.98389 26.6687 4.27189 27.7407 4.84789C28.8127 5.40789 29.6527 6.18389 30.2607 7.17589C30.8687 8.16789 31.1727 9.31989 31.1727 10.6319C31.1727 11.9119 30.8687 13.0559 30.2607 14.0639C29.6527 15.0559 28.8127 15.8399 27.7407 16.4159C26.6687 16.9919 25.4527 17.2799 24.0927 17.2799ZM24.0927 14.2079C24.7167 14.2079 25.2767 14.0639 25.7727 13.7759C26.2687 13.4879 26.6607 13.0799 26.9487 12.5519C27.2367 12.0079 27.3807 11.3679 27.3807 10.6319C27.3807 9.87989 27.2367 9.23989 26.9487 8.71189C26.6607 8.18389 26.2687 7.77589 25.7727 7.48789C25.2767 7.19989 24.7167 7.05589 24.0927 7.05589C23.4687 7.05589 22.9087 7.19989 22.4127 7.48789C21.9167 7.77589 21.5167 8.18389 21.2127 8.71189C20.9247 9.23989 20.7807 9.87989 20.7807 10.6319C20.7807 11.3679 20.9247 12.0079 21.2127 12.5519C21.5167 13.0799 21.9167 13.4879 22.4127 13.7759C22.9087 14.0639 23.4687 14.2079 24.0927 14.2079ZM33.6753 17.0879V4.17589H37.2513V7.82389L36.7473 6.76789C37.1313 5.85589 37.7473 5.16789 38.5953 4.70389C39.4433 4.22389 40.4753 3.98389 41.6913 3.98389V7.43989C41.5313 7.42389 41.3873 7.41589 41.2593 7.41589C41.1313 7.39989 40.9953 7.39189 40.8513 7.39189C39.8273 7.39189 38.9953 7.68789 38.3553 8.27989C37.7313 8.85589 37.4193 9.75989 37.4193 10.9919V17.0879H33.6753ZM51.5729 17.2799C50.4849 17.2799 49.5329 17.0399 48.7169 16.5599C47.9009 16.0799 47.2609 15.3519 46.7969 14.3759C46.3489 13.3839 46.1249 12.1359 46.1249 10.6319C46.1249 9.11189 46.3409 7.86389 46.7729 6.88789C47.2049 5.91189 47.8289 5.18389 48.6449 4.70389C49.4609 4.22389 50.4369 3.98389 51.5729 3.98389C52.7889 3.98389 53.8769 4.26389 54.8369 4.82389C55.8129 5.36789 56.5809 6.13589 57.1409 7.12789C57.7169 8.11989 58.0049 9.28789 58.0049 10.6319C58.0049 11.9919 57.7169 13.1679 57.1409 14.1599C56.5809 15.1519 55.8129 15.9199 54.8369 16.4639C53.8769 17.0079 52.7889 17.2799 51.5729 17.2799ZM43.9409 21.7439V4.17589H47.5169V6.81589L47.4449 10.6559L47.6849 14.4719V21.7439H43.9409ZM50.9249 14.2079C51.5489 14.2079 52.1009 14.0639 52.5809 13.7759C53.0769 13.4879 53.4689 13.0799 53.7569 12.5519C54.0609 12.0079 54.2129 11.3679 54.2129 10.6319C54.2129 9.87989 54.0609 9.23989 53.7569 8.71189C53.4689 8.18389 53.0769 7.77589 52.5809 7.48789C52.1009 7.19989 51.5489 7.05589 50.9249 7.05589C50.3009 7.05589 49.7409 7.19989 49.2449 7.48789C48.7489 7.77589 48.3569 8.18389 48.0689 8.71189C47.7809 9.23989 47.6369 9.87989 47.6369 10.6319C47.6369 11.3679 47.7809 12.0079 48.0689 12.5519C48.3569 13.0799 48.7489 13.4879 49.2449 13.7759C49.7409 14.0639 50.3009 14.2079 50.9249 14.2079ZM66.6552 17.2799C65.2792 17.2799 64.0552 16.9919 62.9832 16.4159C61.9272 15.8399 61.0872 15.0559 60.4632 14.0639C59.8552 13.0559 59.5512 11.9119 59.5512 10.6319C59.5512 9.33589 59.8552 8.19189 60.4632 7.19989C61.0872 6.19189 61.9272 5.40789 62.9832 4.84789C64.0552 4.27189 65.2792 3.98389 66.6552 3.98389C68.0152 3.98389 69.2312 4.27189 70.3032 4.84789C71.3752 5.40789 72.2152 6.18389 72.8232 7.17589C73.4312 8.16789 73.7352 9.31989 73.7352 10.6319C73.7352 11.9119 73.4312 13.0559 72.8232 14.0639C72.2152 15.0559 71.3752 15.8399 70.3032 16.4159C69.2312 16.9919 68.0152 17.2799 66.6552 17.2799ZM66.6552 14.2079C67.2792 14.2079 67.8392 14.0639 68.3352 13.7759C68.8312 13.4879 69.2232 13.0799 69.5112 12.5519C69.7992 12.0079 69.9432 11.3679 69.9432 10.6319C69.9432 9.87989 69.7992 9.23989 69.5112 8.71189C69.2232 8.18389 68.8312 7.77589 68.3352 7.48789C67.8392 7.19989 67.2792 7.05589 66.6552 7.05589C66.0312 7.05589 65.4712 7.19989 64.9752 7.48789C64.4792 7.77589 64.0792 8.18389 63.7752 8.71189C63.4872 9.23989 63.3432 9.87989 63.3432 10.6319C63.3432 11.3679 63.4872 12.0079 63.7752 12.5519C64.0792 13.0799 64.4792 13.4879 64.9752 13.7759C65.4712 14.0639 66.0312 14.2079 66.6552 14.2079ZM76.2378 17.0879V4.17589H79.8138V7.82389L79.3098 6.76789C79.6938 5.85589 80.3098 5.16789 81.1578 4.70389C82.0058 4.22389 83.0378 3.98389 84.2538 3.98389V7.43989C84.0938 7.42389 83.9498 7.41589 83.8218 7.41589C83.6938 7.39989 83.5578 7.39189 83.4138 7.39189C82.3898 7.39189 81.5578 7.68789 80.9178 8.27989C80.2938 8.85589 79.9818 9.75989 79.9818 10.9919V17.0879H76.2378ZM93.5562 17.0879V14.5679L93.3162 14.0159V9.50389C93.3162 8.70389 93.0682 8.07989 92.5722 7.63189C92.0922 7.18389 91.3482 6.95989 90.3402 6.95989C89.6522 6.95989 88.9722 7.07189 88.3002 7.29589C87.6442 7.50389 87.0842 7.79189 86.6202 8.15989L85.2762 5.54389C85.9802 5.04789 86.8282 4.66389 87.8202 4.39189C88.8122 4.11989 89.8202 3.98389 90.8442 3.98389C92.8122 3.98389 94.3402 4.44789 95.4282 5.37589C96.5162 6.30389 97.0602 7.75189 97.0602 9.71989V17.0879H93.5562ZM89.6202 17.2799C88.6122 17.2799 87.7482 17.1119 87.0282 16.7759C86.3082 16.4239 85.7562 15.9519 85.3722 15.3599C84.9882 14.7679 84.7962 14.1039 84.7962 13.3679C84.7962 12.5999 84.9802 11.9279 85.3482 11.3519C85.7322 10.7759 86.3322 10.3279 87.1482 10.0079C87.9642 9.67189 89.0282 9.50389 90.3402 9.50389H93.7722V11.6879H90.7482C89.8682 11.6879 89.2602 11.8319 88.9242 12.1199C88.6042 12.4079 88.4442 12.7679 88.4442 13.1999C88.4442 13.6799 88.6282 14.0639 88.9962 14.3519C89.3802 14.6239 89.9002 14.7599 90.5562 14.7599C91.1802 14.7599 91.7402 14.6159 92.2362 14.3279C92.7322 14.0239 93.0922 13.5839 93.3162 13.0079L93.8922 14.7359C93.6202 15.5679 93.1242 16.1999 92.4042 16.6319C91.6842 17.0639 90.7562 17.2799 89.6202 17.2799ZM105.729 17.2799C104.209 17.2799 103.025 16.8959 102.177 16.1279C101.329 15.3439 100.905 14.1839 100.905 12.6479V1.31989H104.649V12.5999C104.649 13.1439 104.793 13.5679 105.081 13.8719C105.369 14.1599 105.761 14.3039 106.257 14.3039C106.849 14.3039 107.353 14.1439 107.769 13.8239L108.777 16.4639C108.393 16.7359 107.929 16.9439 107.385 17.0879C106.857 17.2159 106.305 17.2799 105.729 17.2799ZM98.9127 7.34389V4.46389H107.865V7.34389H98.9127ZM116.888 17.2799C115.416 17.2799 114.12 16.9919 113 16.4159C111.896 15.8399 111.04 15.0559 110.432 14.0639C109.824 13.0559 109.52 11.9119 109.52 10.6319C109.52 9.33589 109.816 8.19189 110.408 7.19989C111.016 6.19189 111.84 5.40789 112.88 4.84789C113.92 4.27189 115.096 3.98389 116.408 3.98389C117.672 3.98389 118.808 4.25589 119.816 4.79989C120.84 5.32789 121.648 6.09589 122.24 7.10389C122.832 8.09589 123.128 9.28789 123.128 10.6799C123.128 10.8239 123.12 10.9919 123.104 11.1839C123.088 11.3599 123.072 11.5279 123.056 11.6879H112.568V9.50389H121.088L119.648 10.1519C119.648 9.47989 119.512 8.89589 119.24 8.39989C118.968 7.90389 118.592 7.51989 118.112 7.24789C117.632 6.95989 117.072 6.81589 116.432 6.81589C115.792 6.81589 115.224 6.95989 114.728 7.24789C114.248 7.51989 113.872 7.91189 113.6 8.42389C113.328 8.91989 113.192 9.51189 113.192 10.1999V10.7759C113.192 11.4799 113.344 12.1039 113.648 12.6479C113.968 13.1759 114.408 13.5839 114.968 13.8719C115.544 14.1439 116.216 14.2799 116.984 14.2799C117.672 14.2799 118.272 14.1759 118.784 13.9679C119.312 13.7599 119.792 13.4479 120.224 13.0319L122.216 15.1919C121.624 15.8639 120.88 16.3839 119.984 16.7519C119.088 17.1039 118.056 17.2799 116.888 17.2799ZM16.9614 46.3759C15.6334 46.3759 14.4094 46.1679 13.2894 45.7519C12.1854 45.3199 11.2174 44.7119 10.3854 43.9279C9.56942 43.1439 8.92942 42.2239 8.46542 41.1679C8.01742 40.1119 7.79342 38.9519 7.79342 37.6879C7.79342 36.4239 8.01742 35.2639 8.46542 34.2079C8.92942 33.1519 9.57742 32.2319 10.4094 31.4479C11.2414 30.6639 12.2174 30.0639 13.3374 29.6479C14.4574 29.2159 15.6894 28.9999 17.0334 28.9999C18.5214 28.9999 19.8574 29.2479 21.0414 29.7439C22.2414 30.2399 23.2494 30.9599 24.0654 31.9039L21.5694 34.2079C20.9614 33.5679 20.2974 33.0959 19.5774 32.7919C18.8574 32.4719 18.0734 32.3119 17.2254 32.3119C16.4094 32.3119 15.6654 32.4399 14.9934 32.6959C14.3214 32.9519 13.7374 33.3199 13.2414 33.7999C12.7614 34.2799 12.3854 34.8479 12.1134 35.5039C11.8574 36.1599 11.7294 36.8879 11.7294 37.6879C11.7294 38.4719 11.8574 39.1919 12.1134 39.8479C12.3854 40.5039 12.7614 41.0799 13.2414 41.5759C13.7374 42.0559 14.3134 42.4239 14.9694 42.6799C15.6414 42.9359 16.3774 43.0639 17.1774 43.0639C17.9454 43.0639 18.6894 42.9439 19.4094 42.7039C20.1454 42.4479 20.8574 42.0239 21.5454 41.4319L23.7534 44.2399C22.8414 44.9279 21.7774 45.4559 20.5614 45.8239C19.3614 46.1919 18.1614 46.3759 16.9614 46.3759ZM20.2014 43.7359V37.4239H23.7534V44.2399L20.2014 43.7359ZM35.021 46.0879V43.5679L34.781 43.0159V38.5039C34.781 37.7039 34.533 37.0799 34.037 36.6319C33.557 36.1839 32.813 35.9599 31.805 35.9599C31.117 35.9599 30.437 36.0719 29.765 36.2959C29.109 36.5039 28.549 36.7919 28.085 37.1599L26.741 34.5439C27.445 34.0479 28.293 33.6639 29.285 33.3919C30.277 33.1199 31.285 32.9839 32.309 32.9839C34.277 32.9839 35.805 33.4479 36.893 34.3759C37.981 35.3039 38.525 36.7519 38.525 38.7199V46.0879H35.021ZM31.085 46.2799C30.077 46.2799 29.213 46.1119 28.493 45.7759C27.773 45.4239 27.221 44.9519 26.837 44.3599C26.453 43.7679 26.261 43.1039 26.261 42.3679C26.261 41.5999 26.445 40.9279 26.813 40.3519C27.197 39.7759 27.797 39.3279 28.613 39.0079C29.429 38.6719 30.493 38.5039 31.805 38.5039H35.237V40.6879H32.213C31.333 40.6879 30.725 40.8319 30.389 41.1199C30.069 41.4079 29.909 41.7679 29.909 42.1999C29.909 42.6799 30.093 43.0639 30.461 43.3519C30.845 43.6239 31.365 43.7599 32.021 43.7599C32.645 43.7599 33.205 43.6159 33.701 43.3279C34.197 43.0239 34.557 42.5839 34.781 42.0079L35.357 43.7359C35.085 44.5679 34.589 45.1999 33.869 45.6319C33.149 46.0639 32.221 46.2799 31.085 46.2799ZM47.1935 46.2799C45.6735 46.2799 44.4895 45.8959 43.6415 45.1279C42.7935 44.3439 42.3695 43.1839 42.3695 41.6479V30.3199H46.1135V41.5999C46.1135 42.1439 46.2575 42.5679 46.5455 42.8719C46.8335 43.1599 47.2255 43.3039 47.7215 43.3039C48.3135 43.3039 48.8175 43.1439 49.2335 42.8239L50.2415 45.4639C49.8575 45.7359 49.3935 45.9439 48.8495 46.0879C48.3215 46.2159 47.7695 46.2799 47.1935 46.2799ZM40.3775 36.3439V33.4639H49.3295V36.3439H40.3775ZM58.3528 46.2799C56.8808 46.2799 55.5848 45.9919 54.4648 45.4159C53.3608 44.8399 52.5048 44.0559 51.8968 43.0639C51.2888 42.0559 50.9848 40.9119 50.9848 39.6319C50.9848 38.3359 51.2808 37.1919 51.8728 36.1999C52.4808 35.1919 53.3048 34.4079 54.3448 33.8479C55.3848 33.2719 56.5608 32.9839 57.8728 32.9839C59.1368 32.9839 60.2728 33.2559 61.2808 33.7999C62.3048 34.3279 63.1128 35.0959 63.7048 36.1039C64.2968 37.0959 64.5928 38.2879 64.5928 39.6799C64.5928 39.8239 64.5848 39.9919 64.5688 40.1839C64.5528 40.3599 64.5368 40.5279 64.5208 40.6879H54.0328V38.5039H62.5528L61.1128 39.1519C61.1128 38.4799 60.9768 37.8959 60.7048 37.3999C60.4328 36.9039 60.0568 36.5199 59.5768 36.2479C59.0968 35.9599 58.5368 35.8159 57.8968 35.8159C57.2568 35.8159 56.6888 35.9599 56.1928 36.2479C55.7128 36.5199 55.3368 36.9119 55.0648 37.4239C54.7928 37.9199 54.6568 38.5119 54.6568 39.1999V39.7759C54.6568 40.4799 54.8088 41.1039 55.1128 41.6479C55.4328 42.1759 55.8728 42.5839 56.4328 42.8719C57.0088 43.1439 57.6808 43.2799 58.4488 43.2799C59.1368 43.2799 59.7368 43.1759 60.2488 42.9679C60.7768 42.7599 61.2568 42.4479 61.6888 42.0319L63.6808 44.1919C63.0888 44.8639 62.3448 45.3839 61.4488 45.7519C60.5528 46.1039 59.5208 46.2799 58.3528 46.2799ZM69.803 46.0879L65.147 33.1759H68.675L72.539 44.2879H70.859L74.891 33.1759H78.059L81.971 44.2879H80.291L84.275 33.1759H87.587L82.907 46.0879H79.283L75.851 36.5599H76.955L73.403 46.0879H69.803ZM96.8257 46.0879V43.5679L96.5857 43.0159V38.5039C96.5857 37.7039 96.3377 37.0799 95.8417 36.6319C95.3617 36.1839 94.6177 35.9599 93.6097 35.9599C92.9217 35.9599 92.2417 36.0719 91.5697 36.2959C90.9137 36.5039 90.3537 36.7919 89.8897 37.1599L88.5457 34.5439C89.2497 34.0479 90.0977 33.6639 91.0897 33.3919C92.0817 33.1199 93.0897 32.9839 94.1137 32.9839C96.0817 32.9839 97.6097 33.4479 98.6977 34.3759C99.7857 35.3039 100.33 36.7519 100.33 38.7199V46.0879H96.8257ZM92.8897 46.2799C91.8817 46.2799 91.0177 46.1119 90.2977 45.7759C89.5777 45.4239 89.0257 44.9519 88.6417 44.3599C88.2577 43.7679 88.0657 43.1039 88.0657 42.3679C88.0657 41.5999 88.2497 40.9279 88.6177 40.3519C89.0017 39.7759 89.6017 39.3279 90.4177 39.0079C91.2337 38.6719 92.2977 38.5039 93.6097 38.5039H97.0417V40.6879H94.0177C93.1377 40.6879 92.5297 40.8319 92.1937 41.1199C91.8737 41.4079 91.7137 41.7679 91.7137 42.1999C91.7137 42.6799 91.8977 43.0639 92.2657 43.3519C92.6497 43.6239 93.1697 43.7599 93.8257 43.7599C94.4497 43.7599 95.0097 43.6159 95.5057 43.3279C96.0017 43.0239 96.3617 42.5839 96.5857 42.0079L97.1617 43.7359C96.8897 44.5679 96.3937 45.1999 95.6737 45.6319C94.9537 46.0639 94.0257 46.2799 92.8897 46.2799ZM105.116 50.9359C104.444 50.9359 103.78 50.8319 103.124 50.6239C102.468 50.4159 101.932 50.1279 101.516 49.7599L102.884 47.0959C103.172 47.3519 103.5 47.5519 103.868 47.6959C104.252 47.8399 104.628 47.9119 104.996 47.9119C105.524 47.9119 105.94 47.7839 106.244 47.5279C106.564 47.2879 106.852 46.8799 107.108 46.3039L107.78 44.7199L108.068 44.3119L112.7 33.1759H116.3L110.468 46.8799C110.052 47.9199 109.572 48.7359 109.028 49.3279C108.5 49.9199 107.908 50.3359 107.252 50.5759C106.612 50.8159 105.9 50.9359 105.116 50.9359ZM107.324 46.5919L101.564 33.1759H105.428L109.892 43.9759L107.324 46.5919Z"
    fill="black" />
</svg>
