<svg viewBox="0 0 100 25" fill="none" xmlns="http://www.w3.org/2000/svg"
  class=" h-[26px] w-auto text-cl-1 dark:text-cd-1 cursor-pointer" width="100" height="26">
  <path
    d="M36.3789 7.59033C42.3347 -2.39674 51.3004 -2.61525 58.542 7.69385L65.6221 20.645V4.2749C65.6223 1.03839 69.5732 -0.792452 71.7168 0.681152L90.4854 15.4497L90.4277 0.158691H97.0615L97.0283 19.4536C97.0283 23.6421 92.4387 24.7673 89.9736 23.3843L72.0635 9.37842V23.9683H60.0098C57.3135 19.0224 55.5322 15.7608 52.8359 10.8149C49.8448 5.44994 45.249 5.24772 42.1104 10.1978C39.373 15.1541 37.2451 19.0451 34.5078 23.9995H27.2852C30.8127 17.6457 32.8534 13.9462 36.3789 7.59033ZM19.7178 0.000488281C26.2448 0.000488281 31.585 5.38435 31.585 11.9653C31.5849 18.5462 26.2447 23.9302 19.7178 23.9302H0V16.9194H19.7178C21.0629 16.9194 22.2899 16.3596 23.1846 15.4575C24.079 14.5555 24.6337 13.3194 24.6338 11.9634C24.6338 10.6072 24.0792 9.37035 23.1846 8.46826C22.2899 7.56616 21.0629 7.00635 19.7178 7.00635H0V0.000488281H19.7178Z"
    fill="#166cf4"></path>
</svg>
