<svg width="80" height="80" viewBox="0 0 80 80" fill="none" xmlns="http://www.w3.org/2000/svg">
  <g clip-path="url(#clip0_2719_3523)">
    <path
      d="M39.6094 37.9219C39.4844 31.7031 34.4063 26.6875 28.1406 26.6875C21.875 26.6875 16.7969 31.6875 16.6719 37.9219V40.9062C16.6719 42.6875 18.1094 44.125 19.8906 44.125H36.3594C38.1406 44.125 39.5781 42.6875 39.5781 40.9062V37.9219H39.6094ZM20.5781 41.1406C20.0781 41.1406 19.6875 40.7344 19.6875 40.25V37.9219C19.8125 33.3437 23.5469 29.6875 28.1562 29.6875C32.7656 29.6875 36.5 33.3594 36.625 37.9219V40.25C36.625 40.75 36.2188 41.1406 35.7344 41.1406H20.5781Z"
      fill="url(#paint0_linear_2719_3523)" />
    <path
      d="M63.3125 37.9219C63.1875 31.7031 58.1094 26.6875 51.8437 26.6875C45.5781 26.6875 40.5 31.6875 40.375 37.9219V40.9062C40.375 42.6875 41.8125 44.125 43.5938 44.125H60.0625C61.8438 44.125 63.2812 42.6875 63.2812 40.9062V37.9219H63.3125ZM44.2656 41.1406C43.7656 41.1406 43.375 40.7344 43.375 40.25V37.9219C43.5 33.3437 47.2344 29.6875 51.8437 29.6875C56.4375 29.6875 60.1875 33.3594 60.3125 37.9219V40.25C60.3125 40.75 59.9062 41.1406 59.4219 41.1406H44.2656Z"
      fill="url(#paint1_linear_2719_3523)" />
    <path
      d="M39.9375 15.625C42.3438 15.625 43.8594 13.5937 43.8594 11.8281C43.8594 10.625 43 10.2031 43 9.29688C43 8.5625 43.4531 8.6875 43.4531 7.95313C43.4531 7.46875 42.9062 6.84375 42.3437 6.375C42.4531 6.6875 42.4531 6.89063 42.4531 7.40625C42.4531 8.17188 41.6719 8.46875 41.6719 9.1875C41.6719 10.0625 42.2031 10.0156 42.2031 10.7812C42.2031 11.1875 41.9375 11.7656 41.4687 11.7656C41.0156 11.7656 40.6875 11.2031 40.6875 10.6875C40.6875 9.8125 41.4531 9.29688 41.4531 8.5C41.4531 7.26563 40.1562 6.15625 40.1562 4.84375C40.1562 4.51563 40.1562 4.125 40.4687 3.73438C39.7344 4.0625 39.2969 4.34375 39.2969 4.84375C39.2969 5.39062 39.8906 5.95312 39.8906 6.53125C39.8906 7.35938 38.9219 8.09375 38.9219 8.95312C38.9219 9.79688 39.4688 9.98438 39.4688 10.7031C39.4688 11.3125 39.0469 11.7812 38.5937 11.7812C38.1406 11.7812 37.75 11.2969 37.75 10.7656C37.75 9.98438 38.6875 9.57813 38.6875 8.9375C38.6875 8.25 38.0469 7.9375 38.0469 7.53125C38.0469 7.25 38.3125 6.95313 38.5625 6.625C37.7344 6.95313 37.1875 7.54688 37.1875 7.9375C37.1875 8.35938 37.5469 8.46875 37.5469 9C37.5469 9.85937 36.0938 10.7344 36.0938 11.9062C36.1406 13.1719 37.1563 15.625 39.9375 15.625Z"
      fill="#0953A7" />
    <path
      d="M54 31.4687C53.8438 23.875 47.6406 17.75 40 17.75C32.3594 17.75 26.1563 23.8594 26 31.4687V35.125C26 37.2969 27.7656 39.0625 29.9375 39.0625H36.625V37.9219C36.5938 37.0469 36.4531 36.2031 36.1719 35.4219H30.75C30.1406 35.4219 29.6563 34.9375 29.6563 34.3281V31.4844C29.8125 25.9062 34.375 21.4219 40 21.4219C45.625 21.4219 50.1875 25.9062 50.3438 31.4844V34.3281C50.3438 34.9375 49.8594 35.4219 49.25 35.4219H43.8281C43.5625 36.2188 43.4063 37.0469 43.375 37.9219V39.0625H50.0625C52.2344 39.0625 54 37.2969 54 35.125V31.4687Z"
      fill="url(#paint2_linear_2719_3523)" />
    <path
      d="M18.5625 72.0787L0 72.813L18.5625 73.5318C18.9688 73.5474 19.3125 73.2193 19.3125 72.813C19.3125 72.3912 18.9688 72.063 18.5625 72.0787Z"
      fill="url(#paint3_linear_2719_3523)" />
    <path
      d="M61.4375 72.0787C61.0313 72.063 60.6875 72.3912 60.6875 72.7974C60.6875 73.2037 61.0313 73.5318 61.4375 73.5162L80 72.813L61.4375 72.0787Z"
      fill="url(#paint4_linear_2719_3523)" />
    <path
      d="M11.0156 59.5781H3.0625C3.35938 60.8906 4.46875 61.6875 6.07812 61.6875C7.1875 61.6875 8 61.3594 8.71875 60.6719L10.3438 62.4375C9.35937 63.5469 7.90625 64.1406 6 64.1406C2.35938 64.1406 0 61.8437 0 58.7187C0 55.5781 2.40625 53.3125 5.60938 53.3125C8.70312 53.3125 11.0781 55.3906 11.0781 58.7656C11.0781 59 11.0469 59.3281 11.0156 59.5781ZM3.03125 57.8125H8.20312C7.98438 56.4844 6.98438 55.625 5.625 55.625C4.23438 55.6094 3.25 56.4531 3.03125 57.8125Z"
      fill="url(#paint5_linear_2719_3523)" />
    <path
      d="M24.5625 58.7187C24.5625 62.0156 22.2812 64.125 19.3281 64.125C17.9219 64.125 16.7812 63.6719 16.0312 62.75V63.9687H13.1094V49.4688H16.1562V54.5625C16.9375 53.7031 18.0156 53.2969 19.3281 53.2969C22.2812 53.3125 24.5625 55.4219 24.5625 58.7187ZM21.4844 58.7187C21.4844 56.9062 20.3281 55.8125 18.8125 55.8125C17.2969 55.8125 16.1406 56.9062 16.1406 58.7187C16.1406 60.5312 17.2969 61.625 18.8125 61.625C20.3281 61.625 21.4844 60.5469 21.4844 58.7187Z"
      fill="url(#paint6_linear_2719_3523)" />
    <path
      d="M35.7344 57.9845V63.9845H32.875V62.672C32.3125 63.6251 31.2187 64.1407 29.6719 64.1407C27.2031 64.1407 25.75 62.7657 25.75 60.9532C25.75 59.0939 27.0625 57.8126 30.2656 57.8126H32.6875C32.6875 56.5001 31.9062 55.7345 30.2656 55.7345C29.1562 55.7345 28 56.1095 27.2344 56.7189L26.1406 54.5939C27.2969 53.7657 29 53.3282 30.6719 53.3282C33.875 53.3126 35.7344 54.797 35.7344 57.9845ZM32.6875 60.6564V59.5782H30.5938C29.1719 59.5782 28.7188 60.1095 28.7188 60.8126C28.7188 61.5783 29.3594 62.0782 30.4375 62.0782C31.4531 62.0782 32.3281 61.6095 32.6875 60.6564Z"
      fill="url(#paint7_linear_2719_3523)" />
    <path
      d="M45.0156 53.3125V56.125C44.7656 56.1094 44.5625 56.0781 44.3281 56.0781C42.6406 56.0781 41.5312 57 41.5312 59.0156V63.9844H38.4844V53.4688H41.3906V54.8594C42.1406 53.8437 43.3906 53.3125 45.0156 53.3125Z"
      fill="url(#paint8_linear_2719_3523)" />
    <path
      d="M46.4531 50.2969C46.4531 49.3437 47.2188 48.5938 48.3438 48.5938C49.4844 48.5938 50.2344 49.2969 50.2344 50.2344C50.2344 51.25 49.4688 52 48.3438 52C47.2188 52 46.4531 51.25 46.4531 50.2969ZM46.8281 53.4688H49.875V63.9844H46.8281V53.4688Z"
      fill="url(#paint9_linear_2719_3523)" />
    <path
      d="M70.4844 57.9687V63.9844H67.4375V58.4375C67.4375 56.7344 66.6719 55.9531 65.4375 55.9531C64.0625 55.9531 63.1094 56.8281 63.1094 58.7031V63.9844H60.0625V58.4375C60.0625 56.7344 59.3438 55.9531 58.0625 55.9531C56.7188 55.9531 55.75 56.8281 55.75 58.7031V63.9844H52.7031V53.4688H55.625V54.6875C56.4063 53.7812 57.5781 53.3125 58.9219 53.3125C60.3906 53.3125 61.6406 53.875 62.375 55.0312C63.2188 53.9531 64.5781 53.3125 66.1719 53.3125C68.6875 53.3125 70.4844 54.75 70.4844 57.9687Z"
      fill="url(#paint10_linear_2719_3523)" />
    <path
      d="M80 63.4688C79.375 63.9219 78.4531 64.1406 77.5156 64.1406C75.0312 64.1406 73.5937 62.875 73.5937 60.375V56.0625H71.9688V53.7187H73.5937V51.1562H76.6406V53.7187H79.2656V56.0625H76.6406V60.3438C76.6406 61.25 77.125 61.7344 77.9531 61.7344C78.4062 61.7344 78.8594 61.5938 79.1875 61.3438L80 63.4688Z"
      fill="url(#paint11_linear_2719_3523)" />
    <path
      d="M27.3438 76.2187H25.9688L26.3281 73.2656H23.6406L23.2813 76.2187H21.9062L22.75 69.3906H24.125L23.7656 72.3125H26.4531L26.8125 69.3906H28.1875L27.3438 76.2187Z"
      fill="url(#paint12_linear_2719_3523)" />
    <path
      d="M35.2656 72.3594C35.2656 72.7344 35.2187 73.0937 35.1406 73.4375C35.0625 73.7812 34.9375 74.0937 34.7813 74.3906C34.625 74.6875 34.4375 74.9531 34.2187 75.1875C34 75.4219 33.75 75.625 33.4687 75.7969C33.1875 75.9687 32.8906 76.0937 32.5781 76.1875C32.2656 76.2812 31.9219 76.3281 31.5625 76.3281C31.125 76.3281 30.7187 76.25 30.375 76.0937C30.0312 75.9375 29.7187 75.7187 29.4844 75.4531C29.2344 75.1875 29.0469 74.8594 28.9219 74.4844C28.7969 74.1094 28.7188 73.7187 28.7188 73.2812C28.7188 72.9062 28.7656 72.5469 28.8438 72.2188C28.9219 71.875 29.0469 71.5625 29.2031 71.2656C29.3594 70.9687 29.5469 70.7031 29.7656 70.4687C29.9844 70.2344 30.2344 70.0312 30.5156 69.8594C30.7969 69.6875 31.0937 69.5625 31.4062 69.4687C31.7344 69.375 32.0625 69.3281 32.4219 69.3281C32.8594 69.3281 33.2656 69.4063 33.6094 69.5625C33.9531 69.7188 34.2656 69.9375 34.5 70.2031C34.75 70.4687 34.9375 70.7969 35.0625 71.1719C35.2031 71.5312 35.2656 71.9375 35.2656 72.3594ZM31.7187 75.1875C31.9844 75.1875 32.2344 75.1406 32.4531 75.0469C32.6875 74.9531 32.875 74.8281 33.0625 74.6562C33.2344 74.4844 33.3906 74.2812 33.5156 74.0469C33.6406 73.8125 33.7344 73.5313 33.7969 73.2344H30.1094C30.1094 73.5313 30.1562 73.7969 30.2187 74.0312C30.2969 74.2656 30.3906 74.4688 30.5312 74.6406C30.6719 74.8125 30.8438 74.9375 31.0313 75.0313C31.2344 75.1406 31.4687 75.1875 31.7187 75.1875ZM32.2656 70.4219C32 70.4219 31.7656 70.4687 31.5469 70.5469C31.3281 70.625 31.125 70.75 30.9531 70.9219C30.7813 71.0781 30.625 71.2812 30.5156 71.5C30.3906 71.7344 30.2969 71.9844 30.2344 72.2656H33.8906C33.875 71.9844 33.8438 71.7344 33.7656 71.5156C33.6875 71.2813 33.5781 71.0937 33.4375 70.9375C33.2969 70.7812 33.1406 70.6562 32.9375 70.5625C32.7188 70.4687 32.5 70.4219 32.2656 70.4219Z"
      fill="url(#paint13_linear_2719_3523)" />
    <path
      d="M41.1719 76.2187H40.125C40 76.2187 39.9063 76.1875 39.8438 76.1406C39.7813 76.0781 39.7344 76.0156 39.7031 75.9219L39.4531 74.5937H37L36.4375 75.9219C36.3906 76 36.3281 76.0781 36.25 76.1406C36.1719 76.2031 36.0625 76.2344 35.9531 76.2344H34.875L38.1562 69.4062H39.5469L41.1719 76.2187ZM37.4219 73.6406H39.2812L38.875 71.4844C38.8594 71.375 38.8281 71.2344 38.7969 71.0937C38.7656 70.9375 38.7344 70.7812 38.7188 70.5937C38.6563 70.7656 38.5938 70.9375 38.5156 71.0937C38.4531 71.25 38.3906 71.375 38.3437 71.5L37.4219 73.6406Z"
      fill="url(#paint14_linear_2719_3523)" />
    <path
      d="M46.4687 69.3906L46.3281 70.4844H44.5156L43.8125 76.2031H42.4531L43.1563 70.4844H41.3438L41.4687 69.3906H46.4687Z"
      fill="url(#paint15_linear_2719_3523)" />
    <path
      d="M47.6094 75.1875C47.6719 75.1719 47.75 75.1562 47.7969 75.1094C47.8594 75.0781 47.9219 75.0156 47.9844 74.9531C48.0469 74.8906 48.1094 74.7969 48.1719 74.6875L48.4531 74.1875L46.5156 69.4062H47.7656C47.8906 69.4062 47.9687 69.4375 48.0312 69.4844C48.0937 69.5312 48.1406 69.6094 48.1875 69.7031L48.9375 72.0781C48.9844 72.2344 49.0312 72.3906 49.0625 72.5469C49.0937 72.7031 49.125 72.8594 49.1562 73.0156C49.2187 72.8594 49.2812 72.7031 49.3594 72.5469C49.4375 72.3906 49.5156 72.2344 49.5937 72.0781L50.7969 69.7031C50.8437 69.625 50.9062 69.5625 50.9844 69.5C51.0625 69.4375 51.1719 69.4062 51.2812 69.4062H52.4375L49.1875 75.2656C49.0625 75.4688 48.9531 75.6406 48.8281 75.7812C48.7031 75.9219 48.5781 76.0156 48.4531 76.0937C48.3281 76.1719 48.2031 76.2187 48.0625 76.25C47.9219 76.2812 47.7969 76.2969 47.6719 76.2969C47.4062 76.2969 47.2187 76.2656 47.0937 76.2187C46.9687 76.1719 46.9219 76.0781 46.9375 75.9531L47.0312 75.2187H47.3906C47.4687 75.2031 47.5469 75.2031 47.6094 75.1875Z"
      fill="url(#paint16_linear_2719_3523)" />
    <path
      d="M54.875 75.1562C55.0625 75.1562 55.2188 75.1406 55.3438 75.1094C55.4844 75.0781 55.5937 75.0469 55.6875 75C55.7812 74.9531 55.875 74.9063 55.9375 74.8594C56 74.8125 56.0625 74.7656 56.125 74.7188C56.1719 74.6719 56.2344 74.6406 56.2656 74.6094C56.3125 74.5781 56.3594 74.5625 56.4062 74.5625C56.4531 74.5625 56.4844 74.5625 56.5156 74.5781C56.5469 74.5937 56.5625 74.6094 56.5781 74.625L57.0469 75.2031C56.75 75.5469 56.4062 75.8125 56 76C55.5937 76.1875 55.1406 76.2656 54.6094 76.2656C54.1875 76.2656 53.8125 76.1875 53.4844 76.0469C53.1562 75.8906 52.875 75.6875 52.6562 75.4219C52.4375 75.1563 52.2656 74.8438 52.1406 74.4844C52.0156 74.125 51.9688 73.7344 51.9688 73.2969C51.9688 72.9063 52.0156 72.5312 52.0937 72.1875C52.1719 71.8438 52.2969 71.5156 52.4531 71.2187C52.6094 70.9219 52.7969 70.6563 53.0156 70.4219C53.2344 70.1875 53.4844 69.9844 53.75 69.8125C54.0156 69.6406 54.3125 69.5156 54.625 69.4375C54.9375 69.3437 55.2656 69.2969 55.5937 69.2969C55.8437 69.2969 56.0781 69.3125 56.2813 69.375C56.4844 69.4219 56.6719 69.4844 56.8437 69.5625C57.0156 69.6406 57.1563 69.75 57.2969 69.8594C57.4375 69.9844 57.5469 70.1094 57.6562 70.25L57.1875 70.8125C57.1562 70.8594 57.1094 70.8906 57.0625 70.9219C57.0156 70.9531 56.9531 70.9688 56.8906 70.9688C56.8125 70.9688 56.75 70.9375 56.6875 70.8906C56.625 70.8438 56.5469 70.7813 56.4531 70.7188C56.3594 70.6563 56.25 70.5938 56.0937 70.5469C55.9531 70.5 55.7656 70.4688 55.5312 70.4688C55.2187 70.4688 54.9375 70.5313 54.6719 70.6563C54.4062 70.7813 54.1719 70.9688 53.9844 71.2031C53.7812 71.4375 53.6406 71.7344 53.5156 72.0625C53.4062 72.4063 53.3437 72.7812 53.3437 73.2031C53.3437 73.5156 53.375 73.7812 53.4531 74.0312C53.5312 74.2656 53.6406 74.4688 53.7656 74.6406C53.8906 74.8125 54.0625 74.9375 54.2344 75.0313C54.4531 75.1094 54.6563 75.1562 54.875 75.1562Z"
      fill="url(#paint17_linear_2719_3523)" />
  </g>
  <defs>
    <linearGradient id="paint0_linear_2719_3523" x1="28.1525" y1="44.1356" x2="28.1525" y2="26.6892"
      gradientUnits="userSpaceOnUse">
      <stop stop-color="#FF5B00" />
      <stop offset="1" stop-color="#FF2525" />
    </linearGradient>
    <linearGradient id="paint1_linear_2719_3523" x1="51.8475" y1="44.1356" x2="51.8475" y2="26.6892"
      gradientUnits="userSpaceOnUse">
      <stop stop-color="#FF5B00" />
      <stop offset="1" stop-color="#FF2525" />
    </linearGradient>
    <linearGradient id="paint2_linear_2719_3523" x1="40.0001" y1="39.064" x2="40.0001" y2="17.7629"
      gradientUnits="userSpaceOnUse">
      <stop stop-color="#087AEA" />
      <stop offset="1" stop-color="#0953A7" />
    </linearGradient>
    <linearGradient id="paint3_linear_2719_3523" x1="9.65759" y1="73.5305" x2="9.65759" y2="72.0834"
      gradientUnits="userSpaceOnUse">
      <stop stop-color="#FF5B00" />
      <stop offset="1" stop-color="#FF2525" />
    </linearGradient>
    <linearGradient id="paint4_linear_2719_3523" x1="70.3424" y1="73.5305" x2="70.3424" y2="72.0834"
      gradientUnits="userSpaceOnUse">
      <stop stop-color="#FF5B00" />
      <stop offset="1" stop-color="#FF2525" />
    </linearGradient>
    <linearGradient id="paint5_linear_2719_3523" x1="5.54073" y1="64.1369" x2="5.54073" y2="53.3099"
      gradientUnits="userSpaceOnUse">
      <stop stop-color="#087AEA" />
      <stop offset="1" stop-color="#0953A7" />
    </linearGradient>
    <linearGradient id="paint6_linear_2719_3523" x1="18.8416" y1="64.1369" x2="18.8416" y2="49.4794"
      gradientUnits="userSpaceOnUse">
      <stop stop-color="#087AEA" />
      <stop offset="1" stop-color="#0953A7" />
    </linearGradient>
    <linearGradient id="paint7_linear_2719_3523" x1="30.7353" y1="64.1371" x2="30.7353" y2="53.31"
      gradientUnits="userSpaceOnUse">
      <stop stop-color="#087AEA" />
      <stop offset="1" stop-color="#0953A7" />
    </linearGradient>
    <linearGradient id="paint8_linear_2719_3523" x1="41.7496" y1="63.9807" x2="41.7496" y2="53.3099"
      gradientUnits="userSpaceOnUse">
      <stop stop-color="#087AEA" />
      <stop offset="1" stop-color="#0953A7" />
    </linearGradient>
    <linearGradient id="paint9_linear_2719_3523" x1="48.3561" y1="63.9807" x2="48.3561" y2="48.5999"
      gradientUnits="userSpaceOnUse">
      <stop stop-color="#087AEA" />
      <stop offset="1" stop-color="#0953A7" />
    </linearGradient>
    <linearGradient id="paint10_linear_2719_3523" x1="61.5976" y1="63.9807" x2="61.5976"
      y2="53.3099" gradientUnits="userSpaceOnUse">
      <stop stop-color="#087AEA" />
      <stop offset="1" stop-color="#0953A7" />
    </linearGradient>
    <linearGradient id="paint11_linear_2719_3523" x1="75.9838" y1="64.1369" x2="75.9838"
      y2="51.1405" gradientUnits="userSpaceOnUse">
      <stop stop-color="#087AEA" />
      <stop offset="1" stop-color="#0953A7" />
    </linearGradient>
    <linearGradient id="paint12_linear_2719_3523" x1="25.0454" y1="76.2203" x2="25.0454"
      y2="69.3925" gradientUnits="userSpaceOnUse">
      <stop stop-color="#FF5B00" />
      <stop offset="1" stop-color="#FF2525" />
    </linearGradient>
    <linearGradient id="paint13_linear_2719_3523" x1="31.995" y1="76.2954" x2="31.995" y2="69.3175"
      gradientUnits="userSpaceOnUse">
      <stop stop-color="#FF5B00" />
      <stop offset="1" stop-color="#FF2525" />
    </linearGradient>
    <linearGradient id="paint14_linear_2719_3523" x1="38.0347" y1="76.2203" x2="38.0347"
      y2="69.3925" gradientUnits="userSpaceOnUse">
      <stop stop-color="#FF5B00" />
      <stop offset="1" stop-color="#FF2525" />
    </linearGradient>
    <linearGradient id="paint15_linear_2719_3523" x1="43.9002" y1="76.2203" x2="43.9002"
      y2="69.3925" gradientUnits="userSpaceOnUse">
      <stop stop-color="#FF5B00" />
      <stop offset="1" stop-color="#FF2525" />
    </linearGradient>
    <linearGradient id="paint16_linear_2719_3523" x1="49.4811" y1="76.2908" x2="49.4811"
      y2="69.3971" gradientUnits="userSpaceOnUse">
      <stop stop-color="#FF5B00" />
      <stop offset="1" stop-color="#FF2525" />
    </linearGradient>
    <linearGradient id="paint17_linear_2719_3523" x1="54.8311" y1="76.2954" x2="54.8311"
      y2="69.3175" gradientUnits="userSpaceOnUse">
      <stop stop-color="#FF5B00" />
      <stop offset="1" stop-color="#FF2525" />
    </linearGradient>
    <clipPath id="clip0_2719_3523">
      <rect width="80" height="80" fill="white" />
    </clipPath>
  </defs>
</svg>
