<?xml version="1.0" encoding="UTF-8"?>
<svg version="1.1" xmlns="http://www.w3.org/2000/svg" width="301" height="301">
  <path
    d="M0 0 C7.47927207 6.17519386 13.23856302 13.00111912 17 22 C17 22.66 17 23.32 17 24 C18.2375 24.04125 19.475 24.0825 20.75 24.125 C30.41849237 25.24995037 38.50909328 30.48087823 45.02734375 37.5078125 C52.88083077 47.42964362 55.35630041 57.29198351 55.3125 69.6875 C55.32861328 70.61111328 55.34472656 71.53472656 55.36132812 72.48632812 C55.36758611 81.17867597 55.36758611 81.17867597 52 85 C47.62196286 88.41190725 44.79780889 89.50091543 39.26367188 89.50170898 C38.61894424 89.50711197 37.97421661 89.51251495 37.30995178 89.51808167 C35.19573922 89.53050738 33.08290514 89.51412161 30.96875 89.49609375 C29.48954192 89.49624888 28.01033344 89.49774025 26.53112793 89.50050354 C23.4377231 89.50188476 20.34478348 89.48937671 17.25146484 89.46655273 C13.29709182 89.43816842 9.34349115 89.44090888 5.38906097 89.45364285 C2.33658311 89.46061588 -0.71571794 89.45279233 -3.76817322 89.44038582 C-5.2257367 89.43588706 -6.68331927 89.43552069 -8.1408844 89.43945122 C-10.18220573 89.44237959 -12.22248293 89.42578159 -14.26367188 89.40405273 C-15.42249878 89.39864975 -16.58132568 89.39324677 -17.77526855 89.38768005 C-22.3045169 88.84316983 -25.7302752 87.40107564 -28.8125 84 C-33.36052262 76.34017243 -31.74460215 62.93520501 -29.875 54.5 C-26.20287522 42.09370928 -18.43541496 33.50319241 -7.37890625 27.15625 C-4.60113032 25.80613231 -2.08611481 25.1624271 1 25 C-5.6381002 15.41973818 -13.18131001 8.28609697 -25 6 C-37.56485559 5.02362269 -47.25827141 6.99485438 -57.05078125 15.1171875 C-59.86403034 17.83459443 -61.91107317 20.69814791 -64 24 C-63.0821875 24.42410156 -62.164375 24.84820312 -61.21875 25.28515625 C-48.23977024 31.42257184 -39.6392006 38.2068026 -34.35546875 52.0546875 C-32.5271299 57.75059806 -32.55921836 63.31503386 -32.625 69.25 C-32.61339844 70.3121875 -32.60179687 71.374375 -32.58984375 72.46875 C-32.59371094 73.49484375 -32.59757812 74.5209375 -32.6015625 75.578125 C-32.60494629 76.50012695 -32.60833008 77.42212891 -32.61181641 78.37207031 C-33.09526719 81.6449409 -33.95023374 83.39789504 -36 86 C-40.37729712 88.63315759 -43.64194898 89.38031259 -48.72045898 89.40405273 C-50.03880234 89.41673691 -51.35714569 89.42942108 -52.71543884 89.44248962 C-54.14232542 89.44043793 -55.56921091 89.43744969 -56.99609375 89.43359375 C-58.47290791 89.43815978 -59.94971995 89.4434666 -61.42652893 89.44947815 C-64.51564182 89.45839249 -67.60449596 89.45600556 -70.69360352 89.44604492 C-74.63900925 89.43455858 -78.58351949 89.45476905 -82.52880764 89.48396206 C-85.57702748 89.50236859 -88.62503447 89.50202281 -91.67329597 89.49632454 C-93.12726154 89.49617186 -94.58124202 89.50217193 -96.03515434 89.51461601 C-110.42084227 89.6204068 -110.42084227 89.6204068 -116 85 C-119.26801973 80.56660061 -118.36860171 74.70649318 -118.375 69.4375 C-118.39949219 68.40302734 -118.42398438 67.36855469 -118.44921875 66.30273438 C-118.4961568 53.80938909 -114.14931338 44.36272217 -106 35 C-100.00825666 29.09563625 -91.10532708 24.20137021 -82.6328125 23.8671875 C-81.76398438 23.91101563 -80.89515625 23.95484375 -80 24 C-79.89558594 23.28328125 -79.79117188 22.5665625 -79.68359375 21.828125 C-77.12987505 11.2630259 -68.04913036 2.78692133 -59.1484375 -2.78515625 C-39.88544365 -13.12821495 -18.1625788 -12.5038859 0 0 Z M-69 36 C-69.08069658 38.95887459 -69.14034665 41.9155659 -69.1875 44.875 C-69.21263672 45.71675781 -69.23777344 46.55851562 -69.26367188 47.42578125 C-69.27333984 48.23144531 -69.28300781 49.03710938 -69.29296875 49.8671875 C-69.3086792 50.61081543 -69.32438965 51.35444336 -69.34057617 52.12060547 C-69.22818604 52.74080566 -69.1157959 53.36100586 -69 54 C-65.84685215 56.10209857 -65.13896919 56.2434761 -61.55078125 56.1953125 C-60.70322266 56.18886719 -59.85566406 56.18242187 -58.98242188 56.17578125 C-58.10134766 56.15902344 -57.22027344 56.14226562 -56.3125 56.125 C-55.41982422 56.11597656 -54.52714844 56.10695313 -53.60742188 56.09765625 C-51.40467686 56.07409748 -49.20247412 56.04120329 -47 56 C-49.11361439 48.72667988 -53.12422641 44.27665409 -59 39.625 C-62.26915121 37.85420976 -65.42200693 36.97044623 -69 36 Z M-8.875 43.5 C-9.57625 44.325 -10.2775 45.15 -11 46 C-11.721875 46.825 -12.44375 47.65 -13.1875 48.5 C-14.96889612 50.9570981 -15.93284406 53.17932351 -17 56 C-13.72924117 56.0580476 -10.45861476 56.09361165 -7.1875 56.125 C-5.7943457 56.15013672 -5.7943457 56.15013672 -4.37304688 56.17578125 C-3.48037109 56.18222656 -2.58769531 56.18867188 -1.66796875 56.1953125 C-0.84578857 56.20578613 -0.0236084 56.21625977 0.82348633 56.22705078 C3.29421592 56.13996135 3.29421592 56.13996135 6 54 C6.41428346 52.06923522 6.41428346 52.06923522 6.29296875 49.8671875 C6.28330078 49.06152344 6.27363281 48.25585938 6.26367188 47.42578125 C6.23853516 46.58402344 6.21339844 45.74226563 6.1875 44.875 C6.17396484 44.02550781 6.16042969 43.17601562 6.14648438 42.30078125 C6.11108219 40.20025163 6.05727401 38.10004707 6 36 C0.700854 36 -5.03033667 40.1568145 -8.875 43.5 Z M20 37 C20.01571045 37.55872803 20.0314209 38.11745605 20.04760742 38.69311523 C20.11074924 41.2744699 20.14923704 43.8556613 20.1875 46.4375 C20.21263672 47.31599609 20.23777344 48.19449219 20.26367188 49.09960938 C20.32980699 55.07381494 19.78103031 60.61071635 17 66 C14.4375 67.5 14.4375 67.5 12 68 C11.34 68.33 10.68 68.66 10 69 C7.82325217 69.15469367 5.6421652 69.25002106 3.4609375 69.31640625 C2.15898437 69.35830078 0.85703125 69.40019531 -0.484375 69.44335938 C-1.86458045 69.48317299 -3.24478883 69.52288522 -4.625 69.5625 C-6.01303415 69.60569407 -7.40105528 69.64930865 -8.7890625 69.69335938 C-12.19260256 69.79972 -15.59621778 69.90174714 -19 70 C-19.16687448 72.41645782 -19.16687448 72.41645782 -19 75 C-16.35984189 77.64015811 -15.16377491 77.25304253 -11.48046875 77.25878906 C-10.32587158 77.26509338 -9.17127441 77.27139771 -7.98168945 77.27789307 C-6.10356567 77.27182037 -6.10356567 77.27182037 -4.1875 77.265625 C-2.26780396 77.26849518 -2.26780396 77.26849518 -0.30932617 77.27142334 C2.40092793 77.27437382 5.11105027 77.27007955 7.82128906 77.26074219 C11.29849231 77.24934753 14.77538682 77.25590743 18.25257874 77.26788712 C21.56424404 77.27684425 24.87582591 77.27057635 28.1875 77.265625 C29.43958252 77.26967346 30.69166504 77.27372192 31.98168945 77.27789307 C33.71358521 77.26843658 33.71358521 77.26843658 35.48046875 77.25878906 C36.50035889 77.25719788 37.52024902 77.25560669 38.57104492 77.25396729 C41.18103308 77.23879359 41.18103308 77.23879359 43 75 C44.24829239 64.20081933 42.33348498 55.7215825 36.375 46.75 C32.81875714 42.27513686 28.17270654 39.35042087 23 37 C22.01 37 21.02 37 20 37 Z M-96.1640625 42.91796875 C-104.30439615 51.53086859 -106.4417916 59.25952448 -106.20507812 70.81860352 C-106.15030561 72.54621993 -106.07712589 74.2732371 -106 76 C-103.39503827 77.30248086 -101.48923447 77.12707873 -98.57226562 77.12939453 C-96.870401 77.13412277 -96.870401 77.13412277 -95.13415527 77.13894653 C-93.90394653 77.1369223 -92.67373779 77.13489807 -91.40625 77.1328125 C-89.51984802 77.13424759 -89.51984802 77.13424759 -87.59533691 77.13571167 C-84.93217553 77.13639322 -82.26910542 77.13503992 -79.60595703 77.13037109 C-76.18936749 77.1246739 -72.7728565 77.12795387 -69.35626984 77.13394356 C-66.10209372 77.13842226 -62.84792714 77.13528813 -59.59375 77.1328125 C-57.74843689 77.13584885 -57.74843689 77.13584885 -55.86584473 77.13894653 C-54.73126831 77.13579437 -53.59669189 77.13264221 -52.42773438 77.12939453 C-50.92454651 77.12820114 -50.92454651 77.12820114 -49.39099121 77.12698364 C-46.98477672 77.15870034 -46.98477672 77.15870034 -45 76 C-45 74.02 -45 72.04 -45 70 C-46.22517334 69.97812622 -46.22517334 69.97812622 -47.47509766 69.95581055 C-51.1921976 69.88113077 -54.90841919 69.78453388 -58.625 69.6875 C-59.91019531 69.66494141 -61.19539063 69.64238281 -62.51953125 69.61914062 C-63.76347656 69.58369141 -65.00742188 69.54824219 -66.2890625 69.51171875 C-67.43068848 69.48553467 -68.57231445 69.45935059 -69.74853516 69.43237305 C-74.94527072 68.74132194 -78.0980625 67.15163496 -81.328125 63.02734375 C-83.81423709 58.13618844 -83.67297928 52.94344749 -83.75 47.5625 C-83.77964844 46.54478516 -83.80929688 45.52707031 -83.83984375 44.47851562 C-83.91006673 41.98559972 -83.96299645 39.49359301 -84 37 C-88.67782789 37 -92.78473335 39.92293155 -96.1640625 42.91796875 Z "
    fill="#000000" transform="translate(182,78)" />
  <path
    d="M0 0 C3.96 0 7.92 0 12 0 C12.33 0.66 12.66 1.32 13 2 C13.53753906 1.67644531 14.07507813 1.35289062 14.62890625 1.01953125 C17.53264949 -0.22903051 19.78278341 -0.30056538 22.9375 -0.3125 C23.95714844 -0.32925781 24.97679687 -0.34601563 26.02734375 -0.36328125 C29.39228221 0.04793988 31.15794456 1.22547115 34 3 C37.91425071 3.34299717 37.91425071 3.34299717 40.5 1.5 C46.115727 -0.90674014 52.34881871 -1.13378788 58.2265625 0.69140625 C62.58899828 2.90975125 64.21472442 5.58824346 66 10 C66.34057617 13.43505859 66.34057617 13.43505859 66.29296875 17.1484375 C66.28872391 17.80582916 66.28447906 18.46322083 66.28010559 19.14053345 C66.26344977 21.21912391 66.2258262 23.29670774 66.1875 25.375 C66.17243605 26.79295464 66.15875065 28.21092464 66.14648438 29.62890625 C66.11359038 33.0862589 66.06190165 36.54303103 66 40 C62.04 40 58.08 40 54 40 C53.95101562 38.23011719 53.90203125 36.46023437 53.8515625 34.63671875 C53.77653668 32.32029641 53.70098877 30.00389095 53.625 27.6875 C53.5940625 26.52025391 53.563125 25.35300781 53.53125 24.15039062 C53.47324219 22.47299805 53.47324219 22.47299805 53.4140625 20.76171875 C53.3826416 19.73006592 53.3512207 18.69841309 53.31884766 17.63549805 C53.17325371 14.77156764 53.17325371 14.77156764 51 12 C48.42178504 10.84424846 47.14039818 10.96657186 44.375 11.625 C41.32117579 13.39300349 41.05995512 14.68358505 40 18 C39.6410326 20.60212075 39.6410326 20.60212075 39.5859375 23.30078125 C39.54726562 24.27724609 39.50859375 25.25371094 39.46875 26.25976562 C39.42234375 27.77086914 39.42234375 27.77086914 39.375 29.3125 C39.33632812 30.33923828 39.29765625 31.36597656 39.2578125 32.42382812 C39.16385511 34.94893309 39.08085192 37.47444144 39 40 C35.04 40 31.08 40 27 40 C26.95101562 38.31390625 26.90203125 36.6278125 26.8515625 34.890625 C26.77652663 32.67706684 26.70097915 30.46352598 26.625 28.25 C26.5940625 27.13882813 26.563125 26.02765625 26.53125 24.8828125 C26.49257812 23.81289062 26.45390625 22.74296875 26.4140625 21.640625 C26.36693115 20.16384277 26.36693115 20.16384277 26.31884766 18.65722656 C25.99440064 15.95333582 25.48774631 14.26895924 24 12 C21.68805807 10.90383904 21.68805807 10.90383904 19 11 C16.21491684 12.13749195 16.21491684 12.13749195 14 14 C13.00544091 16.98367726 12.80440368 19.2004192 12.68359375 22.32421875 C12.64169922 23.35224609 12.59980469 24.38027344 12.55664062 25.43945312 C12.51732422 26.51130859 12.47800781 27.58316406 12.4375 28.6875 C12.39431641 29.77095703 12.35113281 30.85441406 12.30664062 31.97070312 C12.20053258 34.64698385 12.09975945 37.32347511 12 40 C8.04 40 4.08 40 0 40 C0 26.8 0 13.6 0 0 Z "
    fill="#000000" transform="translate(197,200)" />
  <path
    d="M0 0 C4.29 0 8.58 0 13 0 C13.33 5.28 13.66 10.56 14 16 C15.32 15.34 16.64 14.68 18 14 C24.40321811 13.21331892 30.641712 13.28579033 36.3125 16.59375 C41.07288946 20.56074121 43.53132023 25.98164726 44.23828125 32.04296875 C44.46904429 38.71080598 43.02154381 44.42116857 38.64453125 49.60546875 C34.49616094 53.3979467 30.06717912 55.04740617 24.47265625 54.9609375 C20.16168652 54.61909849 16.8094903 54.13681755 13 52 C12.67 52.66 12.34 53.32 12 54 C8.04 54 4.08 54 0 54 C0 36.18 0 18.36 0 0 Z M14 28 C12.25534552 31.48930896 12.43549448 35.19286977 13 39 C14.99227704 42.05067422 16.33682874 43.59426669 19.9375 44.47265625 C23.82131981 44.7595293 25.67845169 44.20766662 29 42.0625 C31.67524849 37.96602574 31.95893414 34.76875356 31 30 C29.20606332 27.12970131 28.01736724 25.50868362 25 24 C19.88480995 23.43164555 17.67158417 24.43331824 14 28 Z "
    fill="#000000" transform="translate(50,186)" />
  <path
    d="M0 0 C4.2486739 2.54920434 6.63875802 5.55526765 8.6875 10.0625 C9.4375 13.3125 9.4375 13.3125 9.4375 22.3125 C-0.1325 22.3125 -9.7025 22.3125 -19.5625 22.3125 C-15.2881592 27.36665367 -15.2881592 27.36665367 -11.3125 28.3125 C-6.59791922 28.3125 -2.90066607 27.05366869 1.4375 25.3125 C3.9125 28.2825 3.9125 28.2825 6.4375 31.3125 C5.35540362 34.45057951 4.49018214 35.28157788 1.5625 37 C-6.14251534 40.23610644 -13.25668793 40.00359346 -21.16015625 37.421875 C-26.21939624 35.08557556 -29.49160612 31.40772716 -32 26.5 C-33.2400767 19.47289869 -33.45409606 13.40181997 -29.83203125 7.06640625 C-23.09013472 -2.24778312 -10.36317412 -4.8114737 0 0 Z M-18.5625 10.3125 C-18.8925 11.6325 -19.2225 12.9525 -19.5625 14.3125 C-13.9525 14.3125 -8.3425 14.3125 -2.5625 14.3125 C-4.66130627 10.11488746 -5.48905364 9.25223636 -9.5625 7.3125 C-13.86125783 7.3125 -15.21438866 7.77879412 -18.5625 10.3125 Z "
    fill="#000000" transform="translate(34.5625,201.6875)" />
  <path
    d="M0 0 C3.54233721 2.40749234 5.20552428 5.86341712 6.1875 9.9375 C6.54257132 14.7569572 6.47006972 19.54594558 6.375 24.375 C6.35469727 26.33083008 6.35469727 26.33083008 6.33398438 28.32617188 C6.29877334 31.53037622 6.24952094 34.73372105 6.1875 37.9375 C2.5575 37.9375 -1.0725 37.9375 -4.8125 37.9375 C-5.1425 37.2775 -5.4725 36.6175 -5.8125 35.9375 C-6.823125 36.4325 -7.83375 36.9275 -8.875 37.4375 C-14.08493764 39.63446165 -18.6387342 39.48044936 -24 37.8125 C-28.09674167 36.11016463 -29.92750141 34.0216636 -31.8125 29.9375 C-32.28540668 26.08668846 -32.16275658 23.7486205 -30.625 20.1875 C-27.55844065 16.38073667 -24.38516152 14.86560663 -19.60546875 14.20703125 C-18.07157615 14.0424505 -16.53629774 13.89036585 -15 13.75 C-14.21173828 13.66814453 -13.42347656 13.58628906 -12.61132812 13.50195312 C-10.67947624 13.30291384 -8.74610587 13.11870893 -6.8125 12.9375 C-7.98107654 10.86033451 -7.98107654 10.86033451 -9.8125 8.9375 C-12.18010362 8.37969524 -12.18010362 8.37969524 -14.75 8.5625 C-15.60464844 8.57539063 -16.45929688 8.58828125 -17.33984375 8.6015625 C-19.91091654 8.95087097 -21.53471342 9.74867611 -23.8125 10.9375 C-24.8025 10.9375 -25.7925 10.9375 -26.8125 10.9375 C-29.87604009 5.54566944 -29.87604009 5.54566944 -29.59375 2.84375 C-28.8125 0.9375 -28.8125 0.9375 -25.75 -0.8125 C-18.16631813 -3.28096788 -7.12104962 -4.00311324 0 0 Z M-18.6796875 23.31640625 C-20.04512555 24.90059947 -20.04512555 24.90059947 -19.625 27.0625 C-18.9689434 29.12714132 -18.9689434 29.12714132 -16.8125 29.9375 C-13.00048799 30.36105689 -11.25239736 30.20526361 -7.9375 28.1875 C-5.35475098 25.96863367 -5.35475098 25.96863367 -5.8125 21.9375 C-7.58257714 21.85635894 -9.35372098 21.79824495 -11.125 21.75 C-12.11113281 21.71519531 -13.09726563 21.68039063 -14.11328125 21.64453125 C-16.83309076 21.71042482 -16.83309076 21.71042482 -18.6796875 23.31640625 Z "
    fill="#000000" transform="translate(128.8125,202.0625)" />
  <path
    d="M0 0 C3.96 0 7.92 0 12 0 C12 2.97 12 5.94 12 9 C15.3 9 18.6 9 22 9 C22 12.3 22 15.6 22 19 C18.7 19 15.4 19 12 19 C12.11361602 21.79256219 12.2403589 24.58344118 12.375 27.375 C12.4059375 28.1690625 12.436875 28.963125 12.46875 29.78125 C12.51816421 34.36667375 12.51816421 34.36667375 15 38 C18.59679066 37.67673447 18.59679066 37.67673447 22 37 C22.99 39.97 23.98 42.94 25 46 C18.66884255 49.10097508 14.18592128 50.06197376 7.25 47.75 C2.93698198 45.42760568 1.52644104 43.57932313 0 39 C-0.08106686 37.44578271 -0.10756898 35.88832973 -0.09765625 34.33203125 C-0.09443359 33.43935547 -0.09121094 32.54667969 -0.08789062 31.62695312 C-0.07951172 30.69818359 -0.07113281 29.76941406 -0.0625 28.8125 C-0.05798828 27.87212891 -0.05347656 26.93175781 -0.04882812 25.96289062 C-0.03704626 23.64186288 -0.02059558 21.32096356 0 19 C-1.98 19 -3.96 19 -6 19 C-6 15.7 -6 12.4 -6 9 C-4.02 9 -2.04 9 0 9 C0 6.03 0 3.06 0 0 Z "
    fill="#000000" transform="translate(274,192)" />
  <path
    d="M0 0 C-0.06960937 0.8353125 -0.06960937 0.8353125 -0.140625 1.6875 C-0.43676823 7.94881396 0.85501658 11.59455975 4 17 C4.66 14.69 5.32 12.38 6 10 C8.5625 12 8.5625 12 11 15 C11.05477717 17.76624705 10.47946368 20.25398074 10 23 C10.63270867 24.34977849 11.30062468 25.68352881 12 27 C12.63144155 33.41965576 11.79603726 36.76762432 8 42 C2.65683529 45.92015693 -2.59330611 45.93629627 -9 45 C-12.99618962 43.07449372 -15.31325176 40.05120782 -17 36 C-18.00146479 29.59528332 -16.68095346 26.2913706 -13 21 C-13 19.783125 -13 18.56625 -13 17.3125 C-13 16.219375 -13 15.12625 -13 14 C-11 12.0625 -11 12.0625 -9 11 C-8.34 11.33 -7.68 11.66 -7 12 C-7.33 13.32 -7.66 14.64 -8 16 C-7.34 16 -6.68 16 -6 16 C-5.16203269 11.34462607 -4.9838308 7.62921525 -6 3 C-2.25 0 -2.25 0 0 0 Z M-8 22 C-10.33391203 24.78114056 -10.33391203 24.78114056 -9.625 27.6875 C-9.41875 28.450625 -9.2125 29.21375 -9 30 C-8.01 30 -7.02 30 -6 30 C-5.23043864 27.65466049 -5.23043864 27.65466049 -5 25 C-6.33378575 23.1645201 -6.33378575 23.1645201 -8 22 Z M2 22 C0.80161791 24.32854463 0.80161791 24.32854463 0 27 C0.99 28.485 0.99 28.485 2 30 C2.66 30 3.32 30 4 30 C4.76956136 27.65466049 4.76956136 27.65466049 5 25 C3.66621425 23.1645201 3.66621425 23.1645201 2 22 Z "
    fill="#000000" transform="translate(153,16)" />
  <path
    d="M0 0 C3.96 0 7.92 0 12 0 C12.33 0.99 12.66 1.98 13 3 C13.680625 2.505 14.36125 2.01 15.0625 1.5 C18.59465009 -0.30365111 21.08636991 -0.23021353 25 0 C25 3.63 25 7.26 25 11 C21.7 11.66 18.4 12.32 15 13 C13.98412022 16.04763934 13.80195594 18.34718967 13.68359375 21.54296875 C13.64169922 22.61611328 13.59980469 23.68925781 13.55664062 24.79492188 C13.49766602 26.47424805 13.49766602 26.47424805 13.4375 28.1875 C13.39431641 29.31865234 13.35113281 30.44980469 13.30664062 31.61523438 C13.2005099 34.41001025 13.09974603 37.20498898 13 40 C8.71 40 4.42 40 0 40 C0 26.8 0 13.6 0 0 Z "
    fill="#000000" transform="translate(144,200)" />
  <path
    d="M0 0 C8.58 0 17.16 0 26 0 C27.32 3.3 28.64 6.6 30 10 C31.65 6.7 33.3 3.4 35 0 C37.31 0 39.62 0 42 0 C39.95947337 5.30619345 37.33208926 10.19719467 34.625 15.1875 C34.14289063 16.10208984 33.66078125 17.01667969 33.1640625 17.95898438 C32.6896875 18.83232422 32.2153125 19.70566406 31.7265625 20.60546875 C31.08581787 21.79885864 31.08581787 21.79885864 30.43212891 23.01635742 C28.80668633 25.26775888 27.59325152 26.06399526 25 27 C22.8125 26.75 22.8125 26.75 21 26 C20.67 25.34 20.34 24.68 20 24 C21.65 22.35 23.3 20.7 25 19 C23.45730076 14.27934033 21.92205381 9.58335908 20 5 C17.36 5 14.72 5 12 5 C11.93941406 6.18078125 11.87882813 7.3615625 11.81640625 8.578125 C11.73197418 10.1354277 11.64732751 11.69271879 11.5625 13.25 C11.50352539 14.41595703 11.50352539 14.41595703 11.44335938 15.60546875 C11.40146484 16.35957031 11.35957031 17.11367188 11.31640625 17.890625 C11.26141968 18.92751465 11.26141968 18.92751465 11.20532227 19.98535156 C10.99324476 22.06628329 10.55491323 23.98572422 10 26 C8.02 26 6.04 26 4 26 C4.96355353 11.21867882 4.96355353 11.21867882 6 5 C4.02 5 2.04 5 0 5 C0 3.35 0 1.7 0 0 Z "
    fill="#000000" transform="translate(155,259)" />
  <path
    d="M0 0 C3.96 0 7.92 0 12 0 C12 13.2 12 26.4 12 40 C8.04 40 4.08 40 0 40 C0 26.8 0 13.6 0 0 Z "
    fill="#000000" transform="translate(175,200)" />
  <path
    d="M0 0 C2.87029869 1.79393668 4.49131638 2.98263276 6 6 C6.40435212 10.82889743 6.6440172 15.40690481 4.8125 19.9375 C0.9408087 24.34321768 -2.12520603 26.64258669 -8.0078125 27.09765625 C-11.28991295 26.93676897 -13.33449718 25.85965313 -16 24 C-18.9533871 20.55438171 -19.4764996 17.51233134 -19.2890625 12.98828125 C-18.55067069 7.90934297 -15.84176278 4.24148735 -12 1 C-7.9493707 -0.35020977 -4.23538911 -0.55728804 0 0 Z M-12 9 C-12 9.66 -12 10.32 -12 11 C-8.04 11 -4.08 11 0 11 C-1.45288986 6.4158037 -1.45288986 6.4158037 -3 5 C-7.50457255 4.39127398 -9.20834082 5.48457733 -12 9 Z M-13 15 C-11.54711014 19.5841963 -11.54711014 19.5841963 -10 21 C-7.12693772 21.50095023 -7.12693772 21.50095023 -4 21 C-1.1900977 18.43900815 -1.1900977 18.43900815 0 15 C-4.29 15 -8.58 15 -13 15 Z "
    fill="#000000" transform="translate(127,259)" />
  <path
    d="M0 0 C1.98 0 3.96 0 6 0 C5.67 3.63 5.34 7.26 5 11 C7.97 11 10.94 11 14 11 C14.33 7.37 14.66 3.74 15 0 C16.98 0 18.96 0 21 0 C20.54736337 8.82641419 19.85479354 17.33829426 18 26 C16.02 26 14.04 26 12 26 C12.33 22.37 12.66 18.74 13 15 C10.03 15 7.06 15 4 15 C4.020625 16.258125 4.04125 17.51625 4.0625 18.8125 C4.10886083 21.64051087 3.91692961 23.24921116 3 26 C1.02 26 -0.96 26 -3 26 C-2.45520982 17.24034738 -1.45892001 8.65437017 0 0 Z "
    fill="#000000" transform="translate(86,259)" />
  <path
    d="M0 0 C1.4540625 0.0309375 1.4540625 0.0309375 2.9375 0.0625 C4.88344176 4.47154822 5.97896179 8.94973329 7.0625 13.625 C7.24425781 14.37974609 7.42601562 15.13449219 7.61328125 15.91210938 C7.78472656 16.64365234 7.95617187 17.37519531 8.1328125 18.12890625 C8.28766113 18.78834229 8.44250977 19.44777832 8.60205078 20.12719727 C8.9375 22.0625 8.9375 22.0625 8.9375 26.0625 C6.9575 26.0625 4.9775 26.0625 2.9375 26.0625 C2.6075 24.0825 2.2775 22.1025 1.9375 20.0625 C-2.1284978 20.2469034 -2.1284978 20.2469034 -6.0625 21.0625 C-7.1034066 22.70392963 -8.10754326 24.36962215 -9.0625 26.0625 C-12.25 26.375 -12.25 26.375 -15.0625 26.0625 C-13.40426227 20.52597949 -10.99026074 15.44689485 -8.5 10.25 C-8.08814453 9.37923828 -7.67628906 8.50847656 -7.25195312 7.61132812 C-3.66282743 0.07475158 -3.66282743 0.07475158 0 0 Z M-1.0625 8.0625 C-3.2638866 11.86677492 -3.2638866 11.86677492 -4.0625 16.0625 C-2.4125 16.0625 -0.7625 16.0625 0.9375 16.0625 C0.6075 13.4225 0.2775 10.7825 -0.0625 8.0625 C-0.3925 8.0625 -0.7225 8.0625 -1.0625 8.0625 Z "
    fill="#000000" transform="translate(146.0625,258.9375)" />
  <path
    d="M0 0 C2.5625 1.5 2.5625 1.5 4 3 C3.34 4.32 2.68 5.64 2 7 C0.14375 6.6596875 0.14375 6.6596875 -1.75 6.3125 C-4.51463013 5.98955206 -5.79694649 5.9219025 -8.4375 6.9375 C-10.7354391 9.97077961 -11.22853883 13.22149128 -11 17 C-10.34 17.99 -9.68 18.98 -9 20 C-6.03 19.67 -3.06 19.34 0 19 C0.66 20.32 1.32 21.64 2 23 C-1.08313431 25.95467038 -3.90626854 26.69377489 -8.0390625 27.0625 C-11.1038877 26.96481633 -12.69879842 25.97245849 -15 24 C-17.83488249 20.5785901 -18.53703233 17.57627595 -18.3515625 13.125 C-17.54292169 8.23721556 -15.45482842 4.33012884 -11.8125 1 C-7.83342638 -0.41478173 -4.17652327 -0.60777764 0 0 Z "
    fill="#000000" transform="translate(212,259)" />
  <path
    d="M0 0 C12.32708998 -0.19066878 24.62801022 0.31886576 36.94335938 0.79956055 C40.51936616 0.93825109 44.0955883 1.06992078 47.671875 1.20117188 C49.95834953 1.28864003 52.24480851 1.37651601 54.53125 1.46484375 C56.12507507 1.52272316 56.12507507 1.52272316 57.75109863 1.58177185 C62.57881988 1.77560063 67.25114117 2.02961193 72 3 C72 3.33 72 3.66 72 4 C21.81993569 6.41800643 21.81993569 6.41800643 0 6 C-1.125 2.25 -1.125 2.25 0 0 Z "
    fill="#000000" transform="translate(227,269)" />
  <path
    d="M0 0 C1 1 1 1 1.0625 3.5625 C1.041875 4.366875 1.02125 5.17125 1 6 C-23.0324865 6.46039246 -47.00305411 5.15633111 -71 4 C-71 3.67 -71 3.34 -71 3 C-65.27509267 1.8371282 -59.56943352 1.68061714 -53.75 1.46484375 C-52.65969482 1.42186661 -51.56938965 1.37888947 -50.44604492 1.33460999 C-48.1397195 1.24458992 -45.83331995 1.15645219 -43.52685547 1.07006836 C-40.03982929 0.93899711 -36.55312732 0.80103535 -33.06640625 0.66210938 C-6.46588322 -0.37600517 -6.46588322 -0.37600517 0 0 Z "
    fill="#000000" transform="translate(73,269)" />
  <path
    d="M0 0 C2 1.6875 2 1.6875 3 4 C2.92936148 7.46128747 2.64776603 9.28025997 0.3125 11.875 C-2.70753221 13.34420486 -4.67631657 13.41546043 -8 13 C-10.375 12 -10.375 12 -12 10 C-12.62364822 7.20232573 -12.66190138 4.79275933 -12 2 C-8.28175145 -1.71824855 -4.87069218 -1.35297005 0 0 Z "
    fill="#000000" transform="translate(186,183)" />
</svg>

