<?xml version="1.0" encoding="UTF-8"?>
<svg version="1.1" xmlns="http://www.w3.org/2000/svg" width="333" height="125">
  <path
    d="M0 0 C4.62 0 9.24 0 14 0 C18.86075633 5.97178635 18.86075633 5.97178635 20.42578125 9.15625 C23.06518588 14.25487235 26.09052874 19.09092115 29.12573242 23.95898438 C32.44299255 29.28999855 35.71697191 34.64783656 39 40 C39.33 26.8 39.66 13.6 40 0 C44.95 0 49.9 0 55 0 C55 22.44 55 44.88 55 68 C40 68 40 68 36.83984375 65.30859375 C35.83569336 63.47680664 35.83569336 63.47680664 34.9375 61.4375 C34.16926486 59.98560142 33.39824964 58.53517168 32.625 57.0859375 C32.22023438 56.28381836 31.81546875 55.48169922 31.3984375 54.65527344 C28.66998506 49.47464342 25.51016256 44.54369681 22.4375 39.5625 C20.70345337 36.69957888 18.97125532 33.83555102 17.23999023 30.97094727 C16.14890937 29.07492031 16.14890937 29.07492031 15 28 C14.67 41.2 14.34 54.4 14 68 C9.38 68 4.76 68 0 68 C0 45.56 0 23.12 0 0 Z "
    fill="#1E345E" transform="translate(267,28)" />
  <path
    d="M0 0 C11.22 0 22.44 0 34 0 C34 1.32 34 2.64 34 4 C24.43 4 14.86 4 5 4 C5 4.66 5 5.32 5 6 C14.57 6 24.14 6 34 6 C34 13.92 34 21.84 34 30 C24.43 30 14.86 30 5 30 C5 30.66 5 31.32 5 32 C5.66531738 31.97381592 6.33063477 31.94763184 7.01611328 31.9206543 C10.05216535 31.8162454 13.08783911 31.75153652 16.125 31.6875 C17.17171875 31.64560547 18.2184375 31.60371094 19.296875 31.56054688 C28.03624614 31.42226569 28.03624614 31.42226569 31.7421875 34.14453125 C34 37 34 37 34 43 C24.43 43 14.86 43 5 43 C5 43.66 5 44.32 5 45 C14.57 45 24.14 45 34 45 C34 48.63 34 52.26 34 56 C24.43 56 14.86 56 5 56 C5 56.66 5 57.32 5 58 C14.57 58 24.14 58 34 58 C34 67.9 34 77.8 34 88 C26.41 88 18.82 88 11 88 C11 92.95 11 97.9 11 103 C16.94 103 22.88 103 29 103 C29 100.36 29 97.72 29 95 C25.04 95 21.08 95 17 95 C17 95.66 17 96.32 17 97 C20.3 97 23.6 97 27 97 C27 98.32 27 99.64 27 101 C22.38 101 17.76 101 13 101 C13 97.7 13 94.4 13 91 C19.93 91 26.86 91 34 91 C34 96.61 34 102.22 34 108 C25.09 108 16.18 108 7 108 C7 100.08 7 92.16 7 84 C14.26 84 21.52 84 29 84 C29 81.03 29 78.06 29 75 C23.06 75 17.12 75 11 75 C11 75.66 11 76.32 11 77 C16.28 77 21.56 77 27 77 C27 78.65 27 80.3 27 82 C20.4 82 13.8 82 7 82 C7 78.37 7 74.74 7 71 C14.26 71 21.52 71 29 71 C29 70.34 29 69.68 29 69 C21.08 69 13.16 69 5 69 C5 73.29 5 77.58 5 82 C3.35 82 1.7 82 0 82 C0 76.39 0 70.78 0 65 C9.57 65 19.14 65 29 65 C29 64.34 29 63.68 29 63 C19.43 63 9.86 63 0 63 C0 59.37 0 55.74 0 52 C9.57 52 19.14 52 29 52 C29 51.34 29 50.68 29 50 C19.43 50 9.86 50 0 50 C0 46.37 0 42.74 0 39 C8.58 38.67 17.16 38.34 26 38 C13.13 37.505 13.13 37.505 0 37 C0 33.37 0 29.74 0 26 C9.57 26 19.14 26 29 26 C29 23.03 29 20.06 29 17 C21.08 17 13.16 17 5 17 C5 17.66 5 18.32 5 19 C12.26 19 19.52 19 27 19 C27 20.65 27 22.3 27 24 C18.09 24 9.18 24 0 24 C0 20.37 0 16.74 0 13 C9.57 13 19.14 13 29 13 C29 12.34 29 11.68 29 11 C19.43 11 9.86 11 0 11 C0 7.37 0 3.74 0 0 Z "
    fill="#6EBF4B" transform="translate(17,8)" />
  <path
    d="M0 0 C5.69315561 4.27856297 8.64199014 9.00301588 10 16 C10 17.32 10 18.64 10 20 C5.38 20 0.76 20 -4 20 C-4.515625 18.741875 -5.03125 17.48375 -5.5625 16.1875 C-7.21846474 12.9276813 -8.01338391 11.99107739 -11.1875 9.875 C-16.00198934 8.77003523 -19.45352769 9.08801455 -24 11 C-28.41824237 14.73851277 -29.33968176 19.46473973 -30 25 C-30.67379558 34.44495908 -30.57223196 43.42021544 -24.5625 51.125 C-20.09975981 54.32555105 -14.20667 53.52592626 -9 53 C-8.01 52.67 -7.02 52.34 -6 52 C-5.67 48.04 -5.34 44.08 -5 40 C-8.96 40 -12.92 40 -17 40 C-17 36.37 -17 32.74 -17 29 C-8.09 29 0.82 29 10 29 C10.18906717 33.54361426 10.32777774 38.07936349 10.4375 42.625 C10.49615234 43.91019531 10.55480469 45.19539063 10.61523438 46.51953125 C10.78379496 55.81444347 10.78379496 55.81444347 8.56445312 59.17138672 C6.78458484 60.74717236 5.10101619 61.89753982 3 63 C2.24976563 63.40992187 1.49953125 63.81984375 0.7265625 64.2421875 C-8.37468052 66.98271049 -20.23259749 68.04623901 -29.1875 64.3125 C-31.21484375 63.18359375 -31.21484375 63.18359375 -33 62 C-34.60875 60.948125 -34.60875 60.948125 -36.25 59.875 C-43.68946277 52.09737983 -45.92746899 42.07321634 -46.25 31.5625 C-45.94195247 20.81934256 -44.13305606 11.26008976 -36.75 3.1875 C-27.73630175 -5.07191388 -10.60118803 -6.0858672 0 0 Z "
    fill="#1E345E" transform="translate(246,31)" />
  <path
    d="M0 0 C4.14202303 2.54948659 7.29038657 5.40053533 9.1875 9.9375 C9.83200175 12.99888331 10.04235878 15.79277355 10.1875 18.9375 C5.2375 18.9375 0.2875 18.9375 -4.8125 18.9375 C-5.4725 16.9575 -6.1325 14.9775 -6.8125 12.9375 C-9.54463134 10.20536866 -11.73236892 10.24514087 -15.484375 9.90625 C-18.92437083 9.95242444 -21.05275777 10.93668688 -23.8125 12.9375 C-24.9701585 14.81707244 -24.9701585 14.81707244 -24.8125 16.9375 C-23.83374303 19.87959685 -23.10491483 20.7783375 -20.34375 22.28125 C-19.3434375 22.6628125 -18.343125 23.044375 -17.3125 23.4375 C-16.23355469 23.86417969 -15.15460938 24.29085937 -14.04296875 24.73046875 C-12.07530146 25.46566729 -10.10019462 26.18180734 -8.11328125 26.86328125 C-1.01937066 29.39125253 5.90282021 33.4119362 9.41015625 40.359375 C10.98706625 45.58932775 11.19944925 51.10404211 9.34765625 56.2890625 C5.84081447 62.59429317 0.78669287 64.73776904 -5.8125 66.9375 C-16.84023739 67.655421 -26.90662938 67.96377287 -35.75 60.4375 C-40.7197901 54.413512 -41.8125 52.26876956 -41.8125 43.9375 C-37.1925 43.9375 -32.5725 43.9375 -27.8125 43.9375 C-27.3175 46.103125 -27.3175 46.103125 -26.8125 48.3125 C-25.71220073 51.72995469 -25.71220073 51.72995469 -23.11328125 54.015625 C-18.22713266 55.35955585 -13.72847376 54.93735907 -8.8125 53.9375 C-7.8225 53.2775 -6.8325 52.6175 -5.8125 51.9375 C-5.44887182 49.73024927 -5.44887182 49.73024927 -5.625 47.3125 C-5.65207031 46.49523437 -5.67914063 45.67796875 -5.70703125 44.8359375 C-5.75923828 43.89621094 -5.75923828 43.89621094 -5.8125 42.9375 C-8.68109589 41.7589296 -11.55919129 40.67377499 -14.484375 39.640625 C-35.16067456 32.33732007 -35.16067456 32.33732007 -39.2265625 23.92578125 C-40.75603298 18.73577808 -40.41512201 13.78081439 -38.75 8.6875 C-30.32740611 -3.26714939 -13.13145532 -6.02105945 0 0 Z "
    fill="#1E345E" transform="translate(155.8125,30.0625)" />
  <path
    d="M0 0 C14.85 0 29.7 0 45 0 C45 3.96 45 7.92 45 12 C34.77 12 24.54 12 14 12 C14 17.28 14 22.56 14 28 C22.91 28 31.82 28 41 28 C41 31.63 41 35.26 41 39 C32.09 39 23.18 39 14 39 C14 44.94 14 50.88 14 57 C24.23 57 34.46 57 45 57 C45 60.63 45 64.26 45 68 C30.15 68 15.3 68 0 68 C0 45.56 0 23.12 0 0 Z "
    fill="#1E345E" transform="translate(64,28)" />
  <path
    d="M0 0 C4.95 0 9.9 0 15 0 C15 22.44 15 44.88 15 68 C10.05 68 5.1 68 0 68 C0 45.56 0 23.12 0 0 Z "
    fill="#1E345E" transform="translate(175,28)" />
  <path d="M0 0 C1.65 0 3.3 0 5 0 C5 7.92 5 15.84 5 24 C3.35 24 1.7 24 0 24 C0 16.08 0 8.16 0 0 Z "
    fill="#6EBF4B" transform="translate(17,92)" />
</svg>

