<svg width="140" height="57" viewBox="0 0 140 57" fill="none" xmlns="http://www.w3.org/2000/svg">
  <g clip-path="url(#clip0_2495_6975)">
    <g clip-path="url(#clip1_2495_6975)">
      <path
        d="M128.237 17.2148V17.7527H131.175V43.841H128.237V44.3789H137.579V43.841H134.64L134.663 17.7527V17.2148H128.237Z"
        fill="white" />
      <path
        d="M41.3882 39.1115C41.3882 42.2045 38.8872 44.7035 35.7919 44.7035C32.6966 44.7035 30.1956 42.2045 30.1956 39.1115V23.1762C30.1956 20.0832 32.6966 17.5842 35.7919 17.5842C38.8872 17.5842 41.3882 20.0832 41.3882 23.1762V26.8182H44.8872C44.8199 21.5176 40.7713 17.248 35.7919 17.248C30.8124 17.248 26.6966 21.5961 26.6966 26.9527V35.3574C26.6966 40.714 30.7788 45.0621 35.7919 45.0621C40.805 45.0621 44.8984 40.714 44.8984 35.3574V33.542H41.3994V39.1115H41.3882Z"
        fill="white" />
      <path
        d="M76.3339 21.9785C74.8536 21.9785 73.4853 22.4268 72.319 23.2112V22.5276H66.5096V23.0767H68.7526V52.9639H66.5096V53.513H74.5508V52.9639H72.3078V43.7299C73.4741 44.5032 74.8536 44.9626 76.3227 44.9626C80.5059 44.9626 83.904 41.343 83.904 36.8829V30.0695C83.904 25.6094 80.5059 21.9897 76.3227 21.9897L76.3339 21.9785ZM80.3601 40.5922C80.3601 42.811 78.5545 44.6152 76.3339 44.6152C74.1134 44.6152 72.3078 42.811 72.3078 40.5922V26.3826C72.3078 24.1637 74.1134 22.3595 76.3339 22.3595C78.5545 22.3595 80.3601 24.1637 80.3601 26.3826V40.5922Z"
        fill="white" />
      <path
        d="M101.153 17.0137L97.5862 18.6722V22.5272H95.5115V23.0763H97.5862V40.5917C97.5862 43.595 99.5376 44.951 101.646 44.951C103.754 44.951 105.257 43.1692 105.257 39.7849H104.708C104.708 42.4184 103.811 44.0097 102.543 44.0097C101.747 44.0097 101.13 43.2588 101.13 41.9925V23.0763H105.246V22.5272H101.13V17.0137H101.153Z"
        fill="white" />
      <path
        d="M92.5059 22.5273H86.7078V23.0765H88.9508V43.7969H86.7078V44.346H94.7489V43.7969H92.5059V22.5273Z"
        fill="white" />
      <path
        d="M90.7339 19.4221C91.9564 19.4221 92.9545 18.4247 92.9545 17.2032C92.9545 15.9817 91.9564 14.9844 90.7339 14.9844C89.5115 14.9844 88.5134 15.9817 88.5134 17.2032C88.5134 18.4247 89.5115 19.4221 90.7339 19.4221Z"
        fill="white" />
      <path
        d="M65.7582 44.6806V44.1315H63.5152V33.7208V28.8237C63.5152 25.1816 60.5657 22.2344 56.9209 22.2344H54.9358C51.7283 22.2344 49.0592 24.5205 48.4648 27.5574H51.9078V26.6048C51.9078 24.386 53.7134 22.5818 55.9339 22.5818C57.0442 22.5818 58.0536 23.03 58.7825 23.7584C59.5115 24.4868 59.9601 25.4954 59.9601 26.6048V31.4123C59.3209 30.0228 57.9302 29.059 56.304 29.059H54.5994C51.1564 29.059 48.3751 31.8494 48.3751 35.2785V38.999C48.3751 42.4393 51.1676 45.2185 54.5994 45.2185H56.304C57.9302 45.2185 59.3321 44.2435 59.9713 42.854V44.6918H65.7807L65.7582 44.6806ZM55.9452 44.8599C53.7246 44.8599 51.919 43.0557 51.919 40.8368V33.4071C51.919 31.1882 53.7246 29.384 55.9452 29.384C58.0424 29.384 59.7582 30.9865 59.9489 33.026V33.9338V41.1282C59.7919 43.2126 58.0648 44.8487 55.9452 44.8487V44.8599Z"
        fill="white" />
      <path
        d="M123.358 33.4747V28.5776C123.358 24.9355 120.409 21.9883 116.764 21.9883H114.779C111.571 21.9883 108.902 24.2744 108.308 27.3113H111.751V26.3587C111.751 24.1399 113.556 22.3357 115.777 22.3357C116.887 22.3357 117.897 22.7839 118.625 23.5123C119.354 24.2407 119.803 25.2493 119.803 26.3587V31.1662C119.164 29.7767 117.773 28.8129 116.147 28.8129H114.442C110.999 28.8129 108.218 31.6033 108.218 35.0324V38.7529C108.218 42.1932 111.011 44.9724 114.442 44.9724H116.147C117.773 44.9724 119.175 43.9975 119.814 42.6079V44.4457H125.624V43.8966H123.381V33.4859L123.358 33.4747ZM119.792 40.8933C119.635 42.9777 117.908 44.6138 115.788 44.6138C113.668 44.6138 111.762 42.8096 111.762 40.5907V33.161C111.762 30.9421 113.568 29.1379 115.788 29.1379C117.885 29.1379 119.601 30.7404 119.792 32.7799V33.6877V40.8821V40.8933Z"
        fill="white" />
      <path
        d="M0.218063 20.9695C4.65918 27.0994 7.97881 34.1033 9.84049 41.6675C10.5919 44.245 12.6442 44.8838 13.5302 45.0406C13.7545 45.0855 13.9788 44.9398 14.0237 44.7157C17.9713 27.3795 27.9302 12.3182 41.6012 1.85156C28.6704 9.97613 18.3863 21.922 12.3526 36.1204C9.14517 30.4276 5.02928 25.3176 0.206848 20.9695"
        fill="#D72329" />
    </g>
  </g>
  <defs>
    <clipPath id="clip0_2495_6975">
      <rect width="140" height="56.6978" fill="white" />
    </clipPath>
    <clipPath id="clip1_2495_6975">
      <rect width="140" height="56.6978" fill="white" />
    </clipPath>
  </defs>
</svg>
