<svg xmlns="http://www.w3.org/2000/svg" width="156" height="40" viewBox="0 0 156 40" fill="none">
  <path
    d="M9.11838 20.3996L0 29.5045L10.0795 39.5701L19.1979 30.4652V20.3996H9.11838ZM15.589 28.9728L10.0806 34.4735L5.10517 29.5045L10.6147 24.0026L15.589 24.0048V28.9728Z"
    fill="#6B337E"></path>
  <path
    d="M19.199 19.2173V9.15169L10.0817 0.0467863L0.00221252 10.1124L9.12059 19.2173H19.199ZM15.5891 15.6121L10.6147 15.6143L5.10522 10.1124L10.0806 5.14444L15.5891 10.6441V15.6121Z"
    fill="#6B337E"></path>
  <path
    d="M30.2375 19.2173L39.3558 10.1124L29.2763 0.0467663L20.1579 9.15167V19.2173H30.2375ZM23.7668 10.6441L29.2752 5.14334L34.2507 10.1124L28.7412 15.6142L23.7668 15.6121V10.6441Z"
    fill="#6B337E"></path>
  <path
    d="M20.1569 20.3996V30.4652L29.2742 39.5701L39.3537 29.5045L30.2353 20.3996H20.1569ZM23.7668 24.0048L28.7412 24.0026L34.2507 29.5045L29.2752 34.4724L23.7668 28.9728V24.0048Z"
    fill="#6B337E"></path>
  <path
    d="M50.3014 21.7451C50.2711 21.6835 50.1835 21.6845 50.1532 21.7451L41.3635 39.4685C41.3365 39.5237 41.3765 39.5874 41.4381 39.5874H59.2197C59.2813 39.5874 59.3213 39.5226 59.2932 39.4675L50.3014 21.7451ZM54.1373 36.6501H46.2925C46.2319 36.6501 46.1919 36.5863 46.2179 36.5312L50.0754 28.6486C50.1057 28.5859 50.1932 28.5859 50.2235 28.6475L54.2097 36.5301C54.2389 36.5863 54.1989 36.6501 54.1373 36.6501ZM76.4402 17.8891H79.6177C79.6501 17.8891 79.6793 17.8707 79.6923 17.8416L81.4664 13.7641C81.4794 13.7349 81.5086 13.7165 81.541 13.7165H88.4106C88.442 13.7165 88.4712 13.7349 88.4852 13.763L90.3329 17.8426C90.347 17.8718 90.3751 17.8891 90.4075 17.8891H93.7591C93.8207 17.8891 93.8607 17.8243 93.8337 17.7692L85.0764 0.0467444C85.0461 -0.0148555 84.9585 -0.0137738 84.9283 0.0478261L76.3667 17.7702C76.3396 17.8243 76.3797 17.8891 76.4402 17.8891ZM82.8892 10.7349L84.8526 6.52878C84.8818 6.4661 84.9715 6.46502 85.0018 6.5277L87.0354 10.7338C87.0624 10.7889 87.0224 10.8527 86.9608 10.8527H82.9638C82.9033 10.8516 82.8633 10.79 82.8892 10.7349ZM41.4619 17.8891H44.9237C44.9508 17.8891 44.9767 17.8761 44.9918 17.8535L49.4764 11.3033C49.5089 11.2558 49.5791 11.2558 49.6127 11.3033L54.1221 17.8535C54.1373 17.8761 54.1632 17.8891 54.1902 17.8891H57.651C57.718 17.8891 57.7569 17.8145 57.7191 17.7594L51.6095 8.86092C51.5901 8.83282 51.5901 8.79609 51.6095 8.76691L57.4899 0.223968C57.5277 0.168852 57.4888 0.0942889 57.4218 0.0942889H53.961C53.9329 0.0942889 53.907 0.108347 53.8918 0.131042L49.6873 6.42288C49.6548 6.47151 49.5835 6.47151 49.55 6.42396L45.2697 0.12996C45.2546 0.107266 45.2286 0.0932071 45.2016 0.0932071H41.7398C41.6727 0.0932071 41.6338 0.167769 41.6717 0.221804L47.5012 8.76475C47.5206 8.79285 47.5206 8.8296 47.5012 8.8577L41.3916 17.7562C41.356 17.8145 41.396 17.8891 41.4619 17.8891ZM58.3353 17.8891H61.5128C61.5453 17.8891 61.5744 17.8707 61.5874 17.8416L63.3616 13.7641C63.3756 13.7349 63.4048 13.7165 63.4373 13.7165H70.3069C70.3393 13.7165 70.3674 13.7349 70.3815 13.763L72.2281 17.8416C72.2421 17.8707 72.2713 17.888 72.3027 17.888H75.6542C75.7158 17.888 75.7558 17.8232 75.7288 17.7681L66.9715 0.0456626C66.9413 -0.0159373 66.8537 -0.0148555 66.8234 0.0467444L58.2618 17.7692C58.2348 17.8243 58.2748 17.8891 58.3353 17.8891ZM64.7833 10.7349L66.7477 6.52878C66.7769 6.4661 66.8667 6.46502 66.8969 6.5277L68.9306 10.7338C68.9576 10.7889 68.9165 10.8527 68.856 10.8527H64.859C64.7973 10.8516 64.7584 10.79 64.7833 10.7349ZM155.991 39.4685L146.999 21.7451C146.969 21.6835 146.881 21.6845 146.851 21.7451L138.061 39.4685C138.034 39.5237 138.074 39.5874 138.136 39.5874H141.402C141.434 39.5874 141.462 39.569 141.476 39.5399L146.775 28.6475C146.804 28.5848 146.893 28.5848 146.923 28.6464L152.398 39.5399C152.412 39.568 152.441 39.5863 152.473 39.5863H155.917C155.979 39.5885 156.019 39.5237 155.991 39.4685ZM121.84 24.651V21.878C121.84 21.8326 121.803 21.7948 121.756 21.7948H111.824C111.779 21.7948 111.741 21.8315 111.741 21.878V39.5064C111.741 39.5517 111.779 39.5896 111.824 39.5896H114.804C114.849 39.5896 114.886 39.5528 114.886 39.5064V24.8164C114.886 24.771 114.924 24.7343 114.969 24.7343H121.757C121.803 24.7343 121.84 24.6964 121.84 24.651ZM68.6084 21.7461C68.5781 21.6845 68.4905 21.6856 68.4603 21.7472L59.8987 39.4696C59.8716 39.5247 59.9116 39.5885 59.9733 39.5885H63.1508C63.1832 39.5885 63.2124 39.5701 63.2254 39.5409L64.9995 35.4635C65.0125 35.4343 65.0417 35.4159 65.0741 35.4159H71.9437C71.9751 35.4159 72.0043 35.4343 72.0183 35.4624L73.866 39.542C73.88 39.5712 73.9081 39.5885 73.9395 39.5885H77.2911C77.3527 39.5885 77.3927 39.5237 77.3657 39.4685L68.6084 21.7461ZM70.4939 32.5521H66.4969C66.4364 32.5521 66.3964 32.4894 66.4223 32.4343L68.3857 28.2282C68.4149 28.1655 68.5046 28.1644 68.5349 28.2271L70.5685 32.4332C70.5944 32.4883 70.5544 32.5521 70.4939 32.5521ZM128.234 21.7461C128.203 21.6845 128.116 21.6856 128.085 21.7472L119.524 39.4696C119.497 39.5247 119.537 39.5885 119.597 39.5885H122.775C122.807 39.5885 122.836 39.5701 122.849 39.5409L124.624 35.4635C124.637 35.4343 124.666 35.4159 124.698 35.4159H131.568C131.599 35.4159 131.628 35.4343 131.642 35.4624L133.49 39.542C133.504 39.5712 133.532 39.5885 133.564 39.5885H136.915C136.977 39.5885 137.017 39.5237 136.99 39.4685L128.234 21.7461ZM130.12 32.5521H126.123C126.063 32.5521 126.023 32.4894 126.049 32.4343L128.012 28.2282C128.041 28.1655 128.131 28.1644 128.161 28.2271L130.195 32.4332C130.221 32.4883 130.181 32.5521 130.12 32.5521ZM108.698 0.0953707H105.761C105.715 0.0953707 105.678 0.132117 105.678 0.178587V7.28311C105.678 7.3285 105.641 7.36525 105.594 7.36525H97.6241C97.5787 7.36525 97.5409 7.3285 97.5409 7.28311V0.178587C97.5409 0.133197 97.5041 0.0953707 97.4587 0.0953707H94.4964C94.451 0.0953707 94.4142 0.132117 94.4142 0.178587V17.8059C94.4142 17.8513 94.451 17.8891 94.4964 17.8891H97.4587C97.5041 17.8891 97.5409 17.8524 97.5409 17.8059V10.3707C97.5409 10.3253 97.5777 10.2875 97.6241 10.2875H105.595C105.642 10.2875 105.679 10.3242 105.679 10.3707V17.8059C105.679 17.8513 105.715 17.8891 105.762 17.8891H108.699C108.745 17.8891 108.782 17.8524 108.782 17.8059V0.178587C108.78 0.132117 108.744 0.0953707 108.698 0.0953707ZM86.7013 21.7461C86.6711 21.6845 86.5835 21.6856 86.5532 21.7472L77.9916 39.4696C77.9646 39.5247 78.0046 39.5885 78.0662 39.5885H81.2437C81.2762 39.5885 81.3053 39.5701 81.3183 39.5409L83.0925 35.4635C83.1055 35.4343 83.1346 35.4159 83.1671 35.4159H90.0367C90.068 35.4159 90.0972 35.4343 90.1113 35.4624L91.9589 39.542C91.973 39.5712 92.0011 39.5885 92.0335 39.5885H95.3851C95.4467 39.5885 95.4867 39.5237 95.4597 39.4685L86.7013 21.7461ZM88.5869 32.5521H84.5899C84.5293 32.5521 84.4893 32.4894 84.5153 32.4343L86.4786 28.2282C86.5078 28.1655 86.5975 28.1644 86.6278 28.2271L88.6615 32.4332C88.6874 32.4883 88.6474 32.5521 88.5869 32.5521ZM108.579 21.7948H93.9937C93.9483 21.7948 93.9115 21.8315 93.9115 21.878V24.651C93.9115 24.6964 93.9483 24.7343 93.9937 24.7343H99.6318C99.6772 24.7343 99.7151 24.771 99.7151 24.8164V39.5064C99.7151 39.5517 99.7518 39.5896 99.7972 39.5896H102.776C102.821 39.5896 102.859 39.5528 102.859 39.5064V24.8164C102.859 24.771 102.896 24.7343 102.942 24.7343H108.58C108.626 24.7343 108.663 24.6975 108.663 24.651V21.878C108.662 21.8326 108.625 21.7948 108.579 21.7948Z"
    fill="#000200"></path>
</svg>
