<svg xmlns="http://www.w3.org/2000/svg" viewBox="0 0 274.59 102.49">
  <defs>
    <style>.cls-1,.cls-2{fill:#28559a;}.cls-2{fill-rule:evenodd;}</style>
  </defs>
  <g id="Layer_2" data-name="Layer 2">
    <g id="Layer_1-2" data-name="Layer 1">
      <path class="cls-1"
        d="M215.31,56.56H233v5.93h-1a9.85,9.85,0,0,1-2-2.32,10.08,10.08,0,0,1-1.21-2.79h-5.45a.55.55,0,0,0-.54.55V78.25a.52.52,0,0,0,.38.5l1.6.39v.5h-9.4v-.5l1.59-.39a.51.51,0,0,0,.39-.5V58a.57.57,0,0,0-.44-.55l-1.54-.39Z" />
      <path class="cls-1"
        d="M212.9,56.56V62.5h-1a9.47,9.47,0,0,1-1.35-1.39,9.86,9.86,0,0,1-1.78-3.39.47.47,0,0,0-.45-.34H206V78.25a.51.51,0,0,0,.39.5l1.59.4v.49h-9.39v-.49l1.59-.4a.52.52,0,0,0,.39-.5V57.38H198.2a.47.47,0,0,0-.45.34A9.91,9.91,0,0,1,196,61.11a9,9,0,0,1-1.35,1.39h-1V56.56Z" />
      <path class="cls-1"
        d="M145.88,78.81h-3.14V57.93a.49.49,0,0,1,.38-.47l1.6-.41v-.49H127.41v.49l1.88.54a.56.56,0,0,1,.41.57l-.64,13.24a10.79,10.79,0,0,1-1.84,5.7,8.74,8.74,0,0,1-1.42,1.55.72.72,0,0,1-.47.16H123v.83h0v5.11h1a9.73,9.73,0,0,0,2-2.33,9.56,9.56,0,0,0,1.2-2.78h14.48a9.76,9.76,0,0,0,1.19,2.78,10,10,0,0,0,2,2.33h1V79.64h0Zm-8.58,0H126.75a6.85,6.85,0,0,0,1.55-1.71,11,11,0,0,0,1.75-5.7l.66-14h6.59Z" />
      <path class="cls-1"
        d="M147,79.17l2.33-.86a.73.73,0,0,0,.43-.41l8.94-21.34h1l9.28,21.83a.67.67,0,0,0,.43.39l1.34.39v.49h-4a4.77,4.77,0,0,1-2.8-.76,4.67,4.67,0,0,1-1.62-2L160.64,73h-7.88l-2,4.91a.32.32,0,0,0,.18.42l2.17.85v.49H147Zm6.13-7h7.22l-3.62-8.56Z" />
      <path class="cls-1"
        d="M171.78,79.17l2.33-.86a.75.75,0,0,0,.43-.41l8.94-21.34h1l9.28,21.83a.65.65,0,0,0,.43.39l1.34.39v.49h-4a4.75,4.75,0,0,1-2.8-.76,4.59,4.59,0,0,1-1.62-2L185.46,73h-7.88l-2.05,4.91a.32.32,0,0,0,.18.42l2.17.85v.49h-6.1Zm6.13-7h7.22l-3.63-8.56Z" />
      <path class="cls-1"
        d="M228.29,79.17l2.33-.86a.75.75,0,0,0,.43-.41L240,56.56h1l9.28,21.83a.67.67,0,0,0,.43.39l1.34.39v.49h-4a4.77,4.77,0,0,1-2.8-.76,4.59,4.59,0,0,1-1.62-2L242,73h-7.88L232,77.9a.32.32,0,0,0,.18.42l2.17.85v.49h-6.1Zm6.13-7h7.22L238,63.62Z" />
      <path class="cls-1"
        d="M253.42,79.29a3,3,0,0,1-.16-4.15,2.56,2.56,0,0,1,.74-.54,2.66,2.66,0,0,1,1.14-.24,2.52,2.52,0,0,1,1.71.74,2.45,2.45,0,0,1,.65,1.46,3.24,3.24,0,0,1-1,2.58,3.36,3.36,0,0,0,1.86-2,16.51,16.51,0,0,0,.94-5.75l.65-13.4a.38.38,0,0,0-.27-.37l-2-.58v-.49h17v.49l-1.61.4a.49.49,0,0,0-.36.47V78.26a.5.5,0,0,0,.38.49l1.59.39v.5H265.2v-.5l1.59-.39a.5.5,0,0,0,.38-.49V57.38h-6.26l-.66,14q-.27,4.71-1.45,6.72a3.46,3.46,0,0,1-3,2A3.41,3.41,0,0,1,253.42,79.29Z" />
      <path class="cls-1"
        d="M181.22,44.83v-.5l1.6-.4a.48.48,0,0,0,.37-.48V23.1a.46.46,0,0,0-.35-.45l-1.62-.41v-.5h9.39v.5l-1.62.41a.46.46,0,0,0-.35.45V33h7.08V23.1a.46.46,0,0,0-.35-.45l-1.62-.41v-.5h9.39v.5l-1.62.41a.46.46,0,0,0-.35.45V43.45a.48.48,0,0,0,.37.48l1.6.4v.5h-9.39v-.5l1.6-.4a.48.48,0,0,0,.37-.48V33.78h-7.08v9.67a.48.48,0,0,0,.37.48l1.6.4v.5Z" />
      <path class="cls-1"
        d="M253.42,44.48a3,3,0,0,1-.16-4.15,2.56,2.56,0,0,1,.74-.54,2.66,2.66,0,0,1,1.14-.24,2.52,2.52,0,0,1,1.71.74,2.45,2.45,0,0,1,.65,1.46,3.24,3.24,0,0,1-1,2.58,3.36,3.36,0,0,0,1.86-2,16.53,16.53,0,0,0,.94-5.76l.65-13.39a.38.38,0,0,0-.27-.37l-2-.58v-.5h17v.5l-1.61.4a.49.49,0,0,0-.36.47V43.45a.48.48,0,0,0,.38.48l1.59.4v.5H265.2v-.5l1.59-.4a.48.48,0,0,0,.38-.48V22.57h-6.26l-.66,14q-.27,4.72-1.45,6.73a3.46,3.46,0,0,1-3,2A3.41,3.41,0,0,1,253.42,44.48Z" />
      <path class="cls-1"
        d="M129.1,25.87V43a.53.53,0,0,0,.34.48l2.3.86v.5h-6.26v-.5l2.3-.86a.53.53,0,0,0,.34-.48V23.11a.49.49,0,0,0-.37-.47l-1.61-.4v-.5h4.12a4.67,4.67,0,0,1,2.72.71,5.76,5.76,0,0,1,1.73,2.1L141.9,38.3l5.51-13.75a4.5,4.5,0,0,1,1.51-2.13,5.15,5.15,0,0,1,2.94-.68h3.46v.5l-1.62.4a.49.49,0,0,0-.36.47V43.44a.52.52,0,0,0,.39.5l1.59.39v.5h-9.4v-.5l1.59-.39a.52.52,0,0,0,.39-.5V25.87L140.28,44.8H139Z" />
      <path class="cls-1"
        d="M156.4,44.34l2.33-.86a.79.79,0,0,0,.43-.41l8.94-21.35h1l9.28,21.84a.65.65,0,0,0,.43.38l1.34.4v.49h-4a4.77,4.77,0,0,1-2.8-.77,4.54,4.54,0,0,1-1.62-2l-1.68-3.9H162.2l-2,4.9a.31.31,0,0,0,.18.42l2.17.86v.49h-6.1Zm6.13-7h7.22l-3.63-8.56Z" />
      <path class="cls-1"
        d="M228.22,44.36l2.33-.86a.73.73,0,0,0,.43-.41l9-21.35h1l9.27,21.84a.69.69,0,0,0,.43.39l1.34.39v.49h-4a4.77,4.77,0,0,1-2.8-.76,4.64,4.64,0,0,1-1.61-2l-1.69-3.91H234L232,43.09a.32.32,0,0,0,.18.42l2.17.85v.49h-6.1Zm6.13-7h7.22L238,28.81Z" />
      <path class="cls-1"
        d="M227.14,44H224V23.12a.51.51,0,0,1,.38-.48l1.6-.4v-.5h-17.3v.5l1.88.54a.56.56,0,0,1,.4.57l-.64,13.24a10.79,10.79,0,0,1-1.84,5.7,8.74,8.74,0,0,1-1.42,1.55.72.72,0,0,1-.47.16h-2.37v.83h0v5.11h1a9.93,9.93,0,0,0,3.23-5.11h14.48a9.93,9.93,0,0,0,3.23,5.11h1V44.83h0Zm-8.57,0H208a7.07,7.07,0,0,0,1.56-1.71,11.09,11.09,0,0,0,1.74-5.7l.66-14h6.6Z" />
      <path class="cls-2"
        d="M56.86,23.78H57c6.25-10.21,3-14.53,7.86-19.9,4.36-4.59,11.07.5,8.36,4.21-1.48,1.73-3,2.16-4.56.88-1.41-1.34-1.47-3,0-4.19a5.63,5.63,0,0,0-2.86,5.48A37,37,0,0,1,64.22,26l.24.11c8-8.12,6-12.95,11.88-16.9,5.27-3.39,10.51,3.08,7,6C81.55,16.58,80,16.64,78.79,15c-1-1.62-.71-3.22,1-4a5.55,5.55,0,0,0-4,4.58,36.78,36.78,0,0,1-5.07,14.62l.1.09c9.56-6.48,8.52-11.63,15-14.41,5.83-2.31,9.73,5.05,5.76,7.25-2,.95-3.56.71-4.46-1.1-.71-1.79-.08-3.3,1.73-3.76A5.57,5.57,0,0,0,84,22a36.28,36.28,0,0,1-8.3,13.92l.07.1c10.84-4,11-9.3,18-10.46,6.2-.87,8.26,7.2,3.88,8.41-2.21.43-3.63-.15-4.07-2.13-.27-1.9.7-3.22,2.57-3.25a5.59,5.59,0,0,0-5.59,2.48A36.4,36.4,0,0,1,79,42.79h0c11.63-.94,13.23-6,20.31-5.19,6.2.84,6,9.16,1.46,9.14-2.25-.18-3.45-1.13-3.34-3.15s1.54-2.91,3.35-2.43a5.56,5.56,0,0,0-6.05.87,36.47,36.47,0,0,1-14.23,8.12c10.88,1.3,13.57-3,20.15-.76,5.88,2.17,3.87,10.25-.56,9.24C98,58,97,56.79,97.52,54.84s2.14-2.5,3.8-1.64a5.55,5.55,0,0,0-6.09-.47,36.64,36.64,0,0,1-14.42,4.73c9.9,4.23,13.7.95,19.32,5,5,3.77.77,10.93-3.19,8.7-1.87-1.26-2.46-2.67-1.37-4.38,1.15-1.54,2.76-1.79,4.1-.49A5.57,5.57,0,0,0,94,64.06a36.6,36.6,0,0,1-15.36.36c8.27,5.87,12.62,3.78,17.06,8.86,4,4.82-1.78,10.81-5.11,7.72-1.53-1.65-1.78-3.16-.33-4.57,1.48-1.23,3.11-1.1,4.11.47a5.57,5.57,0,0,0-5-3.45,36.51,36.51,0,0,1-15.8-3.56c6.71,8.61,11.65,7.5,14.67,13.76,2.59,5.7-4.57,9.95-7,6.09-1-2-.88-3.52.9-4.5,1.75-.8,3.28-.24,3.83,1.54a5.55,5.55,0,0,0-4-4.66,36.59,36.59,0,0,1-14-7.37c4.28,9.93,9.31,10.16,10.62,17,1.05,6.18-7,8.46-8.29,4.11-.49-2.2,0-3.63,2-4.12,1.9-.32,3.24.61,3.32,2.47A5.58,5.58,0,0,0,73,88.64a36.54,36.54,0,0,1-11.7-10.75l-.16,0C62.56,88.38,67.23,90,66.64,96.83c-.69,6.23-9,6.23-9.11,1.69.13-2.26,1-3.48,3.07-3.42,1.92.21,2.95,1.47,2.51,3.29a5.56,5.56,0,0,0-1-6A36.5,36.5,0,0,1,54,79.29h-.24c-1.57,10.48,2.49,13.35,0,19.75a5.23,5.23,0,0,1-4.91,3.44c-2.6,0-5-1.84-4.3-4.37.76-2.13,2-3.05,3.91-2.42,1.77.73,2.41,2.24,1.48,3.86a5.57,5.57,0,0,0,.72-6.07A36.61,36.61,0,0,1,46.47,78.7l-.2,0C42.21,88.55,45.51,92.3,41.58,98c-3.7,5.06-10.92.91-8.73-3.07,1.23-1.89,2.63-2.5,4.36-1.43,1.55,1.13,1.82,2.74.54,4.1a5.59,5.59,0,0,0,2.12-5.74,36.59,36.59,0,0,1-.49-15.69l-.11-.06c-6.72,8.62-4.44,13.15-9.78,17.6-4.9,3.91-10.76-2-7.61-5.27,1.69-1.49,3.21-1.71,4.59-.23,1.2,1.51,1,3.13-.56,4.1a5.56,5.56,0,0,0,3.55-5,36.76,36.76,0,0,1,3.4-14.72c-8.34,6.25-7.55,11.1-13.79,13.86-5.78,2.39-9.79-4.91-5.85-7.17,2-1,3.55-.76,4.47,1,.73,1.78.12,3.29-1.68,3.79a5.59,5.59,0,0,0,4.8-3.8A36.72,36.72,0,0,1,28.25,67c-9.77,4.24-10,9.22-16.79,10.51-6.18,1-8.45-7-4.1-8.29,2.2-.49,3.63,0,4.12,2,.32,1.89-.61,3.23-2.48,3.31a5.57,5.57,0,0,0,5.52-2.62,36.88,36.88,0,0,1,9.79-11c-10,1.7-11.6,6.27-18.33,5.81-6.24-.57-6.4-8.9-1.86-9.07,2.26.09,3.5,1,3.47,3s-1.41,3-3.24,2.58a5.56,5.56,0,0,0,6-1.14A36.89,36.89,0,0,1,23,53.79C12.74,52.56,10,56.6,3.56,54.28-2.28,52-.13,44,4.28,45.05c2.14.71,3.09,1.91,2.51,3.85S4.6,51.36,3,50.47A5.55,5.55,0,0,0,9.05,51a36.5,36.5,0,0,1,15.22-4.52c-10.33-4.66-14.18-1.18-19.89-5.29-5-3.78-.74-10.93,3.21-8.68C9.46,33.81,10,35.22,9,36.93c-1.16,1.53-2.77,1.78-4.11.47a5.57,5.57,0,0,0,5.7,2.21,36.31,36.31,0,0,1,16.48,0c-8.92-7.44-13.59-5-18.07-10.5-3.85-4.95,2.13-10.74,5.36-7.54,1.47,1.71,1.67,3.22.17,4.59-1.52,1.18-3.14,1-4.09-.62a5.57,5.57,0,0,0,4.93,3.62,36.53,36.53,0,0,1,15.45,4c-6.61-8.77-11.58-7.72-14.51-14-2.51-5.75,4.71-9.89,7-6,1,2,.83,3.54-1,4.49-1.76.77-3.29.19-3.82-1.6a5.58,5.58,0,0,0,3.89,4.72,36.45,36.45,0,0,1,14.07,7.72l0,0C32.13,18.09,27,18,25.61,11.11c-1.09-6.16,6.9-8.5,8.26-4.17.51,2.2,0,3.63-2,4.14-1.9.34-3.24-.58-3.34-2.45a5.57,5.57,0,0,0,2.67,5.5A36.67,36.67,0,0,1,42.44,24c-1.13-10.31-5.68-12.11-4.87-18.87.89-6.2,9.21-5.92,9.15-1.38-.2,2.25-1.16,3.44-3.18,3.31s-2.89-1.57-2.4-3.37A5.57,5.57,0,0,0,42,9.77,36.69,36.69,0,0,1,49.63,23c2.11-10.45-1.83-13.51,1-19.79A5.25,5.25,0,0,1,55.47,0c2.68,0,5.12,2,4.28,4.59-.85,2.08-2.12,2.94-4,2.22s-2.3-2.35-1.3-3.93a5.56,5.56,0,0,0-1,6,36.69,36.69,0,0,1,3.42,14.87Zm-.27,53.41c1.2-.27,2.41-.53,3.58-.82a26,26,0,1,0-7.62,1.13,27,27,0,0,0,4-.31Z" />
      <path class="cls-2"
        d="M31.11,35.91c.8,1.18.88,1.91,1,3.71a4.83,4.83,0,0,0,1.4,3.25c-3.13,0-4,2.91-6.79,3.05a5.47,5.47,0,0,1,1.6,1.39c.43.61.71,1.23,1.12,1.87A5,5,0,0,0,33,51.67a4,4,0,0,0-3.39,2.57c-.65,1.29-1.22,2.66-2.57,3.34A5.88,5.88,0,0,1,30.38,59a5,5,0,0,0,3.53,1.32,4.65,4.65,0,0,0-1.27,3.45,5.63,5.63,0,0,1-.93,3.78c2.57-.82,5.33,1.06,7.83-.26a11,11,0,0,0-.17,1.51c0,1.94,1.81,3.59,1.21,5.64a3.79,3.79,0,0,1,1.67-1A17.52,17.52,0,0,1,44.37,73a5.27,5.27,0,0,0,2-.63,3.62,3.62,0,0,0,.77-.56,4,4,0,0,0,.57-.75,3,3,0,0,0,.57,1.7,6.08,6.08,0,0,0,.52.68,15.77,15.77,0,0,0,1.31,1.09,5.35,5.35,0,0,1,2.21,2.63c.08-1,1.57-2.29,2.28-2.82A6.59,6.59,0,0,0,56,73.2a3.37,3.37,0,0,0,.91-2.36,4.45,4.45,0,0,0,.62.77,4,4,0,0,0,.79.55,6.11,6.11,0,0,0,2,.59,12.53,12.53,0,0,1,2.24.43,8.54,8.54,0,0,1,.92.41,6.34,6.34,0,0,1,.7.56c0-.38-.13-.37-.13-.73v-.2c0-2.07,1.27-3.16,1.27-5a4.82,4.82,0,0,0-.2-1.26,3.92,3.92,0,0,0,1.86.53h.47c2,0,3.42-1.06,5.46-.45-1.4-1.89-.48-4.13-1.53-6a5.09,5.09,0,0,0-1.27-1.47l.86.08c2.42.25,4.17-3.37,6.6-3.37a8.19,8.19,0,0,1-2.71-2.9c-.81-1.21-1.66-2.37-3.25-2.46a3.93,3.93,0,0,0,1.94-1,6.94,6.94,0,0,0,1.19-1.6c.74-1.21,1.21-2.46,2.64-3-2.77,0-4.64-4-7.67-3,.28-.43.78-.69,1.15-1.38a4.6,4.6,0,0,0,.45-2.08,11.92,11.92,0,0,1,0-2.33,7,7,0,0,1,.77-1.84c-2,.73-3.53-.15-5.51-.26a4.7,4.7,0,0,0-2.21.66l.16-.86,0-.39c0-1.63-1.52-3.31-1.52-4.72v-.39l.08-.73a6.89,6.89,0,0,1-1.67,1,18.73,18.73,0,0,1-2.34.54,4.42,4.42,0,0,0-2.54,1.23c-.16.18-.45.61-.58.75,0-1.63-1.3-2.61-2.25-3.33a11.56,11.56,0,0,1-1.56-1.23,3.86,3.86,0,0,1-1.05-1.61c-.32,2.44-4.26,3.17-4.26,6.3-.1-.07-.43-.53-.62-.71-1.82-1.75-5.09-.46-6.7-2.34.5,1.05-1,3.87-1,6a3,3,0,0,0,.26,1.19,3.24,3.24,0,0,0-1.59-.46c-2.08,0-4,.92-6.13.66Zm16.38-4.57c0-2,3.25-3.38,3.7-4.42a10.75,10.75,0,0,0,2.34,1.91,3.38,3.38,0,0,1,1.88,2.77,7.17,7.17,0,0,1-.34,1.86C52.85,33,51.92,33,51.48,30.4c-.3,2.55-1.21,2.8-3.46,3.32a6.54,6.54,0,0,1-.53-2.38Zm8.58,2.38a3.48,3.48,0,0,1,2.06-3.31A12.86,12.86,0,0,1,60.39,30c.21,0,.85-.2,1-.26s.53-.2,1-.39c0,1.82,1.58,3,1.58,4.58A3.9,3.9,0,0,1,62.4,36.7c-1.92-1-2.33-2.22-1.6-4.28-1.55,2.15-2.51,1.82-4.73,1.3Zm-15.85-4c1.84.69,5,.24,6.14,2.17A6.37,6.37,0,0,1,47,33.86c-1.78.4-2.77,1.2-4.6-.89.61,2,.46,2.88-1.59,4.37-3.09-3.34-.88-4.9-.61-7.58Zm23,7.54A3.72,3.72,0,0,1,66.51,35c1.43,0,3.52.9,4.34.65a3,3,0,0,0-.27,1.53c0,1.52.3,2.68-.4,3.71a5.56,5.56,0,0,1-2.59,1.59c-.6-1.73-1.52-2,.46-4.57-2.3,1.48-2.85.65-4.79-.6Zm-26-1.46c1.1,0,2.42,1.34,2.8,2.06-1.18,1.22-2.17,2.32-4.86.84,1.58,1.61,1.77,2.65.93,4.59a14.75,14.75,0,0,1-2-.7,2.61,2.61,0,0,1-1.16-1.44c-.52-1.28-.39-3.17-.77-4.6,1.7,0,3.29-.75,5-.75ZM68.19,43.6a5.51,5.51,0,0,1,2.59-.87c2,0,3.54,2.59,5,2.71a20.54,20.54,0,0,0-1.82,2.88,3.24,3.24,0,0,1-2.55,2H69.72c-.13-2.16.42-3.14,2.59-4-2.52.28-3.32-.38-4.12-2.65ZM28.38,46.25c1.65-.12,2.78-2.79,4.93-2.79a9.18,9.18,0,0,1,2.53.93c-.12,2.11-2.59,3-4.4,2.9,2,1,2.94,1.52,3.09,3.66L32.84,51c-2.49,0-3-3.32-4.46-4.77Zm16.18,4.5c0-3.62,3.29-7.09,6.85-7.09h.87a7.36,7.36,0,0,1,7,7v.73a7.38,7.38,0,0,1-6.86,6.89h-.86a7,7,0,0,1-5-2.26,9.35,9.35,0,0,1-1.46-2.2,7.26,7.26,0,0,1-.55-3Zm25.15.67a4,4,0,0,1,4.36,1.84,15,15,0,0,0,2.06,2.68c-2.12.5-2.89,3-5.41,3a5.36,5.36,0,0,1-2.2-.73c1-2.17,1.59-2.64,4.2-2.71-2.72-.53-3-1.78-3-4.11Zm-41.08,5.7a11.13,11.13,0,0,0,1.69-2.85,3.17,3.17,0,0,1,2.52-2h1.67c0,2.52-.36,3.12-2.86,4.44,2.31-.21,3.52.07,4.46,2.12a10.9,10.9,0,0,1-2.47,1c-2,0-3.2-2.29-5-2.71ZM68,59.29c.45.22,1.48.61,1.8.82A2.67,2.67,0,0,1,71,61.51a7.55,7.55,0,0,1,.38,2.4,5.93,5.93,0,0,0,.31,2.14c-1.64,0-3.09.7-4.75.7-1.44,0-2.36-1.15-3-2,1.86-1.32,2.55-1.64,4.79-.51-1.92-2.34-1.16-2.6-.61-4.94ZM33.11,66.65a7.19,7.19,0,0,0,.27-2.44,6.44,6.44,0,0,1,.21-2.31c.31-1,1.78-1.87,2.91-2.13.94,2.36,1.25,3-.54,5.17,2.15-1.07,2.86-1.11,4.71.17a5.56,5.56,0,0,1-1.15,1.43c-1.6,1.24-4,.26-6.41.11Zm30.08-1.28c.29.33,1.54,1.78,1.54,2.61,0,1.73-1.4,3-1.4,4.71-1.45-.69-2.88-.39-4.24-.88a2.65,2.65,0,0,1-1.51-1.08,6.31,6.31,0,0,1-.77-2.07c2.2-.63,3.46-.88,5,1.43-1.16-2.5-.66-3.3,1.36-4.72ZM47.81,68.85c-.24,1.45-.7,2.74-2.23,3.27-1.22.46-2.65.42-4.18,1-.14-1.57-1.43-3-1.43-4.41a4.44,4.44,0,0,1,1.59-3.07c1.24.72,2.62,1.79,1.51,4.87,1.65-2,2.28-2.32,4.74-1.66Zm8.06.05a9.17,9.17,0,0,1,.4,2.26c0,2.06-3.56,3.08-3.92,4.44-.41-1.32-4-2.33-4-4.5A9.07,9.07,0,0,1,48.82,69c2.46.62,3.06,1,3.69,3.66.46-2.66,1-3.09,3.36-3.74Z" />
    </g>
  </g>
</svg>
