<svg width="130" height="50" viewBox="0 0 130 50" fill="none" xmlns="http://www.w3.org/2000/svg">
  <path
    d="M7.35314 17.0879V0.287889H10.5691L17.7211 12.1439H16.0171L23.0491 0.287889H26.2651L26.2891 17.0879H22.6411L22.6171 5.87989H23.3131L17.6731 15.3119H15.9451L10.1851 5.87989H11.0011V17.0879H7.35314ZM38.5025 17.3759C37.1745 17.3759 35.9425 17.1599 34.8065 16.7279C33.6865 16.2959 32.7105 15.6879 31.8785 14.9039C31.0625 14.1199 30.4225 13.1999 29.9585 12.1439C29.5105 11.0879 29.2865 9.93589 29.2865 8.68789C29.2865 7.43989 29.5105 6.28789 29.9585 5.23189C30.4225 4.17589 31.0705 3.25589 31.9025 2.47189C32.7345 1.68789 33.7105 1.07989 34.8305 0.647889C35.9505 0.21589 37.1665 -0.000109673 38.4785 -0.000109673C39.8065 -0.000109673 41.0225 0.21589 42.1265 0.647889C43.2465 1.07989 44.2145 1.68789 45.0305 2.47189C45.8625 3.25589 46.5105 4.17589 46.9745 5.23189C47.4385 6.27189 47.6705 7.42389 47.6705 8.68789C47.6705 9.93589 47.4385 11.0959 46.9745 12.1679C46.5105 13.2239 45.8625 14.1439 45.0305 14.9279C44.2145 15.6959 43.2465 16.2959 42.1265 16.7279C41.0225 17.1599 39.8145 17.3759 38.5025 17.3759ZM38.4785 14.0639C39.2305 14.0639 39.9185 13.9359 40.5425 13.6799C41.1825 13.4239 41.7425 13.0559 42.2225 12.5759C42.7025 12.0959 43.0705 11.5279 43.3265 10.8719C43.5985 10.2159 43.7345 9.48789 43.7345 8.68789C43.7345 7.88789 43.5985 7.15989 43.3265 6.50389C43.0705 5.84789 42.7025 5.27989 42.2225 4.79989C41.7585 4.31989 41.2065 3.95189 40.5665 3.69589C39.9265 3.43989 39.2305 3.31189 38.4785 3.31189C37.7265 3.31189 37.0305 3.43989 36.3905 3.69589C35.7665 3.95189 35.2145 4.31989 34.7345 4.79989C34.2545 5.27989 33.8785 5.84789 33.6065 6.50389C33.3505 7.15989 33.2225 7.88789 33.2225 8.68789C33.2225 9.47189 33.3505 10.1999 33.6065 10.8719C33.8785 11.5279 34.2465 12.0959 34.7105 12.5759C35.1905 13.0559 35.7505 13.4239 36.3905 13.6799C37.0305 13.9359 37.7265 14.0639 38.4785 14.0639ZM62.1856 0.287889H66.0736V17.0879H62.1856V0.287889ZM54.5536 17.0879H50.6656V0.287889H54.5536V17.0879ZM62.4736 10.1999H54.2656V6.91189H62.4736V10.1999ZM70.2828 17.0879V0.287889H85.5948V17.0879H81.7308V2.56789L82.6188 3.45589H73.2588L74.1468 2.56789V17.0879H70.2828ZM92.9274 10.0799V7.10389H101.231V10.0799H92.9274ZM95.1354 -0.000109673C96.3994 -0.000109673 97.5594 0.21589 98.6154 0.647889C99.6714 1.06389 100.591 1.66389 101.375 2.44789C102.159 3.23189 102.767 4.15189 103.199 5.20789C103.631 6.26389 103.847 7.42389 103.847 8.68789C103.847 9.95189 103.631 11.1119 103.199 12.1679C102.767 13.2239 102.159 14.1439 101.375 14.9279C100.591 15.7119 99.6714 16.3199 98.6154 16.7519C97.5594 17.1679 96.3994 17.3759 95.1354 17.3759C93.6474 17.3759 92.3034 17.1199 91.1034 16.6079C89.9194 16.0959 88.9274 15.3519 88.1274 14.3759L90.5994 12.0719C91.1914 12.7439 91.8474 13.2479 92.5674 13.5839C93.2874 13.9039 94.0794 14.0639 94.9434 14.0639C95.6634 14.0639 96.3274 13.9359 96.9354 13.6799C97.5594 13.4079 98.0874 13.0399 98.5194 12.5759C98.9674 12.0959 99.3034 11.5279 99.5274 10.8719C99.7674 10.2159 99.8874 9.48789 99.8874 8.68789C99.8874 7.88789 99.7674 7.15989 99.5274 6.50389C99.3034 5.84789 98.9674 5.28789 98.5194 4.82389C98.0874 4.34389 97.5594 3.97589 96.9354 3.71989C96.3274 3.44789 95.6634 3.31189 94.9434 3.31189C94.0794 3.31189 93.2874 3.47989 92.5674 3.81589C91.8474 4.13589 91.1914 4.63189 90.5994 5.30389L88.1274 2.99989C88.9274 2.02389 89.9194 1.27989 91.1034 0.76789C92.3034 0.25589 93.6474 -0.000109673 95.1354 -0.000109673ZM106.892 17.0879V0.287889H122.204V17.0879H118.34V2.56789L119.228 3.45589H109.868L110.756 2.56789V17.0879H106.892ZM12.8641 44.3599V32.4559H7.10414L7.03214 34.9039C6.98414 35.9439 6.91214 36.9279 6.81614 37.8559C6.73614 38.7839 6.60814 39.6319 6.43214 40.3999C6.25614 41.1519 6.02414 41.7919 5.73614 42.3199C5.46414 42.8479 5.12014 43.2239 4.70414 43.4479L0.552137 42.9199C1.12814 42.9359 1.60014 42.7359 1.96814 42.3199C2.35214 41.9039 2.65614 41.3199 2.88014 40.5679C3.10414 39.7999 3.26414 38.9039 3.36014 37.8799C3.47214 36.8559 3.55214 35.7439 3.60014 34.5439L3.79214 29.2879H16.7041V44.3599H12.8641ZM0.000136733 49.5679L0.0241367 42.9199H19.0561V49.5679H15.4561V46.0879H3.60014V49.5679H0.000136733ZM19.8712 46.0879L27.3592 29.2879H31.1992L38.7112 46.0879H34.6312L28.4872 31.2559H30.0232L23.8552 46.0879H19.8712ZM23.6152 42.4879L24.6472 39.5359H33.2872L34.3432 42.4879H23.6152ZM43.7193 46.0879V31.5679L44.6073 32.4559H38.3673V29.2879H52.9353V32.4559H46.6953L47.5593 31.5679V46.0879H43.7193ZM52.6368 46.0879L60.1248 29.2879H63.9648L71.4768 46.0879H67.3968L61.2528 31.2559H62.7888L56.6208 46.0879H52.6368ZM56.3808 42.4879L57.4128 39.5359H66.0528L67.1088 42.4879H56.3808ZM79.0376 29.2879H83.5256L87.0056 34.3759L90.4856 29.2879H95.0456L89.4536 37.3279L95.5016 46.0879H90.9176L87.0056 40.5199L83.1416 46.0879H78.6536L84.6536 37.4959L79.0376 29.2879ZM96.1001 29.2879H100.588L104.068 34.3759L107.548 29.2879H112.108L106.516 37.3279L112.564 46.0879H107.98L104.068 40.5199L100.204 46.0879H95.7161L101.716 37.4959L96.1001 29.2879ZM125.217 46.0879L119.985 37.9999L123.129 36.1039L129.633 46.0879H125.217ZM114.297 46.0879V29.2879H118.161V46.0879H114.297ZM117.033 39.3199V36.0799H122.889V39.3199H117.033ZM123.489 38.1199L119.913 37.6879L125.361 29.2879H129.465L123.489 38.1199Z"
    fill="black" />
</svg>
