<svg width="140" height="40" viewBox="0 0 140 40" fill="none" xmlns="http://www.w3.org/2000/svg">
  <g clip-path="url(#clip0_2495_6919)">
    <path fill-rule="evenodd" clip-rule="evenodd"
      d="M38.4637 6.92687C39.4567 12.1587 39.481 26.7885 38.4637 32.2383C37.6401 36.6466 36.7197 37.5428 32.3356 38.3663C26.8858 39.3836 12.2561 39.3594 7.02422 38.3663C2.61592 37.5428 1.71972 36.6224 0.896193 32.2383C-0.0968866 27.0065 -0.121108 12.3767 0.896193 6.92687C1.71972 2.51857 2.64014 1.62237 7.02422 0.798842C12.474 -0.218459 27.1038 -0.194238 32.3356 0.798842C36.7197 1.62237 37.6159 2.51857 38.4637 6.92687Z"
      fill="#E33255" />
    <path fill-rule="evenodd" clip-rule="evenodd"
      d="M20.346 26.4501C21.4602 26.4501 22.5502 26.2805 23.5675 25.9656C27.6125 24.7061 30.6402 21.0971 31.0519 16.7373C31.0761 16.3982 31.1004 16.0591 31.1004 15.6957C31.1004 9.76147 26.2803 4.94141 20.346 4.94141C14.4118 4.94141 9.59171 9.76147 9.59171 15.6957V27.6611V32.2632C9.59171 35.3151 14.9204 35.3151 14.9204 32.2632C14.9204 26.7407 14.9204 21.2182 14.9204 15.6957C14.9204 13.3947 16.3737 11.4085 18.4083 10.6334C21.8478 9.32549 25.7232 11.8203 25.7232 15.6957C25.7232 18.675 23.301 21.0971 20.3218 21.0971C20.1765 21.0971 20.0312 21.0971 19.8858 21.0971C16.9066 21.0971 16.8824 26.1352 19.6436 26.4258C19.8858 26.4501 20.128 26.4501 20.346 26.4501Z"
      fill="white" />
    <path fill-rule="evenodd" clip-rule="evenodd"
      d="M20.346 26.4489C21.4602 26.4489 22.5502 26.2794 23.5675 25.9645C27.6125 24.705 30.6401 21.096 31.0519 16.7361C31.0761 16.5181 31.0761 16.3001 31.1003 16.0821V16.0579C31.1003 15.9853 31.1003 15.9126 31.1003 15.8399V15.7915C31.1003 15.7188 31.1003 15.6704 31.1003 15.5977V15.5008V15.4282C31.1003 15.3555 31.1003 15.3071 31.1003 15.2344C30.6644 15.2344 28.7509 15.2102 28.6055 16.7119C28.436 18.3832 27.8062 19.8849 26.7889 21.1202C25.7716 22.3797 24.4152 23.3244 22.8408 23.8088C22.4533 23.9299 22.0415 24.0268 21.6298 24.0752C21.4602 24.0995 21.3149 24.1237 21.1453 24.1237C20.0554 24.1479 19.7647 24.5112 19.4498 24.8019C18.9412 25.2863 18.7232 25.4559 18.3114 25.4801C18.2145 25.4801 18.1176 25.4559 18.045 25.4074C18.3841 26.0372 18.9412 26.5216 19.7405 26.5943C19.8858 26.4489 20.128 26.4489 20.346 26.4489Z"
      fill="#FEEDED" />
    <path fill-rule="evenodd" clip-rule="evenodd"
      d="M14.2664 33.8861C14.6782 33.4986 14.9446 32.9657 14.9446 32.2875V23.7373V23.4709V23.2045V22.938V22.6716V22.4051V22.1387V21.8723V21.6058V21.3394V21.073V20.8065V20.5401V20.2737V20.1041V19.8377V19.5712V19.3048V19.0384V18.7719V18.5055V18.2391V17.9726V17.7062V17.4397V17.1733V16.9069V16.6404V16.4709V16.2287V15.9622V15.72C14.9446 15.6716 14.9446 15.6231 14.9446 15.5747C14.9446 15.3083 14.9689 15.066 15.0173 14.8238V14.7996C15.0173 14.7512 15.0415 14.7027 15.0415 14.6543V14.6301C15.0415 14.6058 15.0658 14.5574 15.0658 14.5332V14.4847C15.0658 14.4605 15.09 14.4363 15.09 14.4121C15.09 14.3878 15.1142 14.3636 15.1142 14.3152L15.1384 14.2425L15.1626 14.1699L15.1869 14.0972C15.1869 14.073 15.2111 14.0487 15.2111 14.0245C15.2111 14.0003 15.2353 13.9761 15.2353 13.9519L15.2595 13.9034C15.2595 13.8792 15.2837 13.8308 15.2837 13.8065V13.7823C15.8408 12.3532 16.9792 11.2148 18.4083 10.6577C20.2249 9.97954 22.1384 10.3429 23.5675 11.3844C23.5917 11.4086 23.6401 11.4328 23.6644 11.457L23.7128 11.4813L23.7613 11.5297C23.7855 11.5539 23.8097 11.5782 23.8339 11.6024L23.8824 11.6266C23.9066 11.6508 23.9308 11.675 23.9792 11.6993L24.0035 11.7235L24.1004 11.8204C24.1488 11.8446 24.173 11.893 24.2215 11.9173C24.6817 12.4017 25.0692 12.9588 25.3356 13.5643C25.5536 14.0487 25.6747 14.6058 25.7232 15.1387C27.7578 15.1387 28 13.1283 27.1523 11.6993C26.5467 10.682 25.7232 9.80999 24.7786 9.15601C23.4706 8.25982 21.9204 7.77539 20.3218 7.77539C19.4014 7.77539 18.4568 7.94494 17.5363 8.28404C16.0346 8.86535 14.7267 9.88265 13.8305 11.1906C12.9585 12.4744 12.4256 14.0245 12.4256 15.6716V30.2771C12.4256 31.0522 12.4014 31.4882 13.0796 31.9968C13.1038 32.0211 13.128 32.0453 13.1523 32.0453C13.6609 32.4813 14.5329 33.0626 14.2664 33.8861Z"
      fill="#FEEDED" />
    <path fill-rule="evenodd" clip-rule="evenodd"
      d="M52.9723 31.9228C52.9723 32.383 52.5848 32.7705 52.1246 32.7705H50.5017C50.0415 32.7705 49.654 32.383 49.654 31.9228C49.654 25.4314 49.654 20.8051 49.654 14.338C49.654 13.248 50.5744 12.5456 51.9066 11.9885C55.6367 10.4383 59.7301 10.2446 62.2249 13.0785C65.4706 16.7601 64.9862 24.1961 60.8201 27.03C58.8097 28.3864 55.1765 28.556 52.9723 27.6356V31.9228ZM125.298 24.8501C123.796 25.4799 121.979 25.6252 120.405 25.165C119.799 24.9954 119.291 24.729 118.879 24.3657C117.934 23.5664 117.547 22.1858 117.353 20.9989H122.682C124.547 20.9989 125.952 20.6356 126.896 19.8847C127.841 19.1338 128.325 17.9954 128.325 16.4453C128.349 13.03 124.91 10.9712 121.713 10.9954C121.132 10.9954 120.574 11.0439 120.042 11.1408C118.128 11.4799 116.699 12.4003 115.73 13.684C114.446 15.3553 113.865 17.9712 114.035 20.4902C114.228 23.5906 115.464 26.4972 118.516 27.6356C120.889 28.5318 124.329 28.2896 126.581 27.1511C126.872 27.0058 127.187 26.812 127.356 26.5941C127.744 26.1096 127.138 25.0681 126.824 24.6321C126.436 24.1719 126.048 24.511 125.298 24.8501ZM122.197 18.2134H117.353C117.547 16.5179 118.249 14.8709 119.896 14.12C121.713 13.3207 124.498 13.9262 125.007 16.0335C125.467 18.0197 123.699 18.2134 122.197 18.2134ZM102.772 27.3207C102.772 27.7809 102.384 28.1684 101.924 28.1684H100.277C99.8166 28.1684 99.4291 27.7809 99.4291 27.3207C99.4291 19.9332 99.4291 14.5802 99.4291 7.21689C99.4291 6.75668 99.8166 6.36914 100.277 6.36914H101.9C102.36 6.36914 102.747 6.75668 102.747 7.21689C102.747 11.601 102.747 13.9505 102.747 18.3345V18.383C103.377 18.1165 103.958 17.8259 104.516 17.4626C105.121 17.075 105.678 16.639 106.211 16.1304C106.72 15.646 107.228 15.0162 107.713 14.338C108.343 13.466 108.851 12.5456 109.336 11.601C109.554 11.1892 109.602 11.0923 110.087 11.0197C110.571 10.9228 112.121 10.9954 112.533 11.2861C112.63 11.3588 112.727 11.4799 112.727 11.6252C112.751 11.9159 112.194 12.9332 112.048 13.2238C111.564 14.12 111.007 15.0162 110.377 15.8639C109.651 16.8328 108.851 17.729 108.003 18.4799C108.488 19.6425 109.19 20.8293 109.965 21.992C111.055 23.6148 112.218 24.9712 113.429 26.4972C113.623 26.7394 113.478 27.0785 113.332 27.248C112.993 27.7082 112.388 28.12 111.83 28.2653C111.54 28.338 111.37 28.2653 111.249 28.1927C110.522 27.7809 109.917 27.1027 109.384 26.4729C107.955 24.7774 106.429 22.3069 106.042 21.556C105.92 21.338 105.824 21.1442 105.702 20.9262C105.606 20.7567 105.533 20.5629 105.46 20.3934C105.024 20.6356 104.588 20.8778 104.128 21.0958C103.668 21.3138 103.183 21.5075 102.699 21.6771C102.772 23.5179 102.772 25.4314 102.772 27.3207ZM134.817 22.7913C134.817 23.2515 134.865 23.639 134.938 23.9539C135.01 24.293 135.132 24.5595 135.253 24.7532C135.398 24.9712 135.592 25.1165 135.81 25.2377C136.512 25.5768 137.505 25.3588 138.183 25.0681L138.474 24.947C138.644 24.8743 138.789 24.8017 139.104 25.1165C139.443 25.4556 139.588 25.8916 139.734 26.3518C139.83 26.6909 139.734 26.9332 139.467 27.1754C138.571 27.9505 137.336 28.1442 136.173 28.1684C135.398 28.1927 134.623 28.0958 133.993 27.8293C133.46 27.6114 133 27.2723 132.612 26.812C132.225 26.3518 131.958 25.819 131.765 25.1892C131.571 24.5595 131.474 23.8328 131.474 23.0335C131.474 19.7878 131.474 16.5179 131.474 13.2723H130.311C129.657 13.2723 129.488 12.6425 129.488 12.1096C129.488 11.5768 129.682 10.947 130.311 10.947H131.498L131.765 8.16153C131.765 7.70132 132.152 7.31378 132.612 7.31378H133.969C134.429 7.31378 134.817 7.70132 134.817 8.16153V10.947H135.519H137.796C138.45 10.947 138.619 11.5768 138.619 12.1096C138.619 12.6425 138.426 13.2723 137.796 13.2723H135.519H134.817V22.7913ZM73.5848 10.9712C63.6782 10.9712 63.6782 28.1927 73.5848 28.1927H74.6747C84.5813 28.1927 84.5813 10.9712 74.6747 10.9712H73.5848ZM77.1696 14.8224C79.4222 16.7359 79.4222 22.428 77.1696 24.3415C76.2976 25.0923 75.135 25.4314 73.9966 25.4072C72.955 25.383 71.9135 25.0197 71.09 24.3415C68.8374 22.428 68.8374 16.7359 71.09 14.8224C72.7855 13.4176 75.4983 13.4176 77.1696 14.8224ZM91.5087 28.1927C86.5433 28.1927 84.0727 23.8813 84.0727 19.5941C84.0727 15.2826 86.5433 10.9954 91.5087 10.9954H91.9446C92.09 11.0197 92.2595 11.0197 92.4291 11.0439C93.3737 11.0923 94.4637 11.2619 95.4083 11.7705C97.128 12.6667 96.9585 13.03 96.1592 14.2169C95.9412 14.5318 95.8685 14.8467 94.7059 14.338C93.3979 13.7809 91.7509 13.5871 90.3702 14.0958C89.8858 14.2653 89.4256 14.5318 89.0381 14.8709C86.7855 16.7601 86.7855 22.4764 89.0381 24.3657C89.4256 24.7048 89.8858 24.947 90.3702 25.1408C91.7509 25.6494 93.3737 25.4799 94.7059 24.8986C95.8685 24.3899 95.9412 24.7048 96.1592 25.0197C96.9827 26.1823 97.1523 26.5698 95.4083 27.466C94.4637 27.9505 93.3737 28.12 92.4291 28.1927C92.2595 28.1927 92.09 28.2169 91.9446 28.2411H91.5087V28.1927ZM52.9723 14.9678V24.2688C54.4256 25.8674 57.744 25.7221 59.3426 24.3415C61.2803 22.6944 61.6678 17.9712 60.2388 15.5491C58.8097 13.0785 54.9585 13.2723 52.9723 14.9678Z"
      fill="white" />
  </g>
  <defs>
    <clipPath id="clip0_2495_6919">
      <rect width="140" height="39.2388" fill="white" />
    </clipPath>
  </defs>
</svg>

