<?xml version="1.0" encoding="UTF-8"?>
<svg version="1.1" xmlns="http://www.w3.org/2000/svg" width="300" height="223">
  <path
    d="M0 0 C1.20849609 -0.02900391 2.41699219 -0.05800781 3.66210938 -0.08789062 C20.73376644 -0.2067613 36.00360083 6.16694216 48.29296875 18.01953125 C49.41638672 19.15455078 49.41638672 19.15455078 50.5625 20.3125 C51.25988281 20.97636719 51.95726562 21.64023437 52.67578125 22.32421875 C64.66009181 34.54123437 70.17011319 52.02665329 70.8125 68.8125 C70.55003187 87.76853138 63.41913802 105.37707882 50.3125 119.0625 C31.99047408 136.6096517 11.0539686 139.49389016 -13.1640625 139.41015625 C-14.76402746 139.40828751 -16.363993 139.40686577 -17.96395874 139.40586853 C-22.14285913 139.40207921 -26.32172389 139.39228021 -30.50061035 139.38116455 C-34.77774575 139.37087269 -39.054887 139.36635437 -43.33203125 139.36132812 C-51.70053705 139.35065417 -60.06901407 139.33362166 -68.4375 139.3125 C-67.0501805 135.69476667 -65.58940285 132.93172269 -63.1796875 129.88671875 C-62.55449219 129.09072266 -61.92929688 128.29472656 -61.28515625 127.47460938 C-60.63417969 126.65798828 -59.98320313 125.84136719 -59.3125 125 C-58.65378906 124.16404297 -57.99507812 123.32808594 -57.31640625 122.46679688 C-55.69535572 120.41111685 -54.06895664 118.35992407 -52.4375 116.3125 C-52.87320313 115.65765625 -53.30890625 115.0028125 -53.7578125 114.328125 C-66.21284074 95.2411986 -72.22315897 77.06272752 -67.84765625 54.34887695 C-64.1730206 36.94972321 -53.95129927 20.72925406 -38.9375 10.91796875 C-26.14826629 3.1205542 -14.76063614 0.11477944 0 0 Z M-43.4375 27.3125 C-49.89828368 34.57711368 -54.3544962 42.10234999 -57.4375 51.3125 C-57.68242188 52.01246094 -57.92734375 52.71242187 -58.1796875 53.43359375 C-62.63593342 69.09149895 -59.25043099 85.95831816 -51.7109375 99.92480469 C-48.62585117 105.34065679 -44.88999307 109.94289908 -40.4375 114.3125 C-41.78276641 118.14447098 -43.50121723 120.92150302 -46.0625 124.0625 C-48.34364401 126.42039293 -48.34364401 126.42039293 -49.4375 129.3125 C-41.95217715 129.38248645 -34.46688888 129.4355553 -26.9813118 129.46793652 C-23.50418666 129.48349005 -20.02728789 129.50453537 -16.55029297 129.53881836 C-12.53871683 129.57811778 -8.52737269 129.59229421 -4.515625 129.60546875 C-3.28700745 129.62095261 -2.05838989 129.63643646 -0.7925415 129.65238953 C16.16843068 129.65564563 31.09013034 124.02609432 43.5625 112.3125 C55.77275693 99.38134229 61.12395433 84.17277001 61.05249023 66.60131836 C60.63660927 53.78277343 56.32749282 42.54075735 48.5625 32.3125 C47.99015625 31.53519531 47.4178125 30.75789063 46.828125 29.95703125 C38.09801207 19.11900644 24.3023569 11.38789097 10.5625 9.3125 C-10.48235153 8.05447735 -27.877518 12.12577094 -43.4375 27.3125 Z "
    fill="#00C0F2" transform="translate(149.4375,-0.3125)" />
  <path
    d="M0 0 C1.57527466 -0.00024925 1.57527466 -0.00024925 3.18237305 -0.00050354 C4.96937622 -0.01457497 4.96937622 -0.01457497 6.79248047 -0.02893066 C8.08001221 -0.01769669 9.36754395 -0.00646271 10.6940918 0.00511169 C12.02783283 0.00495672 13.36157432 0.00346803 14.6953125 0.0007019 C17.48970463 -0.00068244 20.2835837 0.0118806 23.07788086 0.03465271 C26.65936652 0.06303844 30.23999972 0.06030099 33.82154846 0.0475626 C36.57539142 0.04060676 39.32903741 0.04839341 42.08285522 0.06081963 C44.04545984 0.06753088 46.00809213 0.06319067 47.97070312 0.05871582 C49.7577063 0.07774208 49.7577063 0.07774208 51.58081055 0.09715271 C52.63099365 0.10255569 53.68117676 0.10795868 54.76318359 0.11352539 C57.3815918 0.50120544 57.3815918 0.50120544 59.21704102 1.89389038 C60.73950878 3.9952031 60.81474202 5.35928978 60.8190918 7.93870544 C60.83842773 8.70054138 60.85776367 9.46237732 60.87768555 10.24729919 C60.13545226 13.61949293 59.29909712 14.59211408 56.3815918 16.50120544 C52.78579741 16.98999501 49.25172687 16.87653635 45.6315918 16.75120544 C44.15625977 16.72413513 44.15625977 16.72413513 42.65112305 16.69651794 C40.22695397 16.6494467 37.80477121 16.58371286 35.3815918 16.50120544 C35.3815918 18.15120544 35.3815918 19.80120544 35.3815918 21.50120544 C36.3922168 21.17120544 37.4028418 20.84120544 38.4440918 20.50120544 C42.20401439 19.4563588 45.46600006 18.97410656 49.3815918 19.50120544 C52.26686742 22.77118449 53.10670968 26.1947189 53.3815918 30.50120544 C52.90112305 32.54417419 52.90112305 32.54417419 51.3815918 34.50120544 C48.61851802 35.44754361 46.09205309 36.15375073 43.2565918 36.75120544 C42.50249023 36.92393982 41.74838867 37.09667419 40.97143555 37.27464294 C39.11149319 37.69842728 37.24692034 38.10179569 35.3815918 38.50120544 C35.3815918 39.82120544 35.3815918 41.14120544 35.3815918 42.50120544 C36.9284668 42.00620544 36.9284668 42.00620544 38.5065918 41.50120544 C41.88820207 40.54285436 44.84879684 40.18004227 48.3815918 40.50120544 C51.66604462 42.69084066 51.95416782 43.18332868 52.8815918 46.81370544 C53.5147064 50.30423995 53.5714492 51.15186782 51.8190918 54.37620544 C47.36484392 57.99215386 40.86339389 58.5139995 35.3815918 59.50120544 C35.40479492 60.47702576 35.42799805 61.45284607 35.4519043 62.45823669 C35.46995117 63.73054138 35.48799805 65.00284607 35.5065918 66.31370544 C35.52979492 67.57827576 35.55299805 68.84284607 35.5769043 70.14573669 C35.3815918 73.50120544 35.3815918 73.50120544 33.3815918 76.50120544 C30.6315918 76.89964294 30.6315918 76.89964294 27.3815918 76.87620544 C25.7728418 76.88780701 25.7728418 76.88780701 24.1315918 76.89964294 C22.7703418 76.70241638 22.7703418 76.70241638 21.3815918 76.50120544 C19.35808856 73.46595058 19.06035162 72.30694343 18.7565918 68.81370544 C18.68182617 68.00546326 18.60706055 67.19722107 18.5300293 66.36448669 C18.48104492 65.74960388 18.43206055 65.13472107 18.3815918 64.50120544 C17.3709668 64.85183044 16.3603418 65.20245544 15.3190918 65.56370544 C11.41351442 66.66711043 8.34036136 66.5879265 4.3815918 65.50120544 C2.40020077 62.57784163 2.15430865 60.22883235 2.2565918 56.75120544 C2.27463867 55.95198669 2.29268555 55.15276794 2.3112793 54.32933044 C2.33448242 53.72604919 2.35768555 53.12276794 2.3815918 52.50120544 C7.77313437 49.29542337 13.22591103 48.43222478 19.3815918 47.50120544 C19.0515918 46.18120544 18.7215918 44.86120544 18.3815918 43.50120544 C17.3709668 43.85183044 16.3603418 44.20245544 15.3190918 44.56370544 C11.41351442 45.66711043 8.34036136 45.5879265 4.3815918 44.50120544 C2.40020077 41.57784163 2.15430865 39.22883235 2.2565918 35.75120544 C2.27463867 34.95198669 2.29268555 34.15276794 2.3112793 33.32933044 C2.33448242 32.72604919 2.35768555 32.12276794 2.3815918 31.50120544 C7.98722129 28.82025221 13.26011475 27.59133149 19.3815918 26.50120544 C19.3815918 23.20120544 19.3815918 19.90120544 19.3815918 16.50120544 C17.91206055 16.54761169 16.4425293 16.59401794 14.9284668 16.64183044 C12.99619545 16.67935028 11.06390213 16.71575021 9.1315918 16.75120544 C8.16350586 16.78472107 7.19541992 16.81823669 6.19799805 16.85276794 C-0.94428875 16.95128224 -0.94428875 16.95128224 -4.26293945 14.73558044 C-5.68338664 12.39409401 -6.13530049 11.21112884 -6.0559082 8.50120544 C-6.05461914 7.84120544 -6.05333008 7.18120544 -6.05200195 6.50120544 C-5.24275859 2.76847928 -3.82229818 0.73164935 0 0 Z "
    fill="#00C0F3" transform="translate(122.618408203125,37.49879455566406)" />
  <path
    d="M0 0 C2.97941998 -0.05455703 5.95781531 -0.09393851 8.9375 -0.125 C10.18370117 -0.15013672 10.18370117 -0.15013672 11.45507812 -0.17578125 C18.89642493 -0.23369056 26.95866285 0.20246756 33 5 C36.66748559 9.32239373 37.13761447 14.49542117 37 20 C36.17571619 23.88590938 34.51288117 26.48711883 31.6875 29.3125 C26.31647431 32.6850045 21.36018271 33.28208794 15.125 33.125 C14.43664062 33.11597656 13.74828125 33.10695312 13.0390625 33.09765625 C11.35922162 33.07432513 9.67956254 33.03846326 8 33 C8.03480469 33.90492188 8.03480469 33.90492188 8.0703125 34.828125 C8.09738281 36.02695313 8.09738281 36.02695313 8.125 37.25 C8.14820313 38.03890625 8.17140625 38.8278125 8.1953125 39.640625 C7.9828378 42.20731941 7.28654105 43.7916067 6 46 C4.35 46 2.7 46 1 46 C-1.36505818 41.34311432 -1.27505452 37.14502613 -1.23046875 32.05078125 C-1.23001053 31.19695358 -1.22955231 30.34312592 -1.2290802 29.46342468 C-1.22606816 27.66562503 -1.21821333 25.86782775 -1.20581055 24.07006836 C-1.18749398 21.31159278 -1.18530143 18.55345207 -1.18554688 15.79492188 C-1.1806335 14.04687209 -1.17480597 12.29882457 -1.16796875 10.55078125 C-1.16685593 9.7237117 -1.1657431 8.89664215 -1.16459656 8.04450989 C-1.11609322 2.23218643 -1.11609322 2.23218643 0 0 Z M8 8 C8 13.94 8 19.88 8 26 C18.86115811 26.55139333 18.86115811 26.55139333 27.9375 21.25 C29.56642957 17.80050209 29.03214623 15.61251179 28 12 C25.07652429 8.89483936 23.51603487 8.05347512 19.23046875 7.609375 C17.88218655 7.63195258 16.53433071 7.68350437 15.1875 7.75 C12.815625 7.8325 10.44375 7.915 8 8 Z "
    fill="#00C0F3" transform="translate(191,165)" />
  <path
    d="M0 0 C1 1 1 1 1.0625 3.5625 C1.041875 4.366875 1.02125 5.17125 1 6 C-1.76152441 7.06212477 -2.8945712 7.03594164 -5.75 6.0625 C-10.79879834 4.41193131 -15.10111633 4.05055817 -20 6.5 C-20.66 6.995 -21.32 7.49 -22 8 C-22.13440778 10.42919865 -22.13440778 10.42919865 -21 13 C-18.27784803 14.28403395 -15.86713698 15.16245921 -13 16 C-1.90027807 19.24627883 -1.90027807 19.24627883 1.6875 22.25 C4.01943794 27.13596521 4.60308427 31.03997613 3 36.25 C-0.0369258 40.42577298 -3.51357767 42.2540733 -8.5 43.75 C-16.59862145 44.55986215 -24.12913462 43.58057692 -31 39 C-31.1875 35.875 -31.1875 35.875 -31 33 C-27.38058281 33.44319394 -24.09222119 33.9692596 -20.625 35.125 C-16.26483382 36.17745391 -12.33489775 36.25174373 -8 35 C-6.21629592 33.65981622 -6.21629592 33.65981622 -5 32 C-4.68740419 29.90938769 -4.68740419 29.90938769 -6 28 C-9.90482245 25.92296678 -13.81589572 24.75565468 -18.0625 23.5625 C-23.06309354 22.10113933 -27.12845194 20.46704063 -30.375 16.1875 C-31.58534687 11.95128597 -31.59918794 8.35605691 -29.8125 4.3125 C-22.54082556 -4.9651536 -9.97540995 -5.54189441 0 0 Z "
    fill="#00C0F3" transform="translate(31,168)" />
  <path
    d="M0 0 C3.25572847 2.33744608 5.04582381 4.1305041 5.99902344 8.07177734 C6.72346042 12.49665133 6.66311356 16.90008903 6.6875 21.375 C6.708125 22.32890625 6.72875 23.2828125 6.75 24.265625 C6.75515625 25.18085938 6.7603125 26.09609375 6.765625 27.0390625 C6.77964355 28.28743896 6.77964355 28.28743896 6.79394531 29.56103516 C6.35745856 32.24154218 5.59973751 33.15031184 3.4375 34.75 C1.11261119 34.4681953 -0.47142835 33.79553582 -2.5625 32.75 C-4.13591053 33.05202579 -5.69781961 33.41554116 -7.25 33.8125 C-11.97517793 34.80655761 -15.05334342 34.7835412 -19.5625 32.75 C-22.37451577 30.71577583 -24.20738224 29.28884364 -25.0078125 25.8203125 C-25.21548665 22.1514026 -24.76694988 20.11171902 -22.9375 16.875 C-18.40319774 12.81799272 -13.58981372 12.50454462 -7.6875 12.625 C-6.53507812 12.64304688 -5.38265625 12.66109375 -4.1953125 12.6796875 C-3.32648438 12.70289063 -2.45765625 12.72609375 -1.5625 12.75 C-2.92405102 9.57857071 -2.92405102 9.57857071 -5.5625 6.75 C-9.33630913 6.00596303 -13.09234096 6.01492048 -16.5625 7.75 C-18.56210012 7.789992 -20.56297242 7.79346799 -22.5625 7.75 C-22.5625 5.77 -22.5625 3.79 -22.5625 1.75 C-15.42894604 -2.14102943 -7.70538845 -2.70364507 0 0 Z M-16.5625 20.75 C-16.81280977 23.16619823 -16.81280977 23.16619823 -16.5625 25.75 C-12.81202518 28.25031654 -11.00393734 28.28603554 -6.5625 27.75 C-3.54019298 25.64498129 -3.54019298 25.64498129 -1.5625 22.75 C-1.5625 21.43 -1.5625 20.11 -1.5625 18.75 C-9.30588636 18.36041465 -9.30588636 18.36041465 -16.5625 20.75 Z "
    fill="#00C0F2" transform="translate(156.5625,177.25)" />
  <path
    d="M0 0 C3.46555727 1.86438208 5.37729948 3.59477435 6.7265625 7.24609375 C6.95361328 10.17871094 6.95361328 10.17871094 6.921875 13.54296875 C6.91542969 14.74824219 6.90898437 15.95351562 6.90234375 17.1953125 C6.88558594 18.44957031 6.86882812 19.70382813 6.8515625 20.99609375 C6.84253906 22.26582031 6.83351563 23.53554687 6.82421875 24.84375 C6.80065255 27.97805468 6.76775082 31.11197916 6.7265625 34.24609375 C4.4140625 34.87109375 4.4140625 34.87109375 1.7265625 35.24609375 C0.7365625 34.58609375 -0.2534375 33.92609375 -1.2734375 33.24609375 C-3.16575144 33.77726959 -5.05794572 34.30887981 -6.94921875 34.84375 C-11.25935214 35.58987393 -15.20510075 34.74117157 -19.2734375 33.24609375 C-22.1010099 31.02442972 -22.99918158 29.59533493 -23.7109375 26.09375 C-24.06047672 21.71722765 -24.06047672 21.71722765 -23.2734375 19.24609375 C-18.83272147 14.4812882 -15.26428192 13.41131987 -8.8984375 12.93359375 C-8.16238281 12.86076172 -7.42632812 12.78792969 -6.66796875 12.71289062 C-4.87157344 12.53791706 -3.07264703 12.38926125 -1.2734375 12.24609375 C-2.47693714 9.68914456 -2.47693714 9.68914456 -4.2734375 7.24609375 C-6.26969415 6.60554124 -6.26969415 6.60554124 -8.4609375 6.87109375 C-9.64042969 6.93683594 -9.64042969 6.93683594 -10.84375 7.00390625 C-14.33540934 7.35194946 -17.80021632 7.74089794 -21.2734375 8.24609375 C-21.6034375 6.59609375 -21.9334375 4.94609375 -22.2734375 3.24609375 C-15.44836383 -0.99651961 -7.87955853 -2.61298075 0 0 Z M-15.2734375 21.24609375 C-16.60648448 24.13796161 -16.60648448 24.13796161 -15.3359375 26.43359375 C-12.74100669 28.71398749 -10.68793798 28.87283086 -7.28125 28.703125 C-3.84026128 27.91986492 -2.28997573 26.01883382 -0.2734375 23.24609375 C-0.2734375 21.92609375 -0.2734375 20.60609375 -0.2734375 19.24609375 C-2.02309108 19.19179416 -3.77323537 19.15316552 -5.5234375 19.12109375 C-6.49796875 19.09789062 -7.4725 19.0746875 -8.4765625 19.05078125 C-11.33970963 19.25072169 -12.92498988 19.61941673 -15.2734375 21.24609375 Z "
    fill="#00C0F3" transform="translate(254.2734375,176.75390625)" />
  <path
    d="M0 0 C3.7229703 2.6592645 6.55543557 5.73587115 8.625 9.875 C9.3375097 17.06116923 9.57812054 23.40446147 5.10546875 29.35546875 C1.35328523 33.20665447 -3.0251612 34.39824919 -8.296875 34.87109375 C-13.55337786 34.88097439 -17.31199062 33.57698733 -21.6875 30.6875 C-25.7767752 26.40802595 -27.49924064 22.3085867 -27.8125 16.4375 C-27.62299449 11.60922912 -26.25119073 7.76269511 -23.375 3.875 C-16.40211264 -1.67484912 -8.46851469 -2.82283823 0 0 Z M-18.375 10.875 C-19.9297669 13.98453379 -19.66144437 16.43766761 -19.375 19.875 C-17.62726375 23.30574154 -16.30301207 25.31330848 -13 27.3125 C-9.66191063 28.02780486 -7.64453662 27.89673019 -4.375 26.875 C-0.92206834 24.2661183 0.41169341 22.6082414 1.625 18.4375 C1.625 13.50000867 0.22164696 10.58569317 -3.125 7 C-9.68691104 3.71904448 -13.72194459 6.22194459 -18.375 10.875 Z "
    fill="#00C0F3" transform="translate(65.375,177.125)" />
  <path
    d="M0 0 C2.3359375 0 2.3359375 0 5 1 C6.48505849 3.37609358 7.55981201 5.44545041 8.625 8 C8.92349854 8.67683838 9.22199707 9.35367676 9.52954102 10.05102539 C11.65409239 14.94525848 13.47451934 19.88515307 15 25 C15.66 25 16.32 25 17 25 C17.12375 24.04867187 17.12375 24.04867187 17.25 23.078125 C18.31024506 18.72670257 20.15282508 14.81895174 22 10.75 C22.36867188 9.92242187 22.73734375 9.09484375 23.1171875 8.2421875 C25.85667783 2.14332217 25.85667783 2.14332217 27 1 C28.66617115 0.95936168 30.33388095 0.957279 32 1 C32.29344788 6.39333995 31.49475299 10.03356635 29.33203125 14.96484375 C29.05534103 15.60184708 28.77865082 16.2388504 28.49357605 16.89515686 C27.90859403 18.23476784 27.31744796 19.57170241 26.72045898 20.90600586 C25.81909435 22.92274561 24.93836665 24.94752737 24.06054688 26.97460938 C16.45751037 44.36165975 16.45751037 44.36165975 11 48 C8.15234375 48.265625 8.15234375 48.265625 4.9375 48.25 C3.87402344 48.25515625 2.81054688 48.2603125 1.71484375 48.265625 C-1 48 -1 48 -3 46 C-2.67 44.35 -2.34 42.7 -2 41 C1.63 41 5.26 41 9 41 C11.35023547 32.64827038 7.49643195 26.19759112 4 18.75 C3.11857679 16.85132772 2.24307907 14.9506143 1.38110352 13.04302979 C0.60204215 11.32174099 -0.19652483 9.60931995 -0.99609375 7.89746094 C-2.01641345 4.95262772 -2.21608531 3.81507317 -1 1 C-0.67 0.67 -0.34 0.34 0 0 Z "
    fill="#00C0F3" transform="translate(268,175)" />
  <path
    d="M0 0 C2.4375 1.625 2.4375 1.625 4.4375 3.625 C4.5625 6.25 4.5625 6.25 4.4375 8.625 C2.25 9.3125 2.25 9.3125 -0.5625 9.625 C-1.34625 9.150625 -2.13 8.67625 -2.9375 8.1875 C-6.36235024 6.14889867 -8.63477827 6.26793439 -12.5625 6.625 C-15.16137253 7.46787758 -16.19427973 8.12790263 -17.8125 10.3125 C-19.209973 14.62137509 -19.13542028 18.26808355 -17.375 22.4375 C-15.19800215 25.0649112 -13.87996825 25.85349576 -10.5625 26.625 C-6.6824299 26.31459439 -4.83296125 25.8053075 -1.5625 23.625 C1.125 23.5 1.125 23.5 3.4375 23.625 C4.1875 25.875 4.1875 25.875 4.4375 28.625 C2.79571225 31.49812856 1.1235295 32.41061578 -2 33.38671875 C-8.1642356 34.73086457 -12.66683909 34.92330849 -18.5625 32.625 C-23.53985824 29.33806531 -25.84847675 26.33841083 -27.5625 20.625 C-28.49815952 14.21399958 -27.44808317 8.87707266 -23.5625 3.625 C-16.56555192 -1.94399949 -8.40265751 -3.24313097 0 0 Z "
    fill="#00C0F3" transform="translate(105.5625,177.375)" />
  <path
    d="M0 0 C2.375 -0.125 2.375 -0.125 5 0 C7.4062622 2.4062622 7.25201459 2.95107177 7.25878906 6.234375 C7.26509338 7.10868164 7.27139771 7.98298828 7.27789307 8.88378906 C7.2738446 9.82963867 7.26979614 10.77548828 7.265625 11.75 C7.26753845 12.71905273 7.2694519 13.68810547 7.27142334 14.68652344 C7.27278579 16.73763285 7.26908518 18.78875086 7.26074219 20.83984375 C7.25004359 23.98717539 7.26063554 27.1339362 7.2734375 30.28125 C7.27211592 32.2708346 7.26955355 34.26041884 7.265625 36.25 C7.26967346 37.19584961 7.27372192 38.14169922 7.27789307 39.11621094 C7.27158875 39.99051758 7.26528442 40.86482422 7.25878906 41.765625 C7.25640228 42.92239746 7.25640228 42.92239746 7.25396729 44.10253906 C7 46 7 46 5 48 C0.44444444 47.44444444 0.44444444 47.44444444 -1 46 C-1.09794531 44.62920117 -1.12798081 43.2534432 -1.12939453 41.87915039 C-1.13254669 41.00476822 -1.13569885 40.13038605 -1.13894653 39.22950745 C-1.13591019 37.8029911 -1.13591019 37.8029911 -1.1328125 36.34765625 C-1.13376923 35.37718857 -1.13472595 34.40672089 -1.13571167 33.40684509 C-1.13639365 31.34976131 -1.13453814 29.29267538 -1.13037109 27.2355957 C-1.12502884 24.07954078 -1.13031253 20.92362855 -1.13671875 17.76757812 C-1.13605786 15.77343718 -1.13477647 13.77929633 -1.1328125 11.78515625 C-1.13483673 10.83616959 -1.13686096 9.88718292 -1.13894653 8.90943909 C-1.13421829 7.59313759 -1.13421829 7.59313759 -1.12939453 6.25024414 C-1.12859894 5.4760463 -1.12780334 4.70184845 -1.12698364 3.90419006 C-1 2 -1 2 0 0 Z "
    fill="#00C0F3" transform="translate(173,163)" />
  <path
    d="M0 0 C1.875 0.75 1.875 0.75 2.875 2.75 C3.08597648 7.03335441 3.06079742 11.32043438 3.06030273 15.60839844 C3.06249152 17.74173865 3.08065919 19.87456366 3.09960938 22.0078125 C3.10254294 23.35937323 3.10452798 24.71093642 3.10546875 26.0625 C3.10957764 27.29613281 3.11368652 28.52976563 3.11791992 29.80078125 C2.875 32.75 2.875 32.75 0.875 34.75 C-1.6875 34.9375 -1.6875 34.9375 -4.125 34.75 C-6.03887473 32.83612527 -5.31203079 29.33009062 -5.328125 26.72265625 C-5.33382507 26.01854111 -5.33952515 25.31442596 -5.34539795 24.588974 C-5.35485963 23.09684762 -5.36138656 21.60470024 -5.36523438 20.11254883 C-5.37494559 17.8253145 -5.40595825 15.53897651 -5.4375 13.25195312 C-5.44402925 11.80469286 -5.44928003 10.35742614 -5.453125 8.91015625 C-5.4654718 8.22365494 -5.4778186 7.53715363 -5.49053955 6.82984924 C-5.48144531 4.89868164 -5.48144531 4.89868164 -5.125 1.75 C-2.125 -0.25 -2.125 -0.25 0 0 Z "
    fill="#00C0F3" transform="translate(122.125,176.25)" />
  <path
    d="M0 0 C3 0.25 3 0.25 5 2.25 C5.25 4.75 5.25 4.75 5 7.25 C3 9.25 3 9.25 0 9.5 C-3 9.25 -3 9.25 -5 7.25 C-5.25 4.75 -5.25 4.75 -5 2.25 C-3 0.25 -3 0.25 0 0 Z "
    fill="#00C0F3" transform="translate(121,161.75)" />
</svg>

