<svg width="140" height="45" viewBox="0 0 140 45" fill="none" xmlns="http://www.w3.org/2000/svg">
  <path
    d="M0 13.3516H0.371353C4.8276 13.3516 8.54114 16.298 9.28385 20.3493L12.9974 36.1861L18.1964 17.4028C18.939 15.1931 20.7958 13.3516 23.3953 13.3516C25.6235 13.3516 27.8515 14.8248 28.5943 17.4028L33.4219 36.5543L37.1354 20.7176C38.2495 16.6662 41.963 13.7199 46.0479 13.7199L37.1354 43.9204H28.9656L23.3953 22.9273L17.825 43.9204H8.9125L0 13.3516Z"
    fill="white" />
  <path
    d="M60.1596 44.2886C51.2472 44.2886 44.5627 38.0275 44.5627 28.8202C44.5627 19.2444 51.6185 13.3516 60.1596 13.3516C69.0721 13.3516 75.7565 19.2444 75.7565 28.8202C76.1279 38.0275 69.0721 44.2886 60.1596 44.2886ZM60.1596 37.6593C64.2446 37.6593 68.3295 34.7129 68.3295 28.8202C68.3295 22.9273 64.6159 19.981 60.531 19.981C56.446 19.981 52.7326 22.9273 52.7326 28.8202C52.7326 34.7129 56.0747 37.6593 60.1596 37.6593Z"
    fill="white" />
  <path
    d="M86.8964 43.5531H79.4694V13.3526H86.8964V18.1405C88.7532 15.1942 92.0954 12.9844 96.1802 12.9844V21.0869H94.3235C89.8672 21.0869 86.8964 22.9284 86.8964 28.8212V43.5531Z"
    fill="white" />
  <path
    d="M138.886 13.3516V35.8178C138.886 39.8691 135.544 43.552 131.088 43.552V21.0859C131.459 16.6662 134.801 13.3516 138.886 13.3516Z"
    fill="white" />
  <path
    d="M114.005 28.4518L127.374 13.3516C121.061 13.3516 115.119 16.298 111.035 21.0859L106.95 26.2421V13.3516H99.1512V43.552H106.95V30.6616L117.348 43.552H127.374L114.005 28.4518Z"
    fill="white" />
  <path
    d="M130.345 5.24967C130.345 2.67157 132.202 0.830078 135.173 0.830078C137.772 0.830078 140 2.67157 140 5.24967C140 7.82775 137.772 9.66924 135.173 9.66924C132.574 9.66924 130.345 7.82775 130.345 5.24967Z"
    fill="#FF746B" />
</svg>
